<svg clip-rule="evenodd" fill-rule="evenodd" stroke-linejoin="round" stroke-miterlimit="2" viewBox="0 0 1792 1408" xmlns="http://www.w3.org/2000/svg"><path d="m1792 192v-128c0-17.333-6.33-32.333-19-45s-27.67-19-45-19h-1664c-17.333 0-32.333 6.333-45 19s-19 27.667-19 45v128c0 17.333 6.333 32.333 19 45s27.667 19 45 19h1664c17.33 0 32.33-6.333 45-19s19-27.667 19-45zm-384 384v-128c0-17.333-6.33-32.333-19-45s-27.67-19-45-19h-1280c-17.333 0-32.333 6.333-45 19s-19 27.667-19 45v128c0 17.333 6.333 32.333 19 45s27.667 19 45 19h1280c17.33 0 32.33-6.333 45-19s19-27.667 19-45zm256 384v-128c0-17.333-6.33-32.333-19-45s-27.67-19-45-19h-1536c-17.333 0-32.333 6.333-45 19s-19 27.667-19 45v128c0 17.333 6.333 32.333 19 45 12.667 12.67 27.667 19 45 19h1536c17.33 0 32.33-6.33 45-19 12.67-12.667 19-27.667 19-45zm-384 384v-128c0-17.33-6.33-32.33-19-45s-27.67-19-45-19h-1152c-17.333 0-32.333 6.33-45 19s-19 27.67-19 45v128c0 17.33 6.333 32.33 19 45s27.667 19 45 19h1152c17.33 0 32.33-6.33 45-19s19-27.67 19-45z" fill-rule="nonzero" transform="matrix(-1 0 0 -1 1792 1407.998)"/><defs><style>svg { fill: #666; } @media (prefers-color-scheme:dark) { svg { fill: white; } }</style></defs></svg>