<svg height="330" viewBox="0 0 330 330" width="330" xmlns="http://www.w3.org/2000/svg" xmlns:xlink="http://www.w3.org/1999/xlink"><defs><path id="a" d="m165 330c91.126984 0 165-73.873016 165-165 0-91.1269837-73.873016-165-165-165-91.1269837 0-165 73.8730163-165 165 0 91.126984 73.8730163 165 165 165z"/><mask id="b" fill="#fff" height="330" width="330" x="0" y="0"><use xlink:href="#a"/></mask><path id="c" d="m165 330c91.126984 0 165-73.873016 165-165 0-91.1269837-73.873016-165-165-165-91.1269837 0-165 73.8730163-165 165 0 91.126984 73.8730163 165 165 165z"/><mask id="d" fill="#fff" height="330" width="330" x="0" y="0"><use xlink:href="#c"/></mask></defs><g fill="none" fill-rule="evenodd" stroke="#fff"><use mask="url(#b)" stroke-dasharray="1 13.4" stroke-width="42" xlink:href="#a"/><use mask="url(#d)" stroke-dasharray="1 85.400002" stroke-width="82" xlink:href="#c"/></g></svg>