<?xml version="1.0" encoding="UTF-8"?>
<svg width="330px" height="330px" viewBox="0 0 330 330" version="1.1" xmlns="http://www.w3.org/2000/svg" xmlns:xlink="http://www.w3.org/1999/xlink">
    <title>Group</title>
    <defs>
        <path d="M165,330 C256.126984,330 330,256.126984 330,165 C330,73.8730163 256.126984,0 165,0 C73.8730163,0 0,73.8730163 0,165 C0,256.126984 73.8730163,330 165,330 Z" id="path-1"></path>
        <mask id="mask-2" maskContentUnits="userSpaceOnUse" maskUnits="objectBoundingBox" x="0" y="0" width="330" height="330" fill="white">
            <use xlink:href="#path-1"></use>
        </mask>
        <path d="M165,330 C256.126984,330 330,256.126984 330,165 C330,73.8730163 256.126984,0 165,0 C73.8730163,0 0,73.8730163 0,165 C0,256.126984 73.8730163,330 165,330 Z" id="path-3"></path>
        <mask id="mask-4" maskContentUnits="userSpaceOnUse" maskUnits="objectBoundingBox" x="0" y="0" width="330" height="330" fill="white">
            <use xlink:href="#path-3"></use>
        </mask>
    </defs>
    <g id="Page-1" stroke="none" stroke-width="1" fill="none" fill-rule="evenodd">
        <g id="Watch-vector-(Braun-BN0171-Modern-Black-Ceramic)" transform="translate(-657, -223)" stroke="#000000">
            <g id="Watch-face" transform="translate(642, 207)">
                <g id="Group" transform="translate(15, 16)">
                    <use id="Secondary-indicators" mask="url(#mask-2)" stroke-width="42" stroke-dasharray="1,13.39999961853027" xlink:href="#path-1"></use>
                    <use id="Main-indicators" mask="url(#mask-4)" stroke-width="82" stroke-dasharray="1,85.40000152587891" xlink:href="#path-3"></use>
                </g>
            </g>
        </g>
    </g>
</svg>