<?xml version="1.0" encoding="UTF-8" standalone="no"?>
<!DOCTYPE svg PUBLIC "-//W3C//DTD SVG 1.1//EN" "http://www.w3.org/Graphics/SVG/1.1/DTD/svg11.dtd">
<svg width="100%" height="100%" viewBox="0 0 88 86" version="1.1" xmlns="http://www.w3.org/2000/svg" xmlns:xlink="http://www.w3.org/1999/xlink" xml:space="preserve" xmlns:serif="http://www.serif.com/" style="fill-rule:evenodd;clip-rule:evenodd;stroke-linejoin:round;stroke-miterlimit:2;">
    <g transform="matrix(1,0,0,1,-1999.3,-1048.95)">
        <g id="Semibold-M" transform="matrix(1,0,0,1,1986.85,1126)">
            <path d="M46.387,8.643C49.284,8.643 51.514,7.454 53.076,5.078L98.779,-65.625C99.333,-66.471 99.74,-67.285 100,-68.066C100.261,-68.848 100.391,-69.629 100.391,-70.41C100.391,-72.331 99.756,-73.918 98.486,-75.171C97.217,-76.424 95.605,-77.051 93.652,-77.051C92.253,-77.051 91.097,-76.774 90.186,-76.221C89.274,-75.667 88.395,-74.74 87.549,-73.438L46.191,-7.91L25,-34.766C23.47,-36.686 21.582,-37.647 19.336,-37.647C17.35,-37.647 15.706,-37.012 14.404,-35.742C13.102,-34.473 12.451,-32.861 12.451,-30.908C12.451,-30.029 12.606,-29.183 12.915,-28.369C13.224,-27.555 13.737,-26.725 14.453,-25.879L39.746,5.273C41.569,7.52 43.783,8.643 46.387,8.643Z" style="fill:#fff;fill-rule:nonzero;"/>
        </g>
    </g>
</svg>
