<svg xmlns="http://www.w3.org/2000/svg">
    <symbol
        id="contextmenu-time"
        viewBox="0 0 24 24"
        clip-rule="evenodd"
        fill-rule="evenodd"
        stroke-linejoin="round"
        stroke-miterlimit="2"
    >
        <g transform="translate(0)">
            <path d="m9 7h2v5h5v2h-7z" fill-rule="nonzero" fill="currentColor" />
            <path
                d="m22 12c0 5.523-4.477 10-10 10s-10-4.477-10-10 4.477-10 10-10 10 4.477 10 10zm-2 0c0 4.418-3.582 8-8 8s-8-3.582-8-8 3.582-8 8-8 8 3.582 8 8z"
                fill="currentColor"
            />
        </g>
    </symbol>

    <symbol
        id="contextmenu-notes"
        viewBox="0 0 24 24"
        clip-rule="evenodd"
        fill-rule="evenodd"
        stroke-linejoin="round"
        stroke-miterlimit="2"
        fill="none"
        stroke-width="2" 
    >
        <path stroke="currentColor" stroke-linecap="round" stroke-linejoin="round" d="m16.862 4.487 1.687-1.688a1.875 1.875 0 1 1 2.652 2.652L10.582 16.07a4.5 4.5 0 0 1-1.897 1.13L6 18l.8-2.685a4.5 4.5 0 0 1 1.13-1.897l8.932-8.931Zm0 0L19.5 7.125M18 14v4.75A2.25 2.25 0 0 1 15.75 21H5.25A2.25 2.25 0 0 1 3 18.75V8.25A2.25 2.25 0 0 1 5.25 6H10" />
    </symbol>

    <symbol
        id="contextmenu-weather"
        viewBox="0 0 24 24"
        clip-rule="evenodd"
        fill-rule="evenodd"
        stroke-linejoin="round"
        stroke-miterlimit="2"
    >
        <g fill="currentColor" transform="translate(-0 -.00002)">
            <path
                d="m12 16c2.209 0 4-1.791 4-4s-1.791-4-4-4-4 1.791-4 4 1.791 4 4 4zm0 2c3.314 0 6-2.686 6-6s-2.686-6-6-6-6 2.686-6 6 2.686 6 6 6z"
            />
            <path
                d="m11 0h2v4.062c-.328-.041-.661-.062-1-.062s-.672.021-1 .062zm-3.906 5.68-2.872-2.872-1.414 1.414 2.872 2.872c.411-.528.886-1.003 1.414-1.414zm-3.032 5.32h-4.062v2h4.062c-.041-.328-.062-.661-.062-1s.021-.672.062-1zm1.618 5.906-2.872 2.872 1.414 1.414 2.872-2.872c-.528-.411-1.003-.886-1.414-1.414zm5.32 3.032v4.062h2v-4.062c-.328.041-.661.062-1 .062s-.672-.021-1-.062zm5.906-1.618 2.872 2.872 1.414-1.414-2.872-2.872c-.411.528-.886 1.003-1.414 1.414zm3.032-5.32h4.062v-2h-4.062c.041.328.062.661.062 1s-.021.672-.062 1zm-1.618-5.906 2.872-2.872-1.414-1.414-2.872 2.872c.528.411 1.003.886 1.414 1.414z"
            />
        </g>
    </symbol>

    <symbol
        id="contextmenu-quotes"
        viewBox="0 0 24 24"
        clip-rule="evenodd"
        fill-rule="evenodd"
        stroke-linejoin="round"
        stroke-miterlimit="2"
    >
        <g fill-rule="nonzero" fill="currentColor" transform="translate(-.00001 0)">
            <path d="m9.135 9h3l-2.135 5.608h-3z" />
            <path d="m14.135 9h3l-2.135 5.608h-3z" />
        </g>
    </symbol>

    <symbol id="contextmenu-pomodoro" viewBox="0 0 24 24" fill="currentColor">
        <path
            d="M12,20A7,7 0 0,1 5,13A7,7 0 0,1 12,6A7,7 0 0,1 19,13A7,7 0 0,1 12,20M19.03,7.39L20.45,5.97C20,5.46 19.55,5 19.04,4.56L17.62,6C16.07,4.74 14.12,4 12,4A9,9 0 0,0 3,13A9,9 0 0,0 12,22C17,22 21,17.97 21,13C21,10.88 20.26,8.93 19.03,7.39M11,14H13V8H11M15,1H9V3H15V1Z"
        />
    </symbol>

    <symbol
        id="contextmenu-background"
        viewBox="0 0 24 24"
        clip-rule="evenodd"
        fill-rule="evenodd"
        stroke-linejoin="round"
        stroke-miterlimit="2"
    >
        <g transform="translate(0 -.00001)" fill="currentColor">
            <path
                d="m7 7c-1.657 0-3 1.343-3 3s1.343 3 3 3 3-1.343 3-3-1.343-3-3-3zm-1 3c0-.552.448-1 1-1s1 .448 1 1-.448 1-1 1-1-.448-1-1z"
            />
            <path
                d="m3 3c-1.657 0-3 1.343-3 3v12c0 1.657 1.343 3 3 3h18c1.657 0 3-1.343 3-3v-12c0-1.657-1.343-3-3-3zm18 2h-18c-.552 0-1 .448-1 1v12c0 .552.448 1 1 1h4.314l6.878-6.879c1.172-1.171 3.072-1.171 4.243 0l3.565 3.565v-9.686c0-.552-.448-1-1-1zm0 14h-10.858l5.465-5.464c.39-.391 1.023-.391 1.414 0l4.886 4.886c-.159.341-.505.578-.907.578z"
            />
        </g>
    </symbol>

    <symbol
        id="contextmenu-searchbar"
        viewBox="0 0 24 24"
        clip-rule="evenodd"
        fill-rule="evenodd"
        stroke-linejoin="round"
        stroke-miterlimit="2" fill="none"  stroke-width="2" stroke="currentColor"
    >
        <path stroke-linecap="round" stroke-linejoin="round" d="m21 21-5.197-5.197m0 0A7.5 7.5 0 1 0 5.196 5.196a7.5 7.5 0 0 0 10.607 10.607Z" />
    </symbol>

    <symbol
        id="contextmenu-links"
        viewBox="0 0 24 24"
        clip-rule="evenodd"
        fill-rule="evenodd"
        stroke-linejoin="round"
        stroke-miterlimit="2"
    >
        <g fill-rule="nonzero" fill="currentColor">
            <path
                d="m14.828 12 1.415 1.414 2.828-2.828c1.562-1.562 1.562-4.095 0-5.657s-4.095-1.562-5.657 0l-2.828 2.828 1.414 1.415 2.828-2.829c.782-.781 2.048-.781 2.829 0s.781 2.047 0 2.829z"
            />
            <path
                d="m12 14.829 1.414 1.414-2.828 2.828c-1.562 1.562-4.095 1.562-5.657 0s-1.562-4.095 0-5.657l2.828-2.828 1.415 1.414-2.829 2.829c-.781.781-.781 2.047 0 2.828s2.048.781 2.829 0z"
            />
            <path
                d="m14.829 10.586c.39-.391.39-1.024 0-1.415-.391-.39-1.024-.39-1.415 0l-4.242 4.243c-.391.391-.391 1.024 0 1.414.39.391 1.023.391 1.414 0z"
            />
        </g>
    </symbol>

    <symbol
        id="contextmenu-add-link"
        viewBox="0 0 717 717"
        clip-rule="evenodd"
        fill-rule="evenodd"
        stroke-linecap="round"
        stroke-linejoin="round"
    >
        <g fill="none" stroke="currentColor" stroke-width="50" transform="translate(-41.6667 -41.6667)">
            <path
                d="m400 733.333c183.333 0 333.333-150 333.333-333.333s-150-333.333-333.333-333.333-333.333 150-333.333 333.333 150 333.333 333.333 333.333z"
            />
            <path d="m266.667 400h266.666" />
            <path d="m400 533.333v-266.666" />
        </g>
    </symbol>
</svg>
