<svg xmlns="http://www.w3.org/2000/svg">
    <!-- those are mostly all from lucide.dev with classes and width/height removed-->
    <symbol
        id="contextmenu-time"
        viewBox="0 0 24 24"
        fill="none"
        stroke="currentColor"
        stroke-width="2"
        stroke-linecap="round"
        stroke-linejoin="round"
    >
        <circle cx="12" cy="12" r="10" />
        <path d="M12 6v6H8" />
    </symbol>

    <symbol
        id="contextmenu-notes"
        viewBox="0 0 24 24"
        fill="none"
        stroke="currentColor"
        stroke-width="2"
        stroke-linecap="round"
        stroke-linejoin="round"
    >
        <path d="M12 3H5a2 2 0 0 0-2 2v14a2 2 0 0 0 2 2h14a2 2 0 0 0 2-2v-7" />
        <path
            d="M18.375 2.625a1 1 0 0 1 3 3l-9.013 9.014a2 2 0 0 1-.853.505l-2.873.84a.5.5 0 0 1-.62-.62l.84-2.873a2 2 0 0 1 .506-.852z"
        />
    </symbol>

    <symbol
        id="contextmenu-weather"
        viewBox="0 0 24 24"
        fill="none"
        stroke="currentColor"
        stroke-width="2"
        stroke-linecap="round"
        stroke-linejoin="round"
    >
        <path d="M12 2v2" />
        <path d="m4.93 4.93 1.41 1.41" />
        <path d="M20 12h2" />
        <path d="m19.07 4.93-1.41 1.41" />
        <path d="M15.947 12.65a4 4 0 0 0-5.925-4.128" />
        <path d="M13 22H7a5 5 0 1 1 4.9-6H13a3 3 0 0 1 0 6Z" />
    </symbol>

    <symbol
        id="contextmenu-quotes"
        viewBox="0 0 24 24"
        fill="none"
        stroke="currentColor"
        stroke-width="2"
        stroke-linecap="round"
        stroke-linejoin="round"
    >
        <path
            d="M16 3a2 2 0 0 0-2 2v6a2 2 0 0 0 2 2 1 1 0 0 1 1 1v1a2 2 0 0 1-2 2 1 1 0 0 0-1 1v2a1 1 0 0 0 1 1 6 6 0 0 0 6-6V5a2 2 0 0 0-2-2z"
        />
        <path
            d="M5 3a2 2 0 0 0-2 2v6a2 2 0 0 0 2 2 1 1 0 0 1 1 1v1a2 2 0 0 1-2 2 1 1 0 0 0-1 1v2a1 1 0 0 0 1 1 6 6 0 0 0 6-6V5a2 2 0 0 0-2-2z"
        />
    </symbol>

    <symbol
        id="contextmenu-pomodoro"
        viewBox="0 0 24 24"
        fill="none"
        stroke="currentColor"
        stroke-width="2"
        stroke-linecap="round"
        stroke-linejoin="round"
    >
        <line x1="10" x2="14" y1="2" y2="2" />
        <line x1="12" x2="15" y1="14" y2="11" />
        <circle cx="12" cy="14" r="8" />
    </symbol>

    <symbol
        id="contextmenu-background"
        viewBox="0 0 24 24"
        fill="none"
        stroke="currentColor"
        stroke-width="2"
        stroke-linecap="round"
        stroke-linejoin="round"
    >
        <path d="M12 17v4" />
        <path d="M8 21h8" />
        <path d="m9 17 6.1-6.1a2 2 0 0 1 2.81.01L22 15" />
        <circle cx="8" cy="9" r="2" />
        <rect x="2" y="3" width="20" height="14" rx="2" />
    </symbol>

    <symbol
        id="contextmenu-searchbar"
        viewBox="0 0 24 24"
        fill="none"
        stroke="currentColor"
        stroke-width="2"
        stroke-linecap="round"
        stroke-linejoin="round"
    >
        <path d="m21 21-4.34-4.34" />
        <circle cx="11" cy="11" r="8" />
    </symbol>

    <symbol
        id="contextmenu-links"
        viewBox="0 0 24 24"
        fill="none"
        stroke="currentColor"
        stroke-width="2"
        stroke-linecap="round"
        stroke-linejoin="round"
    >
        <path d="M10 13a5 5 0 0 0 7.54.54l3-3a5 5 0 0 0-7.07-7.07l-1.72 1.71" />
        <path d="M14 11a5 5 0 0 0-7.54-.54l-3 3a5 5 0 0 0 7.07 7.07l1.71-1.71" />
    </symbol>

    <symbol
        id="contextmenu-add"
        viewBox="0 0 24 24"
        fill="none"
        stroke="currentColor"
        stroke-width="2"
        stroke-linecap="round"
        stroke-linejoin="round"
    >
        <circle cx="12" cy="12" r="10" />
        <path d="M8 12h8" />
        <path d="M12 8v8" />
    </symbol>

    <symbol
        id="contextmenu-delete"
        viewBox="0 0 24 24"
        fill="none"
        stroke="currentColor"
        stroke-width="2"
        stroke-linecap="round"
        stroke-linejoin="round"
    >
        <path d="M10 11v6" />
        <path d="M14 11v6" />
        <path d="M19 6v14a2 2 0 0 1-2 2H7a2 2 0 0 1-2-2V6" />
        <path d="M3 6h18" />
        <path d="M8 6V4a2 2 0 0 1 2-2h4a2 2 0 0 1 2 2v2" />
    </symbol>

    <symbol
        id="contextmenu-refresh"
        viewBox="0 0 24 24"
        fill="none"
        stroke="currentColor"
        stroke-width="2"
        stroke-linecap="round"
        stroke-linejoin="round"
    >
        <path d="M3 12a9 9 0 0 1 9-9 9.75 9.75 0 0 1 6.74 2.74L21 8" />
        <path d="M21 3v5h-5" />
        <path d="M21 12a9 9 0 0 1-9 9 9.75 9.75 0 0 1-6.74-2.74L3 16" />
        <path d="M8 16H3v5" />
    </symbol>

    <symbol
        id="contextmenu-undo-2"
        viewBox="0 0 24 24"
        fill="none"
        stroke="currentColor"
        stroke-width="2"
        stroke-linecap="round"
        stroke-linejoin="round"
    >
        <path d="M9 14 4 9l5-5" />
        <path d="M4 9h10.5a5.5 5.5 0 0 1 5.5 5.5a5.5 5.5 0 0 1-5.5 5.5H11" />
    </symbol>

    <symbol
        id="contextmenu-save"
        viewBox="0 0 24 24"
        fill="none"
        stroke="currentColor"
        stroke-width="2"
        stroke-linecap="round"
        stroke-linejoin="round"
    >
        <path d="M15.2 3a2 2 0 0 1 1.4.6l3.8 3.8a2 2 0 0 1 .6 1.4V19a2 2 0 0 1-2 2H5a2 2 0 0 1-2-2V5a2 2 0 0 1 2-2z" />
        <path d="M17 21v-7a1 1 0 0 0-1-1H8a1 1 0 0 0-1 1v7" />
        <path d="M7 3v4a1 1 0 0 0 1 1h7" />
    </symbol>

    <symbol
        id="contextmenu-mute"
        viewBox="0 0 24 24"
        fill="none"
        stroke="currentColor"
        stroke-width="2"
        stroke-linecap="round"
        stroke-linejoin="round"
    >
        <path
            d="M11 4.702a.705.705 0 0 0-1.203-.498L6.413 7.587A1.4 1.4 0 0 1 5.416 8H3a1 1 0 0 0-1 1v6a1 1 0 0 0 1 1h2.416a1.4 1.4 0 0 1 .997.413l3.383 3.384A.705.705 0 0 0 11 19.298z"
        />
        <line x1="22" x2="16" y1="9" y2="15" />
        <line x1="16" x2="22" y1="9" y2="15" />
    </symbol>

    <symbol
        id="contextmenu-unmute"
        viewBox="0 0 24 24"
        fill="none"
        stroke="currentColor"
        stroke-width="2"
        stroke-linecap="round"
        stroke-linejoin="round"
    >
        <path
            d="M11 4.702a.705.705 0 0 0-1.203-.498L6.413 7.587A1.4 1.4 0 0 1 5.416 8H3a1 1 0 0 0-1 1v6a1 1 0 0 0 1 1h2.416a1.4 1.4 0 0 1 .997.413l3.383 3.384A.705.705 0 0 0 11 19.298z"
        />
        <path d="M16 9a5 5 0 0 1 0 6" />
        <path d="M19.364 18.364a9 9 0 0 0 0-12.728" />
    </symbol>

    <symbol
        id="contextmenu-background-download"
        viewBox="0 0 24 24"
        fill="none"
        stroke="currentColor"
        stroke-width="2"
        stroke-linecap="round"
        stroke-linejoin="round"
    >
        <path d="M12 15V3" />
        <path d="M21 15v4a2 2 0 0 1-2 2H5a2 2 0 0 1-2-2v-4" />
        <path d="m7 10 5 5 5-5" />
    </symbol>

    <symbol id="contextmenu-background-downloading" viewBox="0 0 24 24" fill="currentColor">
        <path d="M12,1A11,11,0,1,0,23,12,11,11,0,0,0,12,1Zm0,19a8,8,0,1,1,8-8A8,8,0,0,1,12,20Z" opacity=".25" />
        <path
            d="M12,4a8,8,0,0,1,7.89,6.7A1.53,1.53,0,0,0,21.38,12h0a1.5,1.5,0,0,0,1.48-1.75,11,11,0,0,0-21.72,0A1.5,1.5,0,0,0,2.62,12h0a1.53,1.53,0,0,0,1.49-1.3A8,8,0,0,1,12,4Z"
        />
    </symbol>

    <symbol
        id="contextmenu-locked"
        viewBox="0 0 24 24"
        fill="none"
        stroke="currentColor"
        stroke-width="2"
        stroke-linecap="round"
        stroke-linejoin="round"
    >
        <rect width="18" height="11" x="3" y="11" rx="2" ry="2" />
        <path d="M7 11V7a5 5 0 0 1 10 0v4" />
    </symbol>

    <symbol
        id="contextmenu-unlocked"
        viewBox="0 0 24 24"
        fill="none"
        stroke="currentColor"
        stroke-width="2"
        stroke-linecap="round"
        stroke-linejoin="round"
    >
        <rect width="18" height="11" x="3" y="11" rx="2" ry="2" />
        <path d="M7 11V7a5 5 0 0 1 9.9-1" />
    </symbol>

    <symbol
        id="contextmenu-background-refresh"
        viewBox="0 0 24 24"
        fill="none"
        stroke="currentColor"
        stroke-width="2"
        stroke-linecap="round"
        stroke-linejoin="round"
    >
        <path d="M21 12a9 9 0 1 1-9-9c2.52 0 4.93 1 6.74 2.74L21 8" />
        <path d="M21 3v5h-5" />
    </symbol>

    <symbol
        id="contextmenu-layout"
        viewBox="0 0 24 24"
        fill="none"
        stroke="currentColor"
        stroke-width="2"
        stroke-linecap="round"
        stroke-linejoin="round"
    >
        <rect width="18" height="18" x="3" y="3" rx="2" />
        <path d="M21 9H3" />
        <path d="M21 15H3" />
    </symbol>
</svg>
