<svg xmlns="http://www.w3.org/2000/svg" viewBox="0 0 512 512" xmlns:v="https://vecta.io/nano"><path fill="#fff" d="M495 466.1L384.9 356c31.1-37.7 48-84.6 48-134 0-56.4-21.9-109.3-61.8-149.2C331.3 32.9 278.3 11 222 11S112.7 32.9 72.8 72.8C32.9 112.6 11 165.6 11 222c0 56.3 21.9 109.3 61.8 149.2C112.6 411 165.6 433 222 433c49.5 0 96.4-16.9 134-48l110.1 110c8 8 20.9 8 28.9 0s8-20.9 0-28.9zM101.7 342.2C69.5 310.1 51.8 267.4 51.8 222s17.7-88.2 49.8-120.3 74.8-49.8 120.3-49.8c45.4 0 88.2 17.7 120.3 49.8S392 176.5 392 222c0 45.4-17.7 88.2-49.8 120.3s-74.9 49.8-120.3 49.8-88.1-17.7-120.2-49.9z"/></svg>