<svg height="632" viewBox="0 0 632 632" width="632" xmlns="http://www.w3.org/2000/svg"><g transform="translate(304.2812 23.0312)"><path d="m0 0h11.71875v29.296875h-11.71875z" transform="matrix(.9945219 .10452846 -.10452846 .9945219 36.515084 .992372)"/><path d="m0 0h11.71875v29.296875h-11.71875z" transform="matrix(.9781476 .20791169 -.20791169 .9781476 66.899036 5.183767)"/><path d="m0 0h11.71875v29.296875h-11.71875z" transform="matrix(.95105652 .30901699 -.30901699 .95105652 96.678515 12.528194)"/><path d="m0 0h11.71875v29.296875h-11.71875z" transform="matrix(.91354546 .40673664 -.40673664 .91354546 125.527145 22.945237)"/><path d="m0 0h11.71875v29.296875h-11.71875z" transform="matrix(.809017 .58778525 -.58778525 .809017 179.18122 52.507976)"/><path d="m0 0h11.71875v29.296875h-11.71875z" transform="matrix(.74314482 .6691306 -.6691306 .74314482 203.398797 71.329806)"/><path d="m0 0h11.71875v29.296875h-11.71875z" transform="matrix(.66913061 .74314482 -.74314482 .66913061 225.516369 92.580006)"/><path d="m0 0h11.71875v29.296875h-11.71875z" transform="matrix(.58778525 .80901699 -.80901699 .58778525 245.291494 116.025745)"/><path d="m0 0h11.71875v29.296875h-11.71875z" transform="matrix(.40673665 .91354546 -.91354546 .40673665 276.975821 168.454842)"/><path d="m0 0h11.71875v29.296875h-11.71875z" transform="matrix(.309017 .95105651 -.95105651 .309017 288.537943 196.863814)"/><path d="m0 0h11.71875v29.296875h-11.71875z" transform="matrix(.2079117 .9781476 -.9781476 .2079117 297.067222 226.325813)"/><path d="m0 0h11.71875v29.296875h-11.71875z" transform="matrix(.10452847 .99452189 -.99452189 .10452847 302.470113 256.517981)"/><path d="m0 0h23.4375v87.890625h-23.4375z"/><path d="m0 0h23.4375v70.3125h-23.4375z" transform="matrix(.8660254 .5 -.5 .8660254 148.054371 33.390951)"/><path d="m0 0h23.4375v70.3125h-23.4375z" transform="matrix(.5 .8660254 -.8660254 .5 259.577799 136.335658)"/></g><g transform="matrix(0 1 -1 0 608.9687 304.2812)"><path d="m0 0h11.71875v29.296875h-11.71875z" transform="matrix(.9945219 .10452846 -.10452846 .9945219 36.515084 .992372)"/><path d="m0 0h11.71875v29.296875h-11.71875z" transform="matrix(.9781476 .20791169 -.20791169 .9781476 66.899036 5.183767)"/><path d="m0 0h11.71875v29.296875h-11.71875z" transform="matrix(.95105652 .30901699 -.30901699 .95105652 96.678515 12.528194)"/><path d="m0 0h11.71875v29.296875h-11.71875z" transform="matrix(.91354546 .40673664 -.40673664 .91354546 125.527145 22.945237)"/><path d="m0 0h11.71875v29.296875h-11.71875z" transform="matrix(.809017 .58778525 -.58778525 .809017 179.18122 52.507976)"/><path d="m0 0h11.71875v29.296875h-11.71875z" transform="matrix(.74314482 .6691306 -.6691306 .74314482 203.398797 71.329806)"/><path d="m0 0h11.71875v29.296875h-11.71875z" transform="matrix(.66913061 .74314482 -.74314482 .66913061 225.516369 92.580006)"/><path d="m0 0h11.71875v29.296875h-11.71875z" transform="matrix(.58778525 .80901699 -.80901699 .58778525 245.291494 116.025745)"/><path d="m0 0h11.71875v29.296875h-11.71875z" transform="matrix(.40673665 .91354546 -.91354546 .40673665 276.975821 168.454842)"/><path d="m0 0h11.71875v29.296875h-11.71875z" transform="matrix(.309017 .95105651 -.95105651 .309017 288.537943 196.863814)"/><path d="m0 0h11.71875v29.296875h-11.71875z" transform="matrix(.2079117 .9781476 -.9781476 .2079117 297.067222 226.325813)"/><path d="m0 0h11.71875v29.296875h-11.71875z" transform="matrix(.10452847 .99452189 -.99452189 .10452847 302.470113 256.517981)"/><path d="m0 0h23.4375v87.890625h-23.4375z"/><path d="m0 0h23.4375v70.3125h-23.4375z" transform="matrix(.8660254 .5 -.5 .8660254 148.054371 33.390951)"/><path d="m0 0h23.4375v70.3125h-23.4375z" transform="matrix(.5 .8660254 -.8660254 .5 259.577799 136.335658)"/></g><g transform="matrix(-1 0 0 -1 327.7187 608.9688)"><path d="m0 0h11.71875v29.296875h-11.71875z" transform="matrix(.9945219 .10452846 -.10452846 .9945219 36.515084 .992372)"/><path d="m0 0h11.71875v29.296875h-11.71875z" transform="matrix(.9781476 .20791169 -.20791169 .9781476 66.899036 5.183767)"/><path d="m0 0h11.71875v29.296875h-11.71875z" transform="matrix(.95105652 .30901699 -.30901699 .95105652 96.678515 12.528194)"/><path d="m0 0h11.71875v29.296875h-11.71875z" transform="matrix(.91354546 .40673664 -.40673664 .91354546 125.527145 22.945237)"/><path d="m0 0h11.71875v29.296875h-11.71875z" transform="matrix(.809017 .58778525 -.58778525 .809017 179.18122 52.507976)"/><path d="m0 0h11.71875v29.296875h-11.71875z" transform="matrix(.74314482 .6691306 -.6691306 .74314482 203.398797 71.329806)"/><path d="m0 0h11.71875v29.296875h-11.71875z" transform="matrix(.66913061 .74314482 -.74314482 .66913061 225.516369 92.580006)"/><path d="m0 0h11.71875v29.296875h-11.71875z" transform="matrix(.58778525 .80901699 -.80901699 .58778525 245.291494 116.025745)"/><path d="m0 0h11.71875v29.296875h-11.71875z" transform="matrix(.40673665 .91354546 -.91354546 .40673665 276.975821 168.454842)"/><path d="m0 0h11.71875v29.296875h-11.71875z" transform="matrix(.309017 .95105651 -.95105651 .309017 288.537943 196.863814)"/><path d="m0 0h11.71875v29.296875h-11.71875z" transform="matrix(.2079117 .9781476 -.9781476 .2079117 297.067222 226.325813)"/><path d="m0 0h11.71875v29.296875h-11.71875z" transform="matrix(.10452847 .99452189 -.99452189 .10452847 302.470113 256.517981)"/><path d="m0 0h23.4375v87.890625h-23.4375z"/><path d="m0 0h23.4375v70.3125h-23.4375z" transform="matrix(.8660254 .5 -.5 .8660254 148.054371 33.390951)"/><path d="m0 0h23.4375v70.3125h-23.4375z" transform="matrix(.5 .8660254 -.8660254 .5 259.577799 136.335658)"/></g><g transform="matrix(0 -1 1 0 23.0312 327.7187)"><path d="m0 0h11.71875v29.296875h-11.71875z" transform="matrix(.9945219 .10452846 -.10452846 .9945219 36.515084 .992372)"/><path d="m0 0h11.71875v29.296875h-11.71875z" transform="matrix(.9781476 .20791169 -.20791169 .9781476 66.899036 5.183767)"/><path d="m0 0h11.71875v29.296875h-11.71875z" transform="matrix(.95105652 .30901699 -.30901699 .95105652 96.678515 12.528194)"/><path d="m0 0h11.71875v29.296875h-11.71875z" transform="matrix(.91354546 .40673664 -.40673664 .91354546 125.527145 22.945237)"/><path d="m0 0h11.71875v29.296875h-11.71875z" transform="matrix(.809017 .58778525 -.58778525 .809017 179.18122 52.507976)"/><path d="m0 0h11.71875v29.296875h-11.71875z" transform="matrix(.74314482 .6691306 -.6691306 .74314482 203.398797 71.329806)"/><path d="m0 0h11.71875v29.296875h-11.71875z" transform="matrix(.66913061 .74314482 -.74314482 .66913061 225.516369 92.580006)"/><path d="m0 0h11.71875v29.296875h-11.71875z" transform="matrix(.58778525 .80901699 -.80901699 .58778525 245.291494 116.025745)"/><path d="m0 0h11.71875v29.296875h-11.71875z" transform="matrix(.40673665 .91354546 -.91354546 .40673665 276.975821 168.454842)"/><path d="m0 0h11.71875v29.296875h-11.71875z" transform="matrix(.309017 .95105651 -.95105651 .309017 288.537943 196.863814)"/><path d="m0 0h11.71875v29.296875h-11.71875z" transform="matrix(.2079117 .9781476 -.9781476 .2079117 297.067222 226.325813)"/><path d="m0 0h11.71875v29.296875h-11.71875z" transform="matrix(.10452847 .99452189 -.99452189 .10452847 302.470113 256.517981)"/><path d="m0 0h23.4375v87.890625h-23.4375z"/><path d="m0 0h23.4375v70.3125h-23.4375z" transform="matrix(.8660254 .5 -.5 .8660254 148.054371 33.390951)"/><path d="m0 0h23.4375v70.3125h-23.4375z" transform="matrix(.5 .8660254 -.8660254 .5 259.577799 136.335658)"/></g></svg>