<?xml version="1.0" encoding="UTF-8" standalone="no"?>
<!DOCTYPE svg PUBLIC "-//W3C//DTD SVG 1.1//EN" "http://www.w3.org/Graphics/SVG/1.1/DTD/svg11.dtd">
<svg width="100%" height="100%" viewBox="0 0 586 586" version="1.1" xmlns="http://www.w3.org/2000/svg" xmlns:xlink="http://www.w3.org/1999/xlink" xml:space="preserve" xmlns:serif="http://www.serif.com/" style="fill-rule:evenodd;clip-rule:evenodd;stroke-linejoin:round;stroke-miterlimit:2;">
    <g transform="matrix(1,0,0,1,-23.0312,-23.0312)">
        <g transform="matrix(1,0,0,1,304.281,23.0312)">
            <g transform="matrix(0.994522,0.104528,-0.104528,0.994522,36.5151,0.992372)">
                <rect x="0" y="0" width="11.719" height="29.297" style="fill-rule:nonzero;"/>
            </g>
        </g>
        <g transform="matrix(1,0,0,1,304.281,23.0312)">
            <g transform="matrix(0.978148,0.207912,-0.207912,0.978148,66.899,5.18377)">
                <rect x="0" y="0" width="11.719" height="29.297" style="fill-rule:nonzero;"/>
            </g>
        </g>
        <g transform="matrix(1,0,0,1,304.281,23.0312)">
            <g transform="matrix(0.951057,0.309017,-0.309017,0.951057,96.6785,12.5282)">
                <rect x="0" y="0" width="11.719" height="29.297" style="fill-rule:nonzero;"/>
            </g>
        </g>
        <g transform="matrix(1,0,0,1,304.281,23.0312)">
            <g transform="matrix(0.913545,0.406737,-0.406737,0.913545,125.527,22.9452)">
                <rect x="0" y="0" width="11.719" height="29.297" style="fill-rule:nonzero;"/>
            </g>
        </g>
        <g transform="matrix(1,0,0,1,304.281,23.0312)">
            <g transform="matrix(0.809017,0.587785,-0.587785,0.809017,179.181,52.508)">
                <rect x="0" y="0" width="11.719" height="29.297" style="fill-rule:nonzero;"/>
            </g>
        </g>
        <g transform="matrix(1,0,0,1,304.281,23.0312)">
            <g transform="matrix(0.743145,0.669131,-0.669131,0.743145,203.399,71.3298)">
                <rect x="0" y="0" width="11.719" height="29.297" style="fill-rule:nonzero;"/>
            </g>
        </g>
        <g transform="matrix(1,0,0,1,304.281,23.0312)">
            <g transform="matrix(0.669131,0.743145,-0.743145,0.669131,225.516,92.58)">
                <rect x="0" y="0" width="11.719" height="29.297" style="fill-rule:nonzero;"/>
            </g>
        </g>
        <g transform="matrix(1,0,0,1,304.281,23.0312)">
            <g transform="matrix(0.587785,0.809017,-0.809017,0.587785,245.291,116.026)">
                <rect x="0" y="0" width="11.719" height="29.297" style="fill-rule:nonzero;"/>
            </g>
        </g>
        <g transform="matrix(1,0,0,1,304.281,23.0312)">
            <g transform="matrix(0.406737,0.913545,-0.913545,0.406737,276.976,168.455)">
                <rect x="0" y="0" width="11.719" height="29.297" style="fill-rule:nonzero;"/>
            </g>
        </g>
        <g transform="matrix(1,0,0,1,304.281,23.0312)">
            <g transform="matrix(0.309017,0.951057,-0.951057,0.309017,288.538,196.864)">
                <rect x="0" y="0" width="11.719" height="29.297" style="fill-rule:nonzero;"/>
            </g>
        </g>
        <g transform="matrix(1,0,0,1,304.281,23.0312)">
            <g transform="matrix(0.207912,0.978148,-0.978148,0.207912,297.067,226.326)">
                <rect x="0" y="0" width="11.719" height="29.297" style="fill-rule:nonzero;"/>
            </g>
        </g>
        <g transform="matrix(1,0,0,1,304.281,23.0312)">
            <g transform="matrix(0.104528,0.994522,-0.994522,0.104528,302.47,256.518)">
                <rect x="0" y="0" width="11.719" height="29.297" style="fill-rule:nonzero;"/>
            </g>
        </g>
        <g transform="matrix(1,0,0,1,304.281,23.0312)">
            <rect x="0" y="0" width="23.438" height="87.891" style="fill-rule:nonzero;"/>
        </g>
        <g transform="matrix(1,0,0,1,304.281,23.0312)">
            <g transform="matrix(0.866025,0.5,-0.5,0.866025,148.054,33.391)">
                <rect x="0" y="0" width="23.438" height="70.313" style="fill-rule:nonzero;"/>
            </g>
        </g>
        <g transform="matrix(1,0,0,1,304.281,23.0312)">
            <g transform="matrix(0.5,0.866025,-0.866025,0.5,259.578,136.336)">
                <rect x="0" y="0" width="23.438" height="70.313" style="fill-rule:nonzero;"/>
            </g>
        </g>
        <g transform="matrix(0,1,-1,0,608.969,304.281)">
            <g transform="matrix(0.994522,0.104528,-0.104528,0.994522,36.5151,0.992372)">
                <rect x="0" y="0" width="11.719" height="29.297" style="fill-rule:nonzero;"/>
            </g>
        </g>
        <g transform="matrix(0,1,-1,0,608.969,304.281)">
            <g transform="matrix(0.978148,0.207912,-0.207912,0.978148,66.899,5.18377)">
                <rect x="0" y="0" width="11.719" height="29.297" style="fill-rule:nonzero;"/>
            </g>
        </g>
        <g transform="matrix(0,1,-1,0,608.969,304.281)">
            <g transform="matrix(0.951057,0.309017,-0.309017,0.951057,96.6785,12.5282)">
                <rect x="0" y="0" width="11.719" height="29.297" style="fill-rule:nonzero;"/>
            </g>
        </g>
        <g transform="matrix(0,1,-1,0,608.969,304.281)">
            <g transform="matrix(0.913545,0.406737,-0.406737,0.913545,125.527,22.9452)">
                <rect x="0" y="0" width="11.719" height="29.297" style="fill-rule:nonzero;"/>
            </g>
        </g>
        <g transform="matrix(0,1,-1,0,608.969,304.281)">
            <g transform="matrix(0.809017,0.587785,-0.587785,0.809017,179.181,52.508)">
                <rect x="0" y="0" width="11.719" height="29.297" style="fill-rule:nonzero;"/>
            </g>
        </g>
        <g transform="matrix(0,1,-1,0,608.969,304.281)">
            <g transform="matrix(0.743145,0.669131,-0.669131,0.743145,203.399,71.3298)">
                <rect x="0" y="0" width="11.719" height="29.297" style="fill-rule:nonzero;"/>
            </g>
        </g>
        <g transform="matrix(0,1,-1,0,608.969,304.281)">
            <g transform="matrix(0.669131,0.743145,-0.743145,0.669131,225.516,92.58)">
                <rect x="0" y="0" width="11.719" height="29.297" style="fill-rule:nonzero;"/>
            </g>
        </g>
        <g transform="matrix(0,1,-1,0,608.969,304.281)">
            <g transform="matrix(0.587785,0.809017,-0.809017,0.587785,245.291,116.026)">
                <rect x="0" y="0" width="11.719" height="29.297" style="fill-rule:nonzero;"/>
            </g>
        </g>
        <g transform="matrix(0,1,-1,0,608.969,304.281)">
            <g transform="matrix(0.406737,0.913545,-0.913545,0.406737,276.976,168.455)">
                <rect x="0" y="0" width="11.719" height="29.297" style="fill-rule:nonzero;"/>
            </g>
        </g>
        <g transform="matrix(0,1,-1,0,608.969,304.281)">
            <g transform="matrix(0.309017,0.951057,-0.951057,0.309017,288.538,196.864)">
                <rect x="0" y="0" width="11.719" height="29.297" style="fill-rule:nonzero;"/>
            </g>
        </g>
        <g transform="matrix(0,1,-1,0,608.969,304.281)">
            <g transform="matrix(0.207912,0.978148,-0.978148,0.207912,297.067,226.326)">
                <rect x="0" y="0" width="11.719" height="29.297" style="fill-rule:nonzero;"/>
            </g>
        </g>
        <g transform="matrix(0,1,-1,0,608.969,304.281)">
            <g transform="matrix(0.104528,0.994522,-0.994522,0.104528,302.47,256.518)">
                <rect x="0" y="0" width="11.719" height="29.297" style="fill-rule:nonzero;"/>
            </g>
        </g>
        <g transform="matrix(0,1,-1,0,608.969,304.281)">
            <rect x="0" y="0" width="23.438" height="87.891" style="fill-rule:nonzero;"/>
        </g>
        <g transform="matrix(0,1,-1,0,608.969,304.281)">
            <g transform="matrix(0.866025,0.5,-0.5,0.866025,148.054,33.391)">
                <rect x="0" y="0" width="23.438" height="70.313" style="fill-rule:nonzero;"/>
            </g>
        </g>
        <g transform="matrix(0,1,-1,0,608.969,304.281)">
            <g transform="matrix(0.5,0.866025,-0.866025,0.5,259.578,136.336)">
                <rect x="0" y="0" width="23.438" height="70.313" style="fill-rule:nonzero;"/>
            </g>
        </g>
        <g transform="matrix(-1,0,0,-1,327.719,608.969)">
            <g transform="matrix(0.994522,0.104528,-0.104528,0.994522,36.5151,0.992372)">
                <rect x="0" y="0" width="11.719" height="29.297" style="fill-rule:nonzero;"/>
            </g>
        </g>
        <g transform="matrix(-1,0,0,-1,327.719,608.969)">
            <g transform="matrix(0.978148,0.207912,-0.207912,0.978148,66.899,5.18377)">
                <rect x="0" y="0" width="11.719" height="29.297" style="fill-rule:nonzero;"/>
            </g>
        </g>
        <g transform="matrix(-1,0,0,-1,327.719,608.969)">
            <g transform="matrix(0.951057,0.309017,-0.309017,0.951057,96.6785,12.5282)">
                <rect x="0" y="0" width="11.719" height="29.297" style="fill-rule:nonzero;"/>
            </g>
        </g>
        <g transform="matrix(-1,0,0,-1,327.719,608.969)">
            <g transform="matrix(0.913545,0.406737,-0.406737,0.913545,125.527,22.9452)">
                <rect x="0" y="0" width="11.719" height="29.297" style="fill-rule:nonzero;"/>
            </g>
        </g>
        <g transform="matrix(-1,0,0,-1,327.719,608.969)">
            <g transform="matrix(0.809017,0.587785,-0.587785,0.809017,179.181,52.508)">
                <rect x="0" y="0" width="11.719" height="29.297" style="fill-rule:nonzero;"/>
            </g>
        </g>
        <g transform="matrix(-1,0,0,-1,327.719,608.969)">
            <g transform="matrix(0.743145,0.669131,-0.669131,0.743145,203.399,71.3298)">
                <rect x="0" y="0" width="11.719" height="29.297" style="fill-rule:nonzero;"/>
            </g>
        </g>
        <g transform="matrix(-1,0,0,-1,327.719,608.969)">
            <g transform="matrix(0.669131,0.743145,-0.743145,0.669131,225.516,92.58)">
                <rect x="0" y="0" width="11.719" height="29.297" style="fill-rule:nonzero;"/>
            </g>
        </g>
        <g transform="matrix(-1,0,0,-1,327.719,608.969)">
            <g transform="matrix(0.587785,0.809017,-0.809017,0.587785,245.291,116.026)">
                <rect x="0" y="0" width="11.719" height="29.297" style="fill-rule:nonzero;"/>
            </g>
        </g>
        <g transform="matrix(-1,0,0,-1,327.719,608.969)">
            <g transform="matrix(0.406737,0.913545,-0.913545,0.406737,276.976,168.455)">
                <rect x="0" y="0" width="11.719" height="29.297" style="fill-rule:nonzero;"/>
            </g>
        </g>
        <g transform="matrix(-1,0,0,-1,327.719,608.969)">
            <g transform="matrix(0.309017,0.951057,-0.951057,0.309017,288.538,196.864)">
                <rect x="0" y="0" width="11.719" height="29.297" style="fill-rule:nonzero;"/>
            </g>
        </g>
        <g transform="matrix(-1,0,0,-1,327.719,608.969)">
            <g transform="matrix(0.207912,0.978148,-0.978148,0.207912,297.067,226.326)">
                <rect x="0" y="0" width="11.719" height="29.297" style="fill-rule:nonzero;"/>
            </g>
        </g>
        <g transform="matrix(-1,0,0,-1,327.719,608.969)">
            <g transform="matrix(0.104528,0.994522,-0.994522,0.104528,302.47,256.518)">
                <rect x="0" y="0" width="11.719" height="29.297" style="fill-rule:nonzero;"/>
            </g>
        </g>
        <g transform="matrix(-1,0,0,-1,327.719,608.969)">
            <rect x="0" y="0" width="23.438" height="87.891" style="fill-rule:nonzero;"/>
        </g>
        <g transform="matrix(-1,0,0,-1,327.719,608.969)">
            <g transform="matrix(0.866025,0.5,-0.5,0.866025,148.054,33.391)">
                <rect x="0" y="0" width="23.438" height="70.313" style="fill-rule:nonzero;"/>
            </g>
        </g>
        <g transform="matrix(-1,0,0,-1,327.719,608.969)">
            <g transform="matrix(0.5,0.866025,-0.866025,0.5,259.578,136.336)">
                <rect x="0" y="0" width="23.438" height="70.313" style="fill-rule:nonzero;"/>
            </g>
        </g>
        <g transform="matrix(0,-1,1,0,23.0312,327.719)">
            <g transform="matrix(0.994522,0.104528,-0.104528,0.994522,36.5151,0.992372)">
                <rect x="0" y="0" width="11.719" height="29.297" style="fill-rule:nonzero;"/>
            </g>
        </g>
        <g transform="matrix(0,-1,1,0,23.0312,327.719)">
            <g transform="matrix(0.978148,0.207912,-0.207912,0.978148,66.899,5.18377)">
                <rect x="0" y="0" width="11.719" height="29.297" style="fill-rule:nonzero;"/>
            </g>
        </g>
        <g transform="matrix(0,-1,1,0,23.0312,327.719)">
            <g transform="matrix(0.951057,0.309017,-0.309017,0.951057,96.6785,12.5282)">
                <rect x="0" y="0" width="11.719" height="29.297" style="fill-rule:nonzero;"/>
            </g>
        </g>
        <g transform="matrix(0,-1,1,0,23.0312,327.719)">
            <g transform="matrix(0.913545,0.406737,-0.406737,0.913545,125.527,22.9452)">
                <rect x="0" y="0" width="11.719" height="29.297" style="fill-rule:nonzero;"/>
            </g>
        </g>
        <g transform="matrix(0,-1,1,0,23.0312,327.719)">
            <g transform="matrix(0.809017,0.587785,-0.587785,0.809017,179.181,52.508)">
                <rect x="0" y="0" width="11.719" height="29.297" style="fill-rule:nonzero;"/>
            </g>
        </g>
        <g transform="matrix(0,-1,1,0,23.0312,327.719)">
            <g transform="matrix(0.743145,0.669131,-0.669131,0.743145,203.399,71.3298)">
                <rect x="0" y="0" width="11.719" height="29.297" style="fill-rule:nonzero;"/>
            </g>
        </g>
        <g transform="matrix(0,-1,1,0,23.0312,327.719)">
            <g transform="matrix(0.669131,0.743145,-0.743145,0.669131,225.516,92.58)">
                <rect x="0" y="0" width="11.719" height="29.297" style="fill-rule:nonzero;"/>
            </g>
        </g>
        <g transform="matrix(0,-1,1,0,23.0312,327.719)">
            <g transform="matrix(0.587785,0.809017,-0.809017,0.587785,245.291,116.026)">
                <rect x="0" y="0" width="11.719" height="29.297" style="fill-rule:nonzero;"/>
            </g>
        </g>
        <g transform="matrix(0,-1,1,0,23.0312,327.719)">
            <g transform="matrix(0.406737,0.913545,-0.913545,0.406737,276.976,168.455)">
                <rect x="0" y="0" width="11.719" height="29.297" style="fill-rule:nonzero;"/>
            </g>
        </g>
        <g transform="matrix(0,-1,1,0,23.0312,327.719)">
            <g transform="matrix(0.309017,0.951057,-0.951057,0.309017,288.538,196.864)">
                <rect x="0" y="0" width="11.719" height="29.297" style="fill-rule:nonzero;"/>
            </g>
        </g>
        <g transform="matrix(0,-1,1,0,23.0312,327.719)">
            <g transform="matrix(0.207912,0.978148,-0.978148,0.207912,297.067,226.326)">
                <rect x="0" y="0" width="11.719" height="29.297" style="fill-rule:nonzero;"/>
            </g>
        </g>
        <g transform="matrix(0,-1,1,0,23.0312,327.719)">
            <g transform="matrix(0.104528,0.994522,-0.994522,0.104528,302.47,256.518)">
                <rect x="0" y="0" width="11.719" height="29.297" style="fill-rule:nonzero;"/>
            </g>
        </g>
        <g transform="matrix(0,-1,1,0,23.0312,327.719)">
            <rect x="0" y="0" width="23.438" height="87.891" style="fill-rule:nonzero;"/>
        </g>
        <g transform="matrix(0,-1,1,0,23.0312,327.719)">
            <g transform="matrix(0.866025,0.5,-0.5,0.866025,148.054,33.391)">
                <rect x="0" y="0" width="23.438" height="70.313" style="fill-rule:nonzero;"/>
            </g>
        </g>
        <g transform="matrix(0,-1,1,0,23.0312,327.719)">
            <g transform="matrix(0.5,0.866025,-0.866025,0.5,259.578,136.336)">
                <rect x="0" y="0" width="23.438" height="70.313" style="fill-rule:nonzero;"/>
            </g>
        </g>
    </g>
</svg>
