<svg height="586" viewBox="0 0 586 586" width="586" xmlns="http://www.w3.org/2000/svg"><g fill="#fff" transform="translate(.0313 .0312)"><path d="m316.20177 1.52466779h11.71875v29.29687501h-11.71875z" transform="matrix(.9945219 .10452846 -.10452846 .9945219 3.454834 -33.575954)"/><path d="m344.975422 6.08196659h11.71875v29.29687501h-11.71875z" transform="matrix(.9781476 .20791169 -.20791169 .9781476 11.976675 -72.489647)"/><path d="m373.115081 13.6219657h11.71875v29.296875h-11.71875z" transform="matrix(.95105652 .30901699 -.30901699 .95105652 27.284366 -115.725909)"/><path d="m400.312445 24.0620552h11.71875v29.296875h-11.71875z" transform="matrix(.91354546 .40673664 -.40673664 .91354546 50.860376 -161.858256)"/><path d="m450.70195 53.1544498h11.71875v29.296875h-11.71875z" transform="matrix(.80901699 .58778525 -.58778525 .80901699 127.048994 -255.410797)"/><path d="m473.342014 71.4880124h11.71875v29.2968746h-11.71875z" transform="matrix(.74314483 .66913061 -.66913061 .74314483 180.721861 -298.523743)"/><path d="m493.941675 92.087673h11.71875v29.296875h-11.71875z" transform="matrix(.66913061 .74314483 -.74314483 .66913061 244.689267 -336.108893)"/><path d="m512.275238 114.727737h11.71875v29.296875h-11.71875z" transform="matrix(.58778525 .80901699 -.80901699 .58778525 318.250268 -365.848919)"/><path d="m541.367632 165.117243h11.71875v29.296875h-11.71875z" transform="matrix(.40673664 .91354546 -.91354546 .40673664 488.873866 -393.268338)"/><path d="m551.807722 192.314606h11.71875v29.296875h-11.71875z" transform="matrix(.30901699 .95105652 -.95105652 .30901699 582.171999 -387.365014)"/><path d="m559.347721 220.454266h11.71875v29.296875h-11.71875z" transform="matrix(.20791169 .9781476 -.9781476 .20791169 677.659078 -366.633869)"/><path d="m563.90502 249.227918h11.71875v29.296875h-11.71875z" transform="matrix(.10452846 .9945219 -.9945219 .10452846 772.63866 -330.349366)"/><path d="m281.25 0h23.4375v87.890625h-23.4375z"/><path d="m410.15625 34.5403256h23.4375v70.3125004h-23.4375z" transform="matrix(.8660254 .5 -.5 .8660254 91.368833 -201.599926)"/><path d="m504.522174 128.90625h23.4375v70.3125h-23.4375z" transform="matrix(.5 .8660254 -.8660254 .5 400.202743 -365.046484)"/><path d="m563.90502 307.412707h11.71875v29.296875h-11.71875z" transform="matrix(-.10452846 .9945219 -.9945219 -.10452846 949.617813 -210.917519)"/><path d="m559.347721 336.186359h11.71875v29.296875h-11.71875z" transform="matrix(-.20791169 .9781476 -.9781476 -.20791169 1025.888482 -129.078512)"/><path d="m551.807722 364.326019h11.71875v29.296875h-11.71875z" transform="matrix(-.30901699 .95105652 -.95105652 -.30901699 1090.421879 -34.288868)"/><path d="m541.367632 391.523382h11.71875v29.296875h-11.71875z" transform="matrix(-.40673664 .91354546 -.91354546 -.40673664 1140.860676 71.460014)"/><path d="m512.275238 441.912888h11.71875v29.296875h-11.71875z" transform="matrix(-.58778525 .80901699 -.80901699 -.58778525 1192.052327 305.741602)"/><path d="m493.941675 464.552952h11.71875v29.296875h-11.71875z" transform="matrix(-.66913061 .74314483 -.74314483 -.66913061 1190.349354 428.425122)"/><path d="m473.342014 485.152613h11.71875v29.296875h-11.71875z" transform="matrix(-.74314483 .66913061 -.66913061 -.74314483 1169.749654 550.577378)"/><path d="m450.70195 503.486175h11.71875v29.296875h-11.71875z" transform="matrix(-.80901699 .58778525 -.58778525 -.80901699 1130.479027 668.954298)"/><path d="m400.312445 532.57857h11.71875v29.296875h-11.71875z" transform="matrix(-.91354546 .40673664 -.40673664 -.91354546 999.805476 881.938786)"/><path d="m373.115081 543.018659h11.71875v29.296875h-11.71875z" transform="matrix(-.95105652 .30901699 -.30901699 -.95105652 911.729279 970.930468)"/><path d="m344.975422 550.558658h11.71875v29.296875h-11.71875z" transform="matrix(-.9781476 .20791169 -.20791169 -.9781476 811.516182 1045.120412)"/><path d="m316.20177 555.115957h11.71875v29.296875h-11.71875z" transform="matrix(-.9945219 .10452846 -.10452846 -.9945219 701.914513 1102.743019)"/><path d="m530.273438 249.023437h23.4375v87.890625h-23.4375z" transform="matrix(0 1 -1 0 834.9609 -249.0235)"/><path d="m504.522174 386.71875h23.4375v70.3125h-23.4375z" transform="matrix(-.5 .8660254 -.8660254 -.5 1139.715817 185.734766)"/><path d="m410.15625 481.084674h23.4375v70.3125h-23.4375z" transform="matrix(-.8660254 .5 -.5 -.8660254 1045.349917 752.381134)"/><path d="m258.01698 555.115957h11.71875v29.296875h-11.71875z" transform="matrix(-.9945219 -.10452846 .10452846 -.9945219 466.75066 1163.990166)"/><path d="m229.243328 550.558658h11.71875v29.296875h-11.71875z" transform="matrix(-.9781476 -.20791169 .20791169 -.9781476 347.554678 1166.943669)"/><path d="m201.103669 543.018659h11.71875v29.296875h-11.71875z" transform="matrix(-.95105652 -.30901699 .30901699 -.95105652 231.467899 1151.995114)"/><path d="m173.906305 532.57857h11.71875v29.296875h-11.71875z" transform="matrix(-.91354546 -.40673664 .40673664 -.91354546 121.412566 1120.261038)"/><path d="m123.5168 503.486175h11.71875v29.296875h-11.71875z" transform="matrix(-.80901699 -.58778525 .58778525 -.80901699 -70.508132 1013.359719)"/><path d="m100.876736 485.152613h11.71875v29.296875h-11.71875z" transform="matrix(-.74314483 -.66913061 .66913061 -.74314483 -148.375733 942.646093)"/><path d="m80.2770749 464.552952h11.71875v29.296875h-11.71875z" transform="matrix(-.66913061 -.74314483 .74314483 -.66913061 -212.343139 863.861543)"/><path d="m61.9435123 441.912888h11.71875v29.296875h-11.71875z" transform="matrix(-.58778525 -.80901699 .80901699 -.58778525 -261.709406 779.774997)"/><path d="m32.8511177 391.523382h11.71875v29.296875h-11.71875z" transform="matrix(-.40673664 -.91354546 .91354546 -.40673664 -316.600924 606.740556)"/><path d="m22.4110282 364.326019h11.71875v29.296875h-11.71875z" transform="matrix(-.30901699 -.95105652 .95105652 -.30901699 -323.419734 522.970809)"/><path d="m14.8710291 336.186359h11.71875v29.296875h-11.71875z" transform="matrix(-.20791169 -.9781476 .9781476 -.20791169 -318.127725 444.054847)"/><path d="m10.3137303 307.412707h11.71875v29.296875h-11.71875z" transform="matrix(-.10452846 -.9945219 .9945219 -.10452846 -302.433166 371.810154)"/><path d="m281.25 498.046875h23.4375v87.890625h-23.4375z" transform="matrix(-1 0 0 -1 585.9376 1083.9844)"/><path d="m152.34375 481.084674h23.4375v70.3125h-23.4375z" transform="matrix(-.8660254 -.5 .5 -.8660254 48.024343 1045.349884)"/><path d="m57.9778256 386.71875h23.4375v70.3125h-23.4375z" transform="matrix(-.5 -.8660254 .8660254 -.5 -260.809567 693.171526)"/><path d="m10.3137303 249.227918h11.71875v29.296875h-11.71875z" transform="matrix(.10452846 -.9945219 .9945219 .10452846 -247.948307 252.378307)"/><path d="m14.8710291 220.454266h11.71875v29.296875h-11.71875z" transform="matrix(.20791169 -.9781476 .9781476 .20791169 -213.544834 206.499491)"/><path d="m22.4110282 192.314606h11.71875v29.296875h-11.71875z" transform="matrix(.30901699 -.95105652 .95105652 .30901699 -177.299144 169.894664)"/><path d="m32.8511177 165.117243h11.71875v29.296875h-11.71875z" transform="matrix(.40673664 -.91354546 .91354546 .40673664 -141.258617 142.012204)"/><path d="m61.9435123 114.727737h11.71875v29.296875h-11.71875z" transform="matrix(.58778525 -.80901699 .80901699 .58778525 -76.718189 108.184476)"/><path d="m80.2770749 92.087673h11.71875v29.296875h-11.71875z" transform="matrix(.66913061 -.74314483 .74314483 .66913061 -50.820482 99.327529)"/><path d="m100.876736 71.4880124h11.71875v29.2968746h-11.71875z" transform="matrix(.74314483 -.66913061 .66913061 .74314483 -30.220782 93.544971)"/><path d="m123.5168 53.1544498h11.71875v29.296875h-11.71875z" transform="matrix(.80901699 -.58778525 .58778525 .80901699 -15.144889 88.994624)"/><path d="m173.906305 24.0620552h11.71875v29.296875h-11.71875z" transform="matrix(.91354546 -.40673664 .40673664 .91354546 -.203417 76.463996)"/><path d="m201.103669 13.6219657h11.71875v29.296875h-11.71875z" transform="matrix(.95105652 -.30901699 .30901699 .95105652 1.393456 65.338736)"/><path d="m229.243328 6.08196659h11.71875v29.29687501h-11.71875z" transform="matrix(.9781476 -.20791169 .20791169 .9781476 .827466 49.333609)"/><path d="m258.01698 1.52466779h11.71875v29.29687501h-11.71875z" transform="matrix(.9945219 -.10452846 .10452846 .9945219 -.245007 27.671193)"/><path d="m32.2265625 249.023438h23.4375v87.890624h-23.4375z" transform="matrix(0 -1 1 0 -249.0235 336.9141)"/><path d="m57.9778256 128.90625h23.4375v70.3125h-23.4375z" transform="matrix(.5 -.8660254 .8660254 .5 -107.233993 142.390276)"/><path d="m152.34375 34.5403256h23.4375v70.3125004h-23.4375z" transform="matrix(.8660254 -.5 .5 .8660254 -12.868093 91.368824)"/></g></svg>