<svg height="632" viewBox="0 0 632 632" width="632" xmlns="http://www.w3.org/2000/svg"><g transform="translate(.8841 .8841)"><g transform="translate(303.3971 22.1471)"><path d="m0 0h11.71875v29.296875h-11.71875z" transform="matrix(.9945219 .10452846 -.10452846 .9945219 36.515084 .992372)"/><path d="m0 0h11.71875v29.296875h-11.71875z" transform="matrix(.9781476 .20791169 -.20791169 .9781476 66.899036 5.183767)"/><path d="m0 0h11.71875v29.296875h-11.71875z" transform="matrix(.95105652 .30901699 -.30901699 .95105652 96.678515 12.528194)"/><path d="m0 0h11.71875v29.296875h-11.71875z" transform="matrix(.91354546 .40673664 -.40673664 .91354546 125.527145 22.945237)"/><path d="m0 0h11.71875v29.296875h-11.71875z" transform="matrix(.80901699626 .58778525138 -.58778525138 .80901699626 179.18122032855 52.50797575129)"/><path d="m0 0h11.71875v29.296875h-11.71875z" transform="matrix(.74314482155 .6691306045 -.6691306045 .74314482155 203.39879701293 71.32980628272)"/><path d="m0 0h11.71875v29.296875h-11.71875z" transform="matrix(.66913060816 .74314482237 -.74314482237 .66913060816 225.5163687257 92.58000611317)"/><path d="m0 0h11.71875v29.296875h-11.71875z" transform="matrix(.58778525241 .80901699135 -.80901699135 .58778525241 245.2914935609 116.02574494406)"/><path d="m0 0h11.71875v29.296875h-11.71875z" transform="matrix(.40673664862 .91354545626 -.91354545626 .40673664862 276.97582124871 168.45484232855)"/><path d="m0 0h11.71875v29.296875h-11.71875z" transform="matrix(.3090169955 .95105651155 -.95105651155 .3090169955 288.53794271728 196.86381401293)"/><path d="m0 0h11.71875v29.296875h-11.71875z" transform="matrix(.20791169763 .97814759816 -.97814759816 .20791169763 297.06722188683 226.3258127257)"/><path d="m0 0h11.71875v29.296875h-11.71875z" transform="matrix(.10452846865 .99452189241 -.99452189241 .10452846865 302.47011305594 256.5179805609)"/><path d="m0 0h23.4375v87.890625h-23.4375z"/><path d="m0 0h23.4375v70.3125h-23.4375z" transform="matrix(.8660254 .5 -.5 .8660254 148.054371 33.390951)"/><path d="m0 0h23.4375v70.3125h-23.4375z" transform="matrix(.5 .8660254 -.8660254 .5 259.577799 136.335658)"/></g><g transform="matrix(0 1 -1 0 608.0846 303.3971)"><path d="m0 0h11.71875v29.296875h-11.71875z" transform="matrix(.9945219 .10452846 -.10452846 .9945219 36.515084 .992372)"/><path d="m0 0h11.71875v29.296875h-11.71875z" transform="matrix(.9781476 .20791169 -.20791169 .9781476 66.899036 5.183767)"/><path d="m0 0h11.71875v29.296875h-11.71875z" transform="matrix(.95105652 .30901699 -.30901699 .95105652 96.678515 12.528194)"/><path d="m0 0h11.71875v29.296875h-11.71875z" transform="matrix(.91354546 .40673664 -.40673664 .91354546 125.527145 22.945237)"/><path d="m0 0h11.71875v29.296875h-11.71875z" transform="matrix(.80901699626 .58778525138 -.58778525138 .80901699626 179.18122032855 52.50797575129)"/><path d="m0 0h11.71875v29.296875h-11.71875z" transform="matrix(.74314482155 .6691306045 -.6691306045 .74314482155 203.39879701293 71.32980628272)"/><path d="m0 0h11.71875v29.296875h-11.71875z" transform="matrix(.66913060816 .74314482237 -.74314482237 .66913060816 225.5163687257 92.58000611317)"/><path d="m0 0h11.71875v29.296875h-11.71875z" transform="matrix(.58778525241 .80901699135 -.80901699135 .58778525241 245.2914935609 116.02574494406)"/><path d="m0 0h11.71875v29.296875h-11.71875z" transform="matrix(.40673664862 .91354545626 -.91354545626 .40673664862 276.97582124871 168.45484232855)"/><path d="m0 0h11.71875v29.296875h-11.71875z" transform="matrix(.3090169955 .95105651155 -.95105651155 .3090169955 288.53794271728 196.86381401293)"/><path d="m0 0h11.71875v29.296875h-11.71875z" transform="matrix(.20791169763 .97814759816 -.97814759816 .20791169763 297.06722188683 226.3258127257)"/><path d="m0 0h11.71875v29.296875h-11.71875z" transform="matrix(.10452846865 .99452189241 -.99452189241 .10452846865 302.47011305594 256.5179805609)"/><path d="m0-0h23.4375v87.890625h-23.4375z"/><path d="m0 0h23.4375v70.3125h-23.4375z" transform="matrix(.8660254 .5 -.5 .8660254 148.054371 33.390951)"/><path d="m0 0h23.4375v70.3125h-23.4375z" transform="matrix(.5 .8660254 -.8660254 .5 259.577799 136.335658)"/></g><g transform="matrix(-1 0 -0 -1 326.8346 608.0847)"><path d="m0 0h11.71875v29.296875h-11.71875z" transform="matrix(.9945219 .10452846 -.10452846 .9945219 36.515084 .992372)"/><path d="m0 0h11.71875v29.296875h-11.71875z" transform="matrix(.9781476 .20791169 -.20791169 .9781476 66.899036 5.183767)"/><path d="m0 0h11.71875v29.296875h-11.71875z" transform="matrix(.95105652 .30901699 -.30901699 .95105652 96.678515 12.528194)"/><path d="m0 0h11.71875v29.296875h-11.71875z" transform="matrix(.91354546 .40673664 -.40673664 .91354546 125.527145 22.945237)"/><path d="m0 0h11.71875v29.296875h-11.71875z" transform="matrix(.80901699626 .58778525138 -.58778525138 .80901699626 179.18122032855 52.50797575129)"/><path d="m0 0h11.71875v29.296875h-11.71875z" transform="matrix(.74314482155 .6691306045 -.6691306045 .74314482155 203.39879701293 71.32980628272)"/><path d="m0 0h11.71875v29.296875h-11.71875z" transform="matrix(.66913060816 .74314482237 -.74314482237 .66913060816 225.5163687257 92.58000611317)"/><path d="m0 0h11.71875v29.296875h-11.71875z" transform="matrix(.58778525241 .80901699135 -.80901699135 .58778525241 245.2914935609 116.02574494406)"/><path d="m0 0h11.71875v29.296875h-11.71875z" transform="matrix(.40673664862 .91354545626 -.91354545626 .40673664862 276.97582124871 168.45484232855)"/><path d="m0 0h11.71875v29.296875h-11.71875z" transform="matrix(.3090169955 .95105651155 -.95105651155 .3090169955 288.53794271728 196.86381401293)"/><path d="m0 0h11.71875v29.296875h-11.71875z" transform="matrix(.20791169763 .97814759816 -.97814759816 .20791169763 297.06722188683 226.3258127257)"/><path d="m0 0h11.71875v29.296875h-11.71875z" transform="matrix(.10452846865 .99452189241 -.99452189241 .10452846865 302.47011305594 256.5179805609)"/><path d="m0 0h23.4375v87.890625h-23.4375z"/><path d="m0 0h23.4375v70.3125h-23.4375z" transform="matrix(.8660254 .5 -.5 .8660254 148.054371 33.390951)"/><path d="m0 0h23.4375v70.3125h-23.4375z" transform="matrix(.5 .8660254 -.8660254 .5 259.577799 136.335658)"/></g><g transform="matrix(0 -1 1 0 22.1471 326.8346)"><path d="m0 0h11.71875v29.296875h-11.71875z" transform="matrix(.9945219 .10452846 -.10452846 .9945219 36.515084 .992372)"/><path d="m0 0h11.71875v29.296875h-11.71875z" transform="matrix(.9781476 .20791169 -.20791169 .9781476 66.899036 5.183767)"/><path d="m0 0h11.71875v29.296875h-11.71875z" transform="matrix(.95105652 .30901699 -.30901699 .95105652 96.678515 12.528194)"/><path d="m0 0h11.71875v29.296875h-11.71875z" transform="matrix(.91354546 .40673664 -.40673664 .91354546 125.527145 22.945237)"/><path d="m0 0h11.71875v29.296875h-11.71875z" transform="matrix(.80901699626 .58778525138 -.58778525138 .80901699626 179.18122032855 52.50797575129)"/><path d="m0 0h11.71875v29.296875h-11.71875z" transform="matrix(.74314482155 .6691306045 -.6691306045 .74314482155 203.39879701293 71.32980628272)"/><path d="m0 0h11.71875v29.296875h-11.71875z" transform="matrix(.66913060816 .74314482237 -.74314482237 .66913060816 225.5163687257 92.58000611317)"/><path d="m0 0h11.71875v29.296875h-11.71875z" transform="matrix(.58778525241 .80901699135 -.80901699135 .58778525241 245.2914935609 116.02574494406)"/><path d="m0 0h11.71875v29.296875h-11.71875z" transform="matrix(.40673664862 .91354545626 -.91354545626 .40673664862 276.97582124871 168.45484232855)"/><path d="m0 0h11.71875v29.296875h-11.71875z" transform="matrix(.3090169955 .95105651155 -.95105651155 .3090169955 288.53794271728 196.86381401293)"/><path d="m0 0h11.71875v29.296875h-11.71875z" transform="matrix(.20791169763 .97814759816 -.97814759816 .20791169763 297.06722188683 226.3258127257)"/><path d="m0 0h11.71875v29.296875h-11.71875z" transform="matrix(.10452846865 .99452189241 -.99452189241 .10452846865 302.47011305594 256.5179805609)"/><path d="m0-0h23.4375v87.890625h-23.4375z"/><path d="m0 0h23.4375v70.3125h-23.4375z" transform="matrix(.8660254 .5 -.5 .8660254 148.054371 33.390951)"/><path d="m0 0h23.4375v70.3125h-23.4375z" transform="matrix(.5 .8660254 -.8660254 .5 259.577799 136.335658)"/></g></g></svg>