<svg xmlns="http://www.w3.org/2000/svg">
    <!-- DAY ICONS -->

    <symbol id="weather-day-brokenclouds" viewBox="0 0 512 512">
        <path
            d="m99.365 428.998c-50.503-.32-91.406-41.42-91.406-91.998 0-45.348 32.882-83.077 76.078-90.624-.685-5.744-1.037-11.581-1.037-17.499 0-80.856 65.644-146.5 146.5-146.5 67.312 0 124.082 45.495 141.212 107.388 4.467-.505 9.01-.765 13.613-.765 66.229 0 120 53.77 120 120s-53.771 120-120 120h-284.366z"
            fill="var(--icon-color, #fffcfc)"
        />
    </symbol>

    <symbol id="weather-day-clearsky" viewBox="0 0 512 512">
        <g fill="var(--icon-color, #fdd632)">
            <circle cx="256.000805" cy="256.000885" r="120.000375" stroke-width="1.06667" />
            <path
                d="m124 188.5c0-11.866-8.562-21.5-19.108-21.5h-72.784c-10.546 0-19.108 9.634-19.108 21.5s8.562 21.5 19.108 21.5h72.784c10.546 0 19.108-9.634 19.108-21.5z"
                transform="matrix(.809735 0 0 .719645 -7.357497 120.347)"
            />
            <path
                d="m124 188.5c0-11.866-8.562-21.5-19.108-21.5h-72.784c-10.546 0-19.108 9.634-19.108 21.5s8.562 21.5 19.108 21.5h72.784c10.546 0 19.108-9.634 19.108-21.5z"
                transform="matrix(.809735 0 0 .719645 408.424063 120.347)"
            />
            <path
                d="m124 188.5c0-11.866-8.562-21.5-19.108-21.5h-72.784c-10.546 0-19.108 9.634-19.108 21.5s8.562 21.5 19.108 21.5h72.784c10.546 0 19.108-9.634 19.108-21.5z"
                transform="matrix(0 -.809735 .719645 0 120.347 519.35756)"
            />
            <path
                d="m124 188.5c0-11.866-8.562-21.5-19.108-21.5h-72.784c-10.546 0-19.108 9.634-19.108 21.5s8.562 21.5 19.108 21.5h72.784c10.546 0 19.108-9.634 19.108-21.5z"
                transform="matrix(0 -.809735 .719645 0 120.347 103.576)"
            />
            <path
                d="m124 188.5c0-11.866-10.354-21.5-23.107-21.5h-64.786c-12.753 0-23.107 9.634-23.107 21.5s10.354 21.5 23.107 21.5h64.786c12.753 0 23.107-9.634 23.107-21.5z"
                transform="matrix(-.47347 -.47347 .508866 -.508866 334.116246 526.056)"
            />
            <path
                d="m124 188.5c0-11.866-10.354-21.5-23.107-21.5h-64.786c-12.753 0-23.107 9.634-23.107 21.5s10.354 21.5 23.107 21.5h64.786c12.753 0 23.107-9.634 23.107-21.5z"
                transform="matrix(-.47347 -.47347 .508866 -.508866 50.700346 242.64)"
            />
            <path
                d="m124 188.5c0-11.866-10.354-21.5-23.107-21.5h-64.786c-12.753 0-23.107 9.634-23.107 21.5s10.354 21.5 23.107 21.5h64.786c12.753 0 23.107-9.634 23.107-21.5z"
                transform="matrix(.47347 -.47347 .508866 .508866 -14.165 334.213)"
            />
            <path
                d="m124 188.5c0-11.866-10.354-21.5-23.107-21.5h-64.786c-12.753 0-23.107 9.634-23.107 21.5s10.354 21.5 23.107 21.5h64.786c12.753 0 23.107-9.634 23.107-21.5z"
                transform="matrix(.47347 -.47347 .508866 .508866 269.251 50.7971)"
            />
        </g>
    </symbol>

    <symbol id="weather-day-fewclouds" viewBox="0 0 512 512">
        <g fill="var(--icon-color, #fdd632)">
            <path
                d="m77 184.5c0-7.451-5.601-13.5-12.5-13.5h-38c-6.899 0-12.5 6.049-12.5 13.5s5.601 13.5 12.5 13.5h38c6.899 0 12.5-6.049 12.5-13.5z"
                transform="matrix(1.03537 0 0 .958675 -7.320102 68.03072)"
            />
            <path
                d="m77 184.5c0-7.451-5.601-13.5-12.5-13.5h-38c-6.899 0-12.5 6.049-12.5 13.5s5.601 13.5 12.5 13.5h38c6.899 0 12.5-6.049 12.5-13.5z"
                transform="matrix(.732116 .732116 -.677885 .677885 176.810938 -22.75088)"
            />
            <path
                d="m77 184.5c0-7.451-5.601-13.5-12.5-13.5h-38c-6.899 0-12.5 6.049-12.5 13.5s5.601 13.5 12.5 13.5h38c6.899 0 12.5-6.049 12.5-13.5z"
                transform="matrix(0 -1.03537 .958675 0 17.453238 137.47642)"
            />
            <path
                d="m77 184.5c0-7.451-5.601-13.5-12.5-13.5h-38c-6.899 0-12.5 6.049-12.5 13.5s5.601 13.5 12.5 13.5h38c6.899 0 12.5-6.049 12.5-13.5z"
                transform="matrix(.732116 -.732116 .677885 .677885 -73.328362 262.42342)"
            />
            <path
                d="m77 184.5c0-7.451-5.601-13.5-12.5-13.5h-38c-6.899 0-12.5 6.049-12.5 13.5s5.601 13.5 12.5 13.5h38c6.899 0 12.5-6.049 12.5-13.5z"
                transform="matrix(.732116 -.732116 .677885 .677885 145.223938 43.87172)"
            />
            <path
                d="m144.618 250.622c-19.977-15.365-32.858-39.501-32.858-66.622 0-46.361 37.64-84 84-84 20.775 0 39.798 7.558 54.468 20.072-47.66 17.977-81.876 63.448-83.267 117.033-8.13 3.405-15.65 7.982-22.343 13.517z"
                transform="matrix(1.03537 0 0 1.03537 -8.355472 54.39842)"
            />
        </g>
        <path
            d="m99.365 428.998c-50.503-.32-91.406-41.42-91.406-91.998 0-45.348 32.882-83.077 76.078-90.624-.685-5.744-1.037-11.581-1.037-17.499 0-80.856 65.644-146.5 146.5-146.5 67.312 0 124.082 45.495 141.212 107.388 4.467-.505 9.01-.765 13.613-.765 66.229 0 120 53.77 120 120s-53.771 120-120 120h-284.366z"
            fill="var(--icon-color, #fff)"
            transform="matrix(.753772 0 0 .753772 124.679 130.879)"
        />
    </symbol>

    <symbol id="weather-day-lightrain" viewBox="0 0 511 512">
        <g fill="var(--icon-color, #5ac5f7)">
            <path
                d="m19.66 347h25.34v55h-25.34z"
                transform="matrix(.881619 .471962 -.413562 .772528 314.169 74.9296)"
            />
            <path
                d="m19.66 347h25.34v55h-25.34z"
                transform="matrix(.881619 .471962 -.413562 .772528 197.854 88.1805)"
            />
            <path
                d="m19.66 347h25.34v55h-25.34z"
                transform="matrix(.881619 .471962 -.413562 .772528 342.017 162.651)"
            />
            <path
                d="m19.66 347h25.34v55h-25.34z"
                transform="matrix(.881619 .471962 -.413562 .772528 255.891 161.246)"
            />
            <path
                d="m19.66 347h25.34v55h-25.34z"
                transform="matrix(.881619 .471962 -.413562 .772528 426.094 102.706)"
            />
            <path
                d="m19.66 347h25.34v55h-25.34z"
                transform="matrix(.881619 .471962 -.413562 .772528 512.129 90.4782)"
            />
            <path
                d="m19.66 347h25.34v55h-25.34z"
                transform="matrix(.881619 .471962 -.413562 .772528 525.339 175.347)"
            />
        </g>
        <path
            d="m99.365 428.998c-50.503-.32-91.406-41.42-91.406-91.998 0-45.348 32.882-83.077 76.078-90.624-.685-5.744-1.037-11.581-1.037-17.499 0-80.856 65.644-146.5 146.5-146.5 67.312 0 124.082 45.495 141.212 107.388 4.467-.505 9.01-.765 13.613-.765 66.229 0 120 53.77 120 120s-53.771 120-120 120h-284.366z"
            fill="var(--icon-color, #fff)"
            transform="matrix(.950086 0 0 .950086 12.0982 -74.5869)"
        />
    </symbol>

    <symbol id="weather-day-mist" viewBox="0 0 512 512">
        <g fill="var(--icon-color, #fff)">
            <path
                d="m99.365 428.998c-50.503-.32-91.406-41.42-91.406-91.998 0-45.348 32.882-83.077 76.078-90.624-.685-5.744-1.037-11.581-1.037-17.499 0-80.856 65.644-146.5 146.5-146.5 67.312 0 124.082 45.495 141.212 107.388 4.467-.505 9.01-.765 13.613-.765 66.229 0 120 53.77 120 120s-53.771 120-120 120h-284.366z"
                transform="matrix(.981991 0 0 .992989 4.47091 -74.7992)"
            />
            <path
                d="m409 424c0-9.934-6.978-18-15.574-18h-321.852c-8.596 0-15.574 8.066-15.574 18s6.978 18 15.574 18h321.852c8.596 0 15.574-8.066 15.574-18z"
                transform="matrix(.963173 0 0 .833333 32.0623 64.6667)"
            />
            <path
                d="m409 424c0-9.934-6.978-18-15.574-18h-321.852c-8.596 0-15.574 8.066-15.574 18s6.978 18 15.574 18h321.852c8.596 0 15.574-8.066 15.574-18z"
                transform="matrix(.963173 0 0 .833333 32.0623 141.298)"
            />
        </g>
    </symbol>

    <symbol id="weather-day-overcastclouds" viewBox="0 0 512 512">
        <path
            d="m99.365 428.998c-50.503-.32-91.406-41.42-91.406-91.998 0-45.348 32.882-83.077 76.078-90.624-.685-5.744-1.037-11.581-1.037-17.499 0-80.856 65.644-146.5 146.5-146.5 67.312 0 124.082 45.495 141.212 107.388 4.467-.505 9.01-.765 13.613-.765 66.229 0 120 53.77 120 120s-53.771 120-120 120h-284.366z"
            fill="var(--icon-color, #dbdfeb)"
            transform="matrix(.849209 0 0 .85872 79.1177 14.8024)"
        />
        <path
            d="m99.365 428.998c-50.503-.32-91.406-41.42-91.406-91.998 0-45.348 32.882-83.077 76.078-90.624-.685-5.744-1.037-11.581-1.037-17.499 0-80.856 65.644-146.5 146.5-146.5 67.312 0 124.082 45.495 141.212 107.388 4.467-.505 9.01-.765 13.613-.765 66.229 0 120 53.77 120 120s-53.771 120-120 120h-284.366z"
            fill="var(--icon-color, #fff)"
            transform="matrix(.849209 0 0 .85872 2.11773 58.8024)"
        />
    </symbol>

    <symbol id="weather-day-rain" viewBox="0 0 512 512">
        <path
            d="m99.365 428.998c-50.503-.32-91.406-41.42-91.406-91.998 0-45.348 32.882-83.077 76.078-90.624-.685-5.744-1.037-11.581-1.037-17.499 0-80.856 65.644-146.5 146.5-146.5 67.312 0 124.082 45.495 141.212 107.388 4.467-.505 9.01-.765 13.613-.765 66.229 0 120 53.77 120 120s-53.771 120-120 120h-284.366z"
            fill="var(--icon-color, #fff)"
            transform="matrix(.965015 0 0 .975824 8.81898 -75.587)"
        />
        <g fill="var(--icon-color, #5ac7f9)">
            <path
                d="m169 386c0-7.175-5.778-13-12.895-13h-126.991c-7.117 0-12.895 5.825-12.895 13s5.778 13 12.895 13h126.991c7.117 0 12.895-5.825 12.895-13z"
                transform="matrix(.590072 -.817387 .810803 .585319 -224.09253 290.455495)"
            />
            <path
                d="m169 386c0-7.175-6.751-13-15.067-13h-122.647c-8.316 0-15.067 5.825-15.067 13s6.751 13 15.067 13h122.647c8.316 0 15.067-5.825 15.067-13z"
                transform="matrix(.505021 -.699572 .810803 .585319 -130.06453 273.989495)"
            />
            <path
                d="m169 386c0-7.175-5.643-13-12.593-13h-127.596c-6.95 0-12.592 5.825-12.592 13s5.642 13 12.592 13h127.596c6.95 0 12.593-5.825 12.593-13z"
                transform="matrix(.604247 -.837023 .810803 .585319 -66.80853 292.385495)"
            />
            <path
                d="m169 386c0-7.175-8.813-13-19.667-13h-113.447c-10.855 0-19.667 5.825-19.667 13s8.812 13 19.667 13h113.447c10.854 0 19.667-5.825 19.667-13z"
                transform="matrix(.386895 -.53594 .810803 .585319 39.16127 243.482495)"
            />
            <path
                d="m169 386c0-7.175-8.813-13-19.667-13h-113.447c-10.855 0-19.667 5.825-19.667 13s8.812 13 19.667 13h113.447c10.854 0 19.667-5.825 19.667-13z"
                transform="matrix(.386895 -.53594 .810803 .585319 -269.34553 243.954495)"
            />
        </g>
    </symbol>

    <symbol id="weather-day-snow" viewBox="0 0 512 512">
        <g transform="matrix(1,0,0,1,-7.83123,0)">
            <path
                d="M247,4L280.662,4L280.662,72.676L319.162,50.448L335.662,79.027L280.662,110.781L280.662,226.847L381.179,168.814L381.179,105.306L414.179,105.306L414.179,149.762L473.654,115.424L490.485,144.576L431.01,178.914L469.51,201.142L453.01,229.721L398.01,197.967L297.494,256L398.01,314.033L453.01,282.279L469.51,310.858L431.01,333.086L490.485,367.424L473.654,396.576L414.179,362.238L414.179,406.694L381.179,406.694L381.179,343.186L280.662,285.153L280.662,401.219L335.662,432.973L319.162,461.552L280.662,439.324L280.662,508L247,508L247,439.324L208.5,461.552L192,432.973L247,401.219L247,285.153L146.483,343.186L146.483,406.694L113.483,406.694L113.483,362.238L54.008,396.576L37.177,367.424L96.652,333.086L58.152,310.858L74.652,282.279L129.652,314.033L230.169,256L129.652,197.967L74.652,229.721L58.152,201.142L96.652,178.914L37.177,144.576L54.008,115.424L113.483,149.762L113.483,105.306L146.483,105.306L146.483,168.814L247,226.847L247,110.781L192,79.027L208.5,50.448L247,72.676L247,4Z"
                style="fill: var(--icon-color, rgb(255, 252, 252))"
            />
        </g>
    </symbol>

    <symbol id="weather-day-sunnyrain" viewBox="0 0 512 512">
        <path
            d="m157 413.5c0-4.139-7.966-7.5-17.777-7.5h-43.446c-9.811 0-17.777 3.361-17.777 7.5s7.966 7.5 17.777 7.5h43.446c9.811 0 17.777-3.361 17.777-7.5z"
            fill="var(--icon-color, #5ac7f9)"
            transform="matrix(.357715 -.481176 1.14051 .847872 -338.863 144.323)"
        />
        <path
            d="m157 413.5c0-4.139-7.966-7.5-17.777-7.5h-43.446c-9.811 0-17.777 3.361-17.777 7.5s7.966 7.5 17.777 7.5h43.446c9.811 0 17.777-3.361 17.777-7.5z"
            fill="var(--icon-color, #5ac7f9)"
            transform="matrix(.357715 -.481176 1.14051 .847872 -277.059 192.543)"
        />
        <path
            d="m157 413.5c0-4.139-7.966-7.5-17.777-7.5h-43.446c-9.811 0-17.777 3.361-17.777 7.5s7.966 7.5 17.777 7.5h43.446c9.811 0 17.777-3.361 17.777-7.5z"
            fill="var(--icon-color, #5ac7f9)"
            transform="matrix(.357715 -.481176 1.14051 .847872 -182.385 169.255)"
        />
        <path
            d="m157 413.5c0-4.139-7.966-7.5-17.777-7.5h-43.446c-9.811 0-17.777 3.361-17.777 7.5s7.966 7.5 17.777 7.5h43.446c9.811 0 17.777-3.361 17.777-7.5z"
            fill="var(--icon-color, #5ac7f9)"
            transform="matrix(.357715 -.481176 1.14051 .847872 -86.3851 147.255)"
        />
        <g fill="var(--icon-color, #fdd632)">
            <path
                d="m77 184.5c0-7.451-5.601-13.5-12.5-13.5h-38c-6.899 0-12.5 6.049-12.5 13.5s5.601 13.5 12.5 13.5h38c6.899 0 12.5-6.049 12.5-13.5z"
                transform="matrix(1 0 0 .925926 1 13.1667)"
            />
            <path
                d="m77 184.5c0-7.451-5.601-13.5-12.5-13.5h-38c-6.899 0-12.5 6.049-12.5 13.5s5.601 13.5 12.5 13.5h38c6.899 0 12.5-6.049 12.5-13.5z"
                transform="matrix(.707107 .707107 -.654729 .654729 178.841 -74.5138)"
            />
            <path
                d="m77 184.5c0-7.451-5.601-13.5-12.5-13.5h-38c-6.899 0-12.5 6.049-12.5 13.5s5.601 13.5 12.5 13.5h38c6.899 0 12.5-6.049 12.5-13.5z"
                transform="matrix(0 -1 .925926 0 24.9271 80.2396)"
            />
            <path
                d="m77 184.5c0-7.451-5.601-13.5-12.5-13.5h-38c-6.899 0-12.5 6.049-12.5 13.5s5.601 13.5 12.5 13.5h38c6.899 0 12.5-6.049 12.5-13.5z"
                transform="matrix(.707107 -.707107 .654729 .654729 -62.7534 200.919)"
            />
            <path
                d="m77 184.5c0-7.451-5.601-13.5-12.5-13.5h-38c-6.899 0-12.5 6.049-12.5 13.5s5.601 13.5 12.5 13.5h38c6.899 0 12.5-6.049 12.5-13.5z"
                transform="matrix(.707107 -.707107 .654729 .654729 148.333 -10.1671)"
            />
            <path
                d="m144.618 250.622c-19.977-15.365-32.858-39.501-32.858-66.622 0-46.361 37.64-84 84-84 20.775 0 39.798 7.558 54.468 20.072-47.66 17.977-81.876 63.448-83.267 117.033-8.13 3.405-15.65 7.982-22.343 13.517z"
            />
        </g>
        <path
            d="m99.365 428.998c-50.503-.32-91.406-41.42-91.406-91.998 0-45.348 32.882-83.077 76.078-90.624-.685-5.744-1.037-11.581-1.037-17.499 0-80.856 65.644-146.5 146.5-146.5 67.312 0 124.082 45.495 141.212 107.388 4.467-.505 9.01-.765 13.613-.765 66.229 0 120 53.77 120 120s-53.771 120-120 120h-284.366z"
            fill="var(--icon-color, #fff)"
            transform="matrix(.728023 0 0 .728023 128.49 73.8682)"
        />
    </symbol>

    <symbol id="weather-day-thunderstorm" viewBox="0 0 512 512">
        <path
            d="m202.984 188 106.776-.613-22.567 91.613h51.807l-131.889 227 9.889-151h-51.526z"
            fill="var(--icon-color, #fdd632)"
        />
        <path
            d="m136.481 356.312h-37.077l-.594-.002c-50.475-.323-91.355-41.861-91.355-92.977 0-45.831 32.863-83.961 76.035-91.589-.685-5.804-1.036-11.703-1.036-17.685 0-81.716 65.608-148.059 146.419-148.059 67.275 0 124.013 45.979 141.133 108.532 4.465-.512 9.005-.774 13.606-.774 66.193 0 119.933 54.342 119.933 121.277 0 66.934-53.74 121.277-119.933 121.277h-57.148l61.187-105.312h-64.724s22.618-91.819 22.618-91.819l-164.998.947z"
            fill="var(--icon-color, #dbdfeb)"
        />
    </symbol>

    <!-- NIGHT ICONS -->

    <symbol id="weather-night-brokenclouds" viewBox="0 0 512 512">
        <path
            d="m99.365 428.998c-50.503-.32-91.406-41.42-91.406-91.998 0-45.348 32.882-83.077 76.078-90.624-.685-5.744-1.037-11.581-1.037-17.499 0-80.856 65.644-146.5 146.5-146.5 67.312 0 124.082 45.495 141.212 107.388 4.467-.505 9.01-.765 13.613-.765 66.229 0 120 53.77 120 120s-53.771 120-120 120h-284.366z"
            fill="var(--icon-color, #8c8c94)"
        />
    </symbol>

    <symbol id="weather-night-clearsky" viewBox="0 0 512 512">
        <g fill="var(--icon-color, var(--icon-color, #fff))" transform="translate(-6.31306 .5)">
            <path
                d="m323.5 42 8.778 23.722 23.722 8.778-23.722 8.778-8.778 23.722-8.778-23.722-23.722-8.778 23.722-8.778z"
                transform="matrix(1.12308 0 0 1.12308 -51.8154 -23.1692)"
            />
            <path
                d="m323.5 42 8.778 23.722 23.722 8.778-23.722 8.778-8.778 23.722-8.778-23.722-23.722-8.778 23.722-8.778z"
                transform="matrix(2.34488 0 0 2.34488 -327.361 -41.9851)"
            />
            <path
                d="m204.014 80.677c-26.168 32.03-41.868 72.93-41.868 117.469 0 102.575 83.278 185.854 185.854 185.854 18.771 0 36.897-2.789 53.974-7.972-33.715 65.856-102.263 110.972-181.265 110.972-112.315 0-203.5-91.185-203.5-203.5 0-106.699 82.294-194.329 186.805-202.823z"
            />
        </g>
    </symbol>

    <symbol id="weather-night-fewclouds" viewBox="0 0 512 512">
        <path
            d="m323.5 42 8.778 23.722 23.722 8.778-23.722 8.778-8.778 23.722-8.778-23.722-23.722-8.778 23.722-8.778z"
            fill="var(--icon-color, #fff)"
            transform="matrix(-1.0705 0 0 -1.0705 432.671 210.283)"
        />
        <path
            d="m323.5 42 8.778 23.722 23.722 8.778-23.722 8.778-8.778 23.722-8.778-23.722-23.722-8.778 23.722-8.778z"
            fill="var(--icon-color, #fff)"
            transform="matrix(-.846755 -0 0 -.846755 307.977 299.886)"
        />
        <path
            d="m99.365 428.998c-50.503-.32-91.406-41.42-91.406-91.998 0-45.348 32.882-83.077 76.078-90.624-.685-5.744-1.037-11.581-1.037-17.499 0-80.856 65.644-146.5 146.5-146.5 67.312 0 124.082 45.495 141.212 107.388 4.467-.505 9.01-.765 13.613-.765 66.229 0 120 53.77 120 120s-53.771 120-120 120h-284.366z"
            fill="var(--icon-color, #898c95)"
            transform="matrix(.809047 0 0 .809047 45.1319 108.916)"
        />
        <path
            d="m257.053 103.412c7.015-49.857 48.283-88.779 99.206-92.171-2.62 8.613-4.029 17.745-4.029 27.204 0 51.573 41.872 93.445 93.445 93.445 8.608 0 16.945-1.167 24.861-3.35-3.383 36.436-24.978 67.619-55.586 84.353-19.702-20.039-46.419-33.167-76.153-35.39-15.854-34.604-45.429-61.629-81.744-74.091z"
            fill="var(--icon-color, #fff)"
            transform="matrix(1.06136 0 0 1.06136 6.05838 44.0715)"
        />
    </symbol>

    <symbol id="weather-night-lightrain" viewBox="0 0 512 512">
        <g transform="translate(-.70866 -3.76836)">
            <g fill="var(--icon-color, #5ac7f9)">
                <path
                    d="m157 413.5c0-4.139-7.966-7.5-17.777-7.5h-43.446c-9.811 0-17.777 3.361-17.777 7.5s7.966 7.5 17.777 7.5h43.446c9.811 0 17.777-3.361 17.777-7.5z"
                    transform="matrix(.374468 -.503711 1.19392 .88758 -445.749 126.96)"
                />
                <path
                    d="m157 413.5c0-4.139-7.966-7.5-17.777-7.5h-43.446c-9.811 0-17.777 3.361-17.777 7.5s7.966 7.5 17.777 7.5h43.446c9.811 0 17.777-3.361 17.777-7.5z"
                    transform="matrix(.374468 -.503711 1.19392 .88758 -381.05 178.369)"
                />
                <path
                    d="m157 413.5c0-4.139-7.966-7.5-17.777-7.5h-43.446c-9.811 0-17.777 3.361-17.777 7.5s7.966 7.5 17.777 7.5h43.446c9.811 0 17.777-3.361 17.777-7.5z"
                    transform="matrix(.374468 -.503711 1.19392 .88758 -280.942 152.99)"
                />
                <path
                    d="m157 413.5c0-4.139-7.966-7.5-17.777-7.5h-43.446c-9.811 0-17.777 3.361-17.777 7.5s7.966 7.5 17.777 7.5h43.446c9.811 0 17.777-3.361 17.777-7.5z"
                    transform="matrix(.374468 -.503711 1.19392 .88758 -179.446 128.96)"
                />
            </g>
            <path
                d="m99.365 428.998c-50.503-.32-91.406-41.42-91.406-91.998 0-45.348 32.882-83.077 76.078-90.624-.685-5.744-1.037-11.581-1.037-17.499 0-80.856 65.644-146.5 146.5-146.5 67.312 0 124.082 45.495 141.212 107.388 4.467-.505 9.01-.765 13.613-.765 66.229 0 120 53.77 120 120s-53.771 120-120 120h-284.366z"
                fill="var(--icon-color, #898c95)"
                transform="matrix(.762272 0 0 .762272 36.8145 61.0958)"
            />
            <path
                d="m257.053 103.412c7.015-49.857 48.283-88.779 99.206-92.171-2.62 8.613-4.029 17.745-4.029 27.204 0 51.573 41.872 93.445 93.445 93.445 8.608 0 16.945-1.167 24.861-3.35-3.383 36.436-24.978 67.619-55.586 84.353-19.702-20.039-46.419-33.167-76.153-35.39-15.854-34.604-45.429-61.629-81.744-74.091z"
                fill="var(--icon-color, #fff)"
            />
        </g>
    </symbol>

    <symbol id="weather-night-mist" viewBox="0 0 512 512">
        <g fill="var(--icon-color, #8c8c94)">
            <path
                d="m99.365 428.998c-50.503-.32-91.406-41.42-91.406-91.998 0-45.348 32.882-83.077 76.078-90.624-.685-5.744-1.037-11.581-1.037-17.499 0-80.856 65.644-146.5 146.5-146.5 67.312 0 124.082 45.495 141.212 107.388 4.467-.505 9.01-.765 13.613-.765 66.229 0 120 53.77 120 120s-53.771 120-120 120h-284.366z"
                transform="matrix(.981991 0 0 .992989 4.47091 -74.7992)"
            />
            <path
                d="m409 424c0-9.934-6.978-18-15.574-18h-321.852c-8.596 0-15.574 8.066-15.574 18s6.978 18 15.574 18h321.852c8.596 0 15.574-8.066 15.574-18z"
                transform="matrix(.963173 0 0 .833333 32.0623 64.6667)"
            />
            <path
                d="m409 424c0-9.934-6.978-18-15.574-18h-321.852c-8.596 0-15.574 8.066-15.574 18s6.978 18 15.574 18h321.852c8.596 0 15.574-8.066 15.574-18z"
                transform="matrix(.963173 0 0 .833333 32.0623 141.298)"
            />
        </g>
    </symbol>

    <symbol id="weather-night-overcastclouds" viewBox="0 0 512 512">
        <path
            d="m99.365 428.998c-50.503-.32-91.406-41.42-91.406-91.998 0-45.348 32.882-83.077 76.078-90.624-.685-5.744-1.037-11.581-1.037-17.499 0-80.856 65.644-146.5 146.5-146.5 67.312 0 124.082 45.495 141.212 107.388 4.467-.505 9.01-.765 13.613-.765 66.229 0 120 53.77 120 120s-53.771 120-120 120h-284.366z"
            fill="var(--icon-color, #6b6c6c)"
            transform="matrix(.849209 0 0 .85872 79.1177 14.8024)"
        />
        <path
            d="m99.365 428.998c-50.503-.32-91.406-41.42-91.406-91.998 0-45.348 32.882-83.077 76.078-90.624-.685-5.744-1.037-11.581-1.037-17.499 0-80.856 65.644-146.5 146.5-146.5 67.312 0 124.082 45.495 141.212 107.388 4.467-.505 9.01-.765 13.613-.765 66.229 0 120 53.77 120 120s-53.771 120-120 120h-284.366z"
            fill="var(--icon-color, #8b8b93)"
            transform="matrix(.849209 0 0 .85872 2.11773 58.8024)"
        />
    </symbol>

    <symbol id="weather-night-rain" viewBox="0 0 512 512">
        <path
            d="m99.365 428.998c-50.503-.32-91.406-41.42-91.406-91.998 0-45.348 32.882-83.077 76.078-90.624-.685-5.744-1.037-11.581-1.037-17.499 0-80.856 65.644-146.5 146.5-146.5 67.312 0 124.082 45.495 141.212 107.388 4.467-.505 9.01-.765 13.613-.765 66.229 0 120 53.77 120 120s-53.771 120-120 120h-284.366z"
            fill="var(--icon-color, #8c8c94)"
            transform="matrix(.965015 0 0 .975824 8.81898 -75.587)"
        />
        <g fill="var(--icon-color, #5ac7f9)">
            <path
                d="m169 386c0-7.175-5.778-13-12.895-13h-126.991c-7.117 0-12.895 5.825-12.895 13s5.778 13 12.895 13h126.991c7.117 0 12.895-5.825 12.895-13z"
                transform="matrix(.590072 -.817387 .810803 .585319 -224.093 290.455)"
            />
            <path
                d="m169 386c0-7.175-6.751-13-15.067-13h-122.647c-8.316 0-15.067 5.825-15.067 13s6.751 13 15.067 13h122.647c8.316 0 15.067-5.825 15.067-13z"
                transform="matrix(.505021 -.699572 .810803 .585319 -130.065 273.989)"
            />
            <path
                d="m169 386c0-7.175-5.643-13-12.593-13h-127.596c-6.95 0-12.592 5.825-12.592 13s5.642 13 12.592 13h127.596c6.95 0 12.593-5.825 12.593-13z"
                transform="matrix(.604247 -.837023 .810803 .585319 -66.8085 292.385)"
            />
            <path
                d="m169 386c0-7.175-8.813-13-19.667-13h-113.447c-10.855 0-19.667 5.825-19.667 13s8.812 13 19.667 13h113.447c10.854 0 19.667-5.825 19.667-13z"
                transform="matrix(.386895 -.53594 .810803 .585319 39.1613 243.482)"
            />
            <path
                d="m169 386c0-7.175-8.813-13-19.667-13h-113.447c-10.855 0-19.667 5.825-19.667 13s8.812 13 19.667 13h113.447c10.854 0 19.667-5.825 19.667-13z"
                transform="matrix(.386895 -.53594 .810803 .585319 -269.346 243.954)"
            />
        </g>
    </symbol>

    <symbol id="weather-night-snow" viewBox="0 0 512 512">
        <path
            d="m247 4h33.662v68.676l38.5-22.228 16.5 28.579-55 31.754v116.066l100.517-58.033v-63.508h33v44.456l59.475-34.338 16.831 29.152-59.475 34.338 38.5 22.228-16.5 28.579-55-31.754-100.516 58.033 100.516 58.033 55-31.754 16.5 28.579-38.5 22.228 59.475 34.338-16.831 29.152-59.475-34.338v44.456h-33v-63.508l-100.517-58.033v116.066l55 31.754-16.5 28.579-38.5-22.228v68.676h-33.662v-68.676l-38.5 22.228-16.5-28.579 55-31.754v-116.066l-100.517 58.033v63.508h-33v-44.456l-59.475 34.338-16.831-29.152 59.475-34.338-38.5-22.228 16.5-28.579 55 31.754 100.517-58.033-100.517-58.033-55 31.754-16.5-28.579 38.5-22.228-59.475-34.338 16.831-29.152 59.475 34.338v-44.456h33v63.508l100.517 58.033v-116.066l-55-31.754 16.5-28.579 38.5 22.228z"
            fill="var(--icon-color, #fffcfc)"
            transform="translate(-7.83123)"
        />
    </symbol>

    <symbol id="weather-night-thunderstorm" viewBox="0 0 512 512">
        <path
            d="m202.984 188 106.776-.613-22.567 91.613h51.807l-131.889 227 9.889-151h-51.526z"
            fill="var(--icon-color, #fdd632)"
        />
        <path
            d="m136.481 356.312h-37.077l-.594-.002c-50.475-.323-91.355-41.861-91.355-92.977 0-45.831 32.863-83.961 76.035-91.589-.685-5.804-1.036-11.703-1.036-17.685 0-81.716 65.608-148.059 146.419-148.059 67.275 0 124.013 45.979 141.133 108.532 4.465-.512 9.005-.774 13.606-.774 66.193 0 119.933 54.342 119.933 121.277 0 66.934-53.74 121.277-119.933 121.277h-57.148l61.187-105.312h-64.724l22.618-91.819-164.998.947z"
            fill="var(--icon-color, #8c8c94)"
        />
    </symbol>
</svg>
