<svg height="330" viewBox="0 0 331 330" width="331" xmlns="http://www.w3.org/2000/svg"><g fill="none" fill-rule="evenodd" stroke="#000" stroke-linecap="square"><g transform="translate(.5)"><path d="m165 .5v40"/><path d="m237.25 19.859329v40" transform="matrix(.8660254 .5 -.5 .8660254 51.715123 -113.284866)"/><path d="m290.140671 72.75v40" transform="matrix(.5 .8660254 -.8660254 .5 225.394206 -204.894217)"/><path d="m309.5 145v40" transform="matrix(0 1 -1 0 474.5 -144.5)"/><path d="m290.140671 217.25v40" transform="matrix(-.5 .8660254 -.8660254 -.5 640.675577 104.605783)"/><path d="m237.25 270.140671v40" transform="matrix(-.8660254 .5 -.5 -.8660254 587.784877 422.784917)"/><path d="m165 289.5v40" transform="matrix(-1 0 0 -1 330 619)"/><path d="m92.75 270.140671v40" transform="matrix(-.8660254 -.5 .5 -.8660254 28.003506 587.784917)"/><path d="m39.859329 217.25v40" transform="matrix(-.5 -.8660254 .8660254 -.5 -145.675577 390.394166)"/><path d="m20.5 145v40" transform="matrix(0 -1 1 0 -144.5 185.5)"/><path d="m39.859329 72.75v40" transform="matrix(.5 -.8660254 .8660254 .5 -60.394206 80.894166)"/><path d="m92.75 19.859329v40" transform="matrix(.8660254 -.5 .5 .8660254 -7.503506 51.715134)"/></g><path d="m179.800764-.002517v20" transform="matrix(.9945219 .10452846 -.10452846 .9945219 3.878891 -17.390634)"/><path d="m195.773472 2.527312v20" transform="matrix(.9781476 .20791169 -.20791169 .9781476 8.731593 -39.080948)"/><path d="m211.394242 6.712884v20" transform="matrix(.95105652 .30901699 -.30901699 .95105652 17.359839 -63.157513)"/><path d="m226.491927 12.508343v20" transform="matrix(.91354546 .40673664 -.40673664 .91354546 30.585104 -88.82771)"/><path d="m254.463937 28.65799v20" transform="matrix(.80901699 .58778525 -.58778525 .80901699 73.169783 -140.838207)"/><path d="m267.031795 38.835241v20" transform="matrix(.74314483 .66913061 -.66913061 .74314483 103.114527 -164.786676)"/><path d="m278.466992 50.270437v20" transform="matrix(.66913061 .74314483 -.74314483 .66913061 138.774743 -185.650779)"/><path d="m288.644242 62.838295v20" transform="matrix(.58778525 .80901699 -.80901699 .58778525 179.759719 -202.144142)"/><path d="m304.793889 90.810305v20" transform="matrix(.40673664 .91354546 -.91354546 .40673664 274.766744 -217.287126)"/><path d="m310.589348 105.90799v20" transform="matrix(.30901699 .95105652 -.95105652 .30901699 326.695887 -213.948619)"/><path d="m314.77492 121.52876v20" transform="matrix(.20791169 .9781476 -.9781476 .20791169 379.832998 -202.364988)"/><path d="m317.304749 137.501468v20" transform="matrix(.10452846 .9945219 -.9945219 .10452846 432.679699 -182.134177)"/><path d="m317.304749 169.800764v20" transform="matrix(-.10452846 .9945219 -.9945219 -.10452846 531.136805 -115.62247)"/><path d="m314.77492 185.773472v20" transform="matrix(-.20791169 .9781476 -.9781476 -.20791169 573.564561 -70.070314)"/><path d="m310.589348 201.394242v20" transform="matrix(-.30901699 .95105652 -.95105652 -.30901699 609.463403 -17.320477)"/><path d="m304.793889 216.491927v20" transform="matrix(-.40673664 .91354546 -.91354546 -.40673664 637.524294 41.520272)"/><path d="m288.644242 244.463937v20" transform="matrix(-.58778525 .80901699 -.80901699 -.58778525 666.019523 171.864865)"/><path d="m278.466992 257.031795v20" transform="matrix(-.66913061 .74314483 -.74314483 -.66913061 665.089993 240.11854)"/><path d="m267.031795 268.466992v20" transform="matrix(-.74314483 .66913061 -.66913061 -.74314483 653.654793 308.07806)"/><path d="m254.463937 278.644242v20" transform="matrix(-.80901699 .58778525 -.58778525 -.80901699 631.839223 373.941035)"/><path d="m226.491927 294.793889v20" transform="matrix(-.91354546 .40673664 -.40673664 -.91354546 559.222294 492.463328)"/><path d="m211.394242 300.589348v20" transform="matrix(-.95105652 .30901699 -.30901699 -.95105652 510.268303 542.001777)"/><path d="m195.773472 304.77492v20" transform="matrix(-.9781476 .20791169 -.20791169 -.9781476 454.563161 583.316514)"/><path d="m179.800764 307.304749v20" transform="matrix(-.9945219 .10452846 -.10452846 -.9945219 393.632905 615.42577)"/><path d="m147.501468 307.304749v20" transform="matrix(-.9945219 -.10452846 .10452846 -.9945219 262.876499 649.638177)"/><path d="m131.52876 304.77492v20" transform="matrix(-.9781476 -.20791169 .20791169 -.9781476 196.586898 651.366488)"/><path d="m115.90799 300.589348v20" transform="matrix(-.95105652 -.30901699 .30901699 -.95105652 132.014587 643.143719)"/><path d="m100.810305 294.793889v20" transform="matrix(-.91354546 -.40673664 .40673664 -.91354546 70.783144 625.589126)"/><path d="m72.838295 278.644242v20" transform="matrix(-.80901699 -.58778525 .58778525 -.80901699 -36.046181 566.324442)"/><path d="m60.270437 268.466992v20" transform="matrix(-.74314483 -.66913061 .66913061 -.74314483 -79.421857 527.085979)"/><path d="m48.835241 257.031795v20" transform="matrix(-.66913061 -.74314483 .74314483 -.66913061 -115.082073 483.351476)"/><path d="m38.65799 244.463937v20" transform="matrix(-.58778525 -.80901699 .80901699 -.58778525 -142.636117 436.657907)"/><path d="m22.508343 216.491927v20" transform="matrix(-.40673664 -.91354546 .91354546 -.40673664 -173.398496 340.52571)"/><path d="m16.712884 201.394242v20" transform="matrix(-.30901699 -.95105652 .95105652 -.30901699 -177.321461 293.962413)"/><path d="m12.527312 185.773472v20" transform="matrix(-.20791169 -.9781476 .9781476 -.20791169 -174.514607 250.079548)"/><path d="m9.997483 169.800764v20" transform="matrix(-.10452846 -.9945219 .9945219 -.10452846 -165.924409 209.886734)"/><path d="m9.997483 137.501468v20" transform="matrix(.10452846 -.9945219 .9945219 .10452846 -135.892095 143.375028)"/><path d="m12.527312 121.52876v20" transform="matrix(.20791169 -.9781476 .9781476 .20791169 -116.882952 117.784873)"/><path d="m16.712884 105.90799v20" transform="matrix(.30901699 -.95105652 .95105652 .30901699 -96.837829 97.334271)"/><path d="m22.508343 90.810305v20" transform="matrix(.40673664 -.91354546 .91354546 .40673664 -76.892542 81.718312)"/><path d="m38.65799 62.838295v20" transform="matrix(.58778525 -.80901699 .80901699 .58778525 -41.143125 62.6489)"/><path d="m48.835241 50.270437v20" transform="matrix(.66913061 -.74314483 .74314483 .66913061 -26.782663 57.582157)"/><path d="m60.270437 38.835241v20" transform="matrix(.74314483 -.66913061 .66913061 .74314483 -15.347463 54.221243)"/><path d="m72.838295 28.65799v20" transform="matrix(.80901699 -.58778525 .58778525 .80901699 -6.962825 51.5452)"/><path d="m100.810305 12.508343v20" transform="matrix(.91354546 -.40673664 .40673664 .91354546 1.409458 44.298088)"/><path d="m115.90799 6.712884v20" transform="matrix(.95105652 -.30901699 .30901699 .95105652 2.357271 37.984429)"/><path d="m131.52876 2.527312v20" transform="matrix(.9781476 -.20791169 .20791169 .9781476 2.118548 28.969027)"/><path d="m147.501468-.002517v20" transform="matrix(.9945219 -.10452846 .10452846 .9945219 1.611905 16.821772)"/></g></svg>