<svg clip-rule="evenodd" fill-rule="evenodd" stroke-linejoin="round" stroke-miterlimit="2" viewBox="0 0 586 586" xmlns="http://www.w3.org/2000/svg"><g fill-rule="nonzero"><path d="m0 0h11.719v29.297h-11.719z" transform="matrix(.994522 .104528 -.104528 .994522 317.7649 .992372)"/><path d="m0 0h11.719v29.297h-11.719z" transform="matrix(.978148 .207912 -.207912 .978148 348.1488 5.18377)"/><path d="m0 0h11.719v29.297h-11.719z" transform="matrix(.951057 .309017 -.309017 .951057 377.9283 12.5282)"/><path d="m0 0h11.719v29.297h-11.719z" transform="matrix(.913545 .406737 -.406737 .913545 406.7768 22.9452)"/><path d="m0 0h11.719v29.297h-11.719z" transform="matrix(.809017 .587785 -.587785 .809017 460.4308 52.508)"/><path d="m0 0h11.719v29.297h-11.719z" transform="matrix(.743145 .669131 -.669131 .743145 484.6488 71.3298)"/><path d="m0 0h11.719v29.297h-11.719z" transform="matrix(.669131 .743145 -.743145 .669131 506.7658 92.58)"/><path d="m0 0h11.719v29.297h-11.719z" transform="matrix(.587785 .809017 -.809017 .587785 526.5408 116.026)"/><path d="m0 0h11.719v29.297h-11.719z" transform="matrix(.406737 .913545 -.913545 .406737 558.2258 168.455)"/><path d="m0 0h11.719v29.297h-11.719z" transform="matrix(.309017 .951057 -.951057 .309017 569.7878 196.864)"/><path d="m0 0h11.719v29.297h-11.719z" transform="matrix(.207912 .978148 -.978148 .207912 578.3168 226.326)"/><path d="m0 0h11.719v29.297h-11.719z" transform="matrix(.104528 .994522 -.994522 .104528 583.7198 256.518)"/><path d="m281.2498 0h23.438v87.891h-23.438z"/><path d="m0 0h23.438v70.313h-23.438z" transform="matrix(.866025 .5 -.5 .866025 429.3038 33.391)"/><path d="m0 0h23.438v70.313h-23.438z" transform="matrix(.5 .866025 -.866025 .5 540.8278 136.336)"/><path d="m0 0h11.719v29.297h-11.719z" transform="matrix(-.104528 .994522 -.994522 -.104528 584.945428 317.7649)"/><path d="m0 0h11.719v29.297h-11.719z" transform="matrix(-.207912 .978148 -.978148 -.207912 580.75403 348.1488)"/><path d="m0 0h11.719v29.297h-11.719z" transform="matrix(-.309017 .951057 -.951057 -.309017 573.4096 377.9283)"/><path d="m0 0h11.719v29.297h-11.719z" transform="matrix(-.406737 .913545 -.913545 -.406737 562.9926 406.7768)"/><path d="m0 0h11.719v29.297h-11.719z" transform="matrix(-.587785 .809017 -.809017 -.587785 533.4298 460.4308)"/><path d="m0 0h11.719v29.297h-11.719z" transform="matrix(-.669131 .743145 -.743145 -.669131 514.608 484.6488)"/><path d="m0 0h11.719v29.297h-11.719z" transform="matrix(-.743145 .669131 -.669131 -.743145 493.3578 506.7658)"/><path d="m0 0h11.719v29.297h-11.719z" transform="matrix(-.809017 .587785 -.587785 -.809017 469.9118 526.5408)"/><path d="m0 0h11.719v29.297h-11.719z" transform="matrix(-.913545 .406737 -.406737 -.913545 417.4828 558.2258)"/><path d="m0 0h11.719v29.297h-11.719z" transform="matrix(-.951057 .309017 -.309017 -.951057 389.0738 569.7878)"/><path d="m0 0h11.719v29.297h-11.719z" transform="matrix(-.978148 .207912 -.207912 -.978148 359.6118 578.3168)"/><path d="m0 0h11.719v29.297h-11.719z" transform="matrix(-.994522 .104528 -.104528 -.994522 329.4198 583.7198)"/><path d="m0 0h23.438v87.891h-23.438z" transform="matrix(0 1 -1 0 585.9378 281.2498)"/><path d="m0 0h23.438v70.313h-23.438z" transform="matrix(-.5 .866025 -.866025 -.5 552.5468 429.3038)"/><path d="m0 0h23.438v70.313h-23.438z" transform="matrix(-.866025 .5 -.5 -.866025 449.6018 540.8278)"/><path d="m0 0h11.719v29.297h-11.719z" transform="matrix(-.994522 -.104528 .104528 -.994522 268.1727 584.945428)"/><path d="m0 0h11.719v29.297h-11.719z" transform="matrix(-.978148 -.207912 .207912 -.978148 237.7888 580.75403)"/><path d="m0 0h11.719v29.297h-11.719z" transform="matrix(-.951057 -.309017 .309017 -.951057 208.0093 573.4096)"/><path d="m0 0h11.719v29.297h-11.719z" transform="matrix(-.913545 -.406737 .406737 -.913545 179.1608 562.9926)"/><path d="m0 0h11.719v29.297h-11.719z" transform="matrix(-.809017 -.587785 .587785 -.809017 125.5068 533.4298)"/><path d="m0 0h11.719v29.297h-11.719z" transform="matrix(-.743145 -.669131 .669131 -.743145 101.2888 514.608)"/><path d="m0 0h11.719v29.297h-11.719z" transform="matrix(-.669131 -.743145 .743145 -.669131 79.1718 493.3578)"/><path d="m0 0h11.719v29.297h-11.719z" transform="matrix(-.587785 -.809017 .809017 -.587785 59.3968 469.9118)"/><path d="m0 0h11.719v29.297h-11.719z" transform="matrix(-.406737 -.913545 .913545 -.406737 27.7118 417.4828)"/><path d="m0 0h11.719v29.297h-11.719z" transform="matrix(-.309017 -.951057 .951057 -.309017 16.1498 389.0738)"/><path d="m0 0h11.719v29.297h-11.719z" transform="matrix(-.207912 -.978148 .978148 -.207912 7.6208 359.6118)"/><path d="m0 0h11.719v29.297h-11.719z" transform="matrix(-.104528 -.994522 .994522 -.104528 2.2178 329.4198)"/><path d="m0 0h23.438v87.891h-23.438z" transform="matrix(-1 0 0 -1 304.6878 585.9378)"/><path d="m0 0h23.438v70.313h-23.438z" transform="matrix(-.866025 -.5 .5 -.866025 156.6338 552.5468)"/><path d="m0 0h23.438v70.313h-23.438z" transform="matrix(-.5 -.866025 .866025 -.5 45.1098 449.6018)"/><path d="m0 0h11.719v29.297h-11.719z" transform="matrix(.104528 -.994522 .994522 .104528 .992372 268.1727)"/><path d="m0 0h11.719v29.297h-11.719z" transform="matrix(.207912 -.978148 .978148 .207912 5.18377 237.7888)"/><path d="m0 0h11.719v29.297h-11.719z" transform="matrix(.309017 -.951057 .951057 .309017 12.5282 208.0093)"/><path d="m0 0h11.719v29.297h-11.719z" transform="matrix(.406737 -.913545 .913545 .406737 22.9452 179.1608)"/><path d="m0 0h11.719v29.297h-11.719z" transform="matrix(.587785 -.809017 .809017 .587785 52.508 125.5068)"/><path d="m0 0h11.719v29.297h-11.719z" transform="matrix(.669131 -.743145 .743145 .669131 71.3298 101.2888)"/><path d="m0 0h11.719v29.297h-11.719z" transform="matrix(.743145 -.669131 .669131 .743145 92.58 79.1718)"/><path d="m0 0h11.719v29.297h-11.719z" transform="matrix(.809017 -.587785 .587785 .809017 116.026 59.3968)"/><path d="m0 0h11.719v29.297h-11.719z" transform="matrix(.913545 -.406737 .406737 .913545 168.455 27.7118)"/><path d="m0 0h11.719v29.297h-11.719z" transform="matrix(.951057 -.309017 .309017 .951057 196.864 16.1498)"/><path d="m0 0h11.719v29.297h-11.719z" transform="matrix(.978148 -.207912 .207912 .978148 226.326 7.6208)"/><path d="m0 0h11.719v29.297h-11.719z" transform="matrix(.994522 -.104528 .104528 .994522 256.518 2.2178)"/><path d="m0 0h23.438v87.891h-23.438z" transform="matrix(0 -1 1 0 0 304.6878)"/><path d="m0 0h23.438v70.313h-23.438z" transform="matrix(.5 -.866025 .866025 .5 33.391 156.6338)"/><path d="m0 0h23.438v70.313h-23.438z" transform="matrix(.866025 -.5 .5 .866025 136.336 45.1098)"/></g></svg>