<svg clip-rule="evenodd" fill-rule="evenodd" stroke-linejoin="round" stroke-miterlimit="2" viewBox="0 0 512 512" xmlns="http://www.w3.org/2000/svg"><g fill="#fdd632"><path d="m77 184.5c0-7.451-5.601-13.5-12.5-13.5h-38c-6.899 0-12.5 6.049-12.5 13.5s5.601 13.5 12.5 13.5h38c6.899 0 12.5-6.049 12.5-13.5z" transform="matrix(1.03537 0 0 .958675 -7.320102 68.03072)"/><path d="m77 184.5c0-7.451-5.601-13.5-12.5-13.5h-38c-6.899 0-12.5 6.049-12.5 13.5s5.601 13.5 12.5 13.5h38c6.899 0 12.5-6.049 12.5-13.5z" transform="matrix(.732116 .732116 -.677885 .677885 176.810938 -22.75088)"/><path d="m77 184.5c0-7.451-5.601-13.5-12.5-13.5h-38c-6.899 0-12.5 6.049-12.5 13.5s5.601 13.5 12.5 13.5h38c6.899 0 12.5-6.049 12.5-13.5z" transform="matrix(0 -1.03537 .958675 0 17.453238 137.47642)"/><path d="m77 184.5c0-7.451-5.601-13.5-12.5-13.5h-38c-6.899 0-12.5 6.049-12.5 13.5s5.601 13.5 12.5 13.5h38c6.899 0 12.5-6.049 12.5-13.5z" transform="matrix(.732116 -.732116 .677885 .677885 -73.328362 262.42342)"/><path d="m77 184.5c0-7.451-5.601-13.5-12.5-13.5h-38c-6.899 0-12.5 6.049-12.5 13.5s5.601 13.5 12.5 13.5h38c6.899 0 12.5-6.049 12.5-13.5z" transform="matrix(.732116 -.732116 .677885 .677885 145.223938 43.87172)"/><path d="m144.618 250.622c-19.977-15.365-32.858-39.501-32.858-66.622 0-46.361 37.64-84 84-84 20.775 0 39.798 7.558 54.468 20.072-47.66 17.977-81.876 63.448-83.267 117.033-8.13 3.405-15.65 7.982-22.343 13.517z" transform="matrix(1.03537 0 0 1.03537 -8.355472 54.39842)"/></g><path d="m99.365 428.998c-50.503-.32-91.406-41.42-91.406-91.998 0-45.348 32.882-83.077 76.078-90.624-.685-5.744-1.037-11.581-1.037-17.499 0-80.856 65.644-146.5 146.5-146.5 67.312 0 124.082 45.495 141.212 107.388 4.467-.505 9.01-.765 13.613-.765 66.229 0 120 53.77 120 120s-53.771 120-120 120h-284.366z" fill="#fff" transform="matrix(.753772 0 0 .753772 124.679 130.879)"/></svg>