<svg clip-rule="evenodd" fill-rule="evenodd" stroke-linejoin="round" stroke-miterlimit="2" viewBox="0 0 512 512" xmlns="http://www.w3.org/2000/svg"><path d="m323.5 42 8.778 23.722 23.722 8.778-23.722 8.778-8.778 23.722-8.778-23.722-23.722-8.778 23.722-8.778z" fill="#fff" transform="matrix(-1.0705 0 0 -1.0705 432.671 210.283)"/><path d="m323.5 42 8.778 23.722 23.722 8.778-23.722 8.778-8.778 23.722-8.778-23.722-23.722-8.778 23.722-8.778z" fill="#fff" transform="matrix(-.846755 -0 0 -.846755 307.977 299.886)"/><path d="m99.365 428.998c-50.503-.32-91.406-41.42-91.406-91.998 0-45.348 32.882-83.077 76.078-90.624-.685-5.744-1.037-11.581-1.037-17.499 0-80.856 65.644-146.5 146.5-146.5 67.312 0 124.082 45.495 141.212 107.388 4.467-.505 9.01-.765 13.613-.765 66.229 0 120 53.77 120 120s-53.771 120-120 120h-284.366z" fill="#898c95" transform="matrix(.809047 0 0 .809047 45.1319 108.916)"/><path d="m257.053 103.412c7.015-49.857 48.283-88.779 99.206-92.171-2.62 8.613-4.029 17.745-4.029 27.204 0 51.573 41.872 93.445 93.445 93.445 8.608 0 16.945-1.167 24.861-3.35-3.383 36.436-24.978 67.619-55.586 84.353-19.702-20.039-46.419-33.167-76.153-35.39-15.854-34.604-45.429-61.629-81.744-74.091z" fill="#fff" transform="matrix(1.06136 0 0 1.06136 6.05838 44.0715)"/></svg>