<?xml version="1.0" encoding="UTF-8" standalone="no"?>
<svg
   xmlns:dc="http://purl.org/dc/elements/1.1/"
   xmlns:cc="http://creativecommons.org/ns#"
   xmlns:rdf="http://www.w3.org/1999/02/22-rdf-syntax-ns#"
   xmlns:svg="http://www.w3.org/2000/svg"
   xmlns="http://www.w3.org/2000/svg"
   xmlns:sodipodi="http://sodipodi.sourceforge.net/DTD/sodipodi-0.dtd"
   xmlns:inkscape="http://www.inkscape.org/namespaces/inkscape"
   width="52.827271mm"
   height="52.897949mm"
   viewBox="0 0 52.827271 52.897949"
   version="1.1"
   id="svg8"
   inkscape:version="1.0.2-2 (e86c870879, 2021-01-15)"
   sodipodi:docname="gear.svg">
  <defs
     id="defs2" />
  <sodipodi:namedview
     id="base"
     pagecolor="#ffffff"
     bordercolor="#666666"
     borderopacity="1.0"
     inkscape:pageopacity="0.0"
     inkscape:pageshadow="2"
     inkscape:zoom="0.98994949"
     inkscape:cx="48.469753"
     inkscape:cy="273.03118"
     inkscape:document-units="mm"
     inkscape:current-layer="layer1"
     inkscape:document-rotation="0"
     showgrid="false"
     inkscape:pagecheckerboard="true"
     fit-margin-top="0"
     fit-margin-left="0"
     fit-margin-right="0"
     fit-margin-bottom="0"
     inkscape:window-width="1438"
     inkscape:window-height="1198"
     inkscape:window-x="52"
     inkscape:window-y="52"
     inkscape:window-maximized="0" />
  <metadata
     id="metadata5">
    <rdf:RDF>
      <cc:Work
         rdf:about="">
        <dc:format>image/svg+xml</dc:format>
        <dc:type
           rdf:resource="http://purl.org/dc/dcmitype/StillImage" />
        <dc:title></dc:title>
      </cc:Work>
    </rdf:RDF>
  </metadata>
  <g
     inkscape:label="Calque 1"
     inkscape:groupmode="layer"
     id="layer1">
    <g
       inkscape:label="Calque 1"
       id="layer1-0">
      <path
         style="fill:#000000;stroke-width:0.0846667"
         id="path847"
         d="" />
      <path
         style="fill:#ffffff;fill-opacity:1;stroke-width:0.264583"
         d="m 29.732313,52.568736 c -0.261705,-0.191366 -0.929738,-1.411518 -1.484514,-2.711456 -1.094888,-2.565506 -1.420606,-2.925318 -2.420861,-2.674271 -0.510244,0.128064 -0.884822,0.656114 -1.669876,2.354065 -1.198406,2.591966 -1.602492,3.115011 -2.406546,3.115011 -1.093886,0 -1.344327,-0.579155 -1.504075,-3.478234 -0.131431,-2.385174 -0.222729,-2.784642 -0.730386,-3.195717 -0.319098,-0.258389 -0.694773,-0.4698 -0.834832,-0.4698 -0.14006,0 -1.249242,0.952501 -2.464849,2.116667 -1.215607,1.164167 -2.379057,2.116667 -2.585444,2.116667 -0.523817,0 -1.251014,-0.864653 -1.251014,-1.48748 0,-0.285874 0.302991,-1.564894 0.673314,-2.842262 1.112876,-3.838696 0.460165,-4.316707 -3.4698301,-2.541117 -2.157315,0.974688 -2.594473,1.08971 -3.16082,0.831665 -1.078964,-0.491608 -0.849668,-1.453808 0.930253,-3.903638 1.720243,-2.367694 1.910273,-3.067701 0.992187,-3.654878 -0.490097,-0.313449 -1.055205,-0.334422 -3.19739,-0.118676 -2.9067284,0.292751 -3.2656584,0.229635 -3.5907234,-0.631393 -0.336204,-0.89054 0.04173,-1.377522 2.198547,-2.832929 1.0687814,-0.721205 2.1368264,-1.504871 2.3734344,-1.741478 1.095026,-1.095025 0.158817,-1.971318 -2.9671154,-2.77722 -2.78108396,-0.716994 -3.44641696,-1.221011 -3.06193696,-2.319544 0.226015,-0.645765 0.530942,-0.792063 2.97211896,-1.425957 1.496146,-0.388501 2.8928104,-0.849564 3.1036974,-1.024585 0.766295,-0.635968 0.451894,-1.539795 -0.849355,-2.441691 -2.3441404,-1.624722 -3.7942984,-2.852534 -3.7942984,-3.212534 0,-0.198776 0.220991,-0.634323 0.491091,-0.967882 0.487557,-0.602107 0.511686,-0.604223 3.3527314,-0.29401 2.567647,0.280361 2.911336,0.267487 3.345368,-0.125306 0.26605,-0.240771 0.483727,-0.640034 0.483727,-0.88725 0,-0.247216 -0.714375,-1.506163 -1.5875,-2.797658 -0.873125,-1.291497 -1.5875,-2.540604 -1.5875,-2.7757947 0,-0.479943 0.804943,-1.303383 1.274105,-1.303383 0.168519,0 1.430918,0.558604 2.8053331,1.241343 2.211714,1.0986677 2.577042,1.2057557 3.178498,0.9317147 0.843925,-0.384518 0.864569,-0.9634257 0.136098,-3.8165617 -0.685065,-2.683135 -0.615727,-3.424614 0.351883,-3.762925 0.688834,-0.240842 0.86997,-0.121986 2.915943,1.913359 1.199817,1.193584 2.368904,2.170153 2.597972,2.170153 0.88466,0 1.255554,-0.891541 1.542157,-3.706982 C 21.121342,0.5934918 21.399672,0 22.443645,0 c 0.668798,0 1.163287,0.7144524 2.236967,3.2320403 1.4766,3.462363 2.383137,3.494319 3.97714,0.140195 1.29208,-2.7188085 1.609805,-3.107652 2.539278,-3.107652 1.007806,0 1.189824,0.4659857 1.382311,3.538845 0.09002,1.437042 0.299518,2.776495 0.465558,2.976563 0.677862,0.816772 1.608344,0.408494 3.693448,-1.620616 1.121524,-1.091406 2.179699,-1.984375 2.351495,-1.984375 0.1718,0 0.542661,0.123251 0.824135,0.273892 0.7033,0.376394 0.65668,1.386699 -0.195321,4.232915 -0.686765,2.294229 -0.693192,2.3774917 -0.223575,2.8964137 0.669861,0.740188 1.060738,0.684473 3.676592,-0.524054 2.430534,-1.1229107 3.041605,-1.2503907 3.551161,-0.7408337 0.640445,0.640446 0.303736,1.6384567 -1.295332,3.8393647 -1.290415,1.776091 -1.579737,2.351702 -1.447292,2.879407 0.226126,0.900956 0.89766,1.085299 3.135802,0.860808 3.258889,-0.326875 3.571079,-0.293163 4.049694,0.437297 0.389155,0.593924 0.3926,0.723731 0.03375,1.271404 -0.219808,0.33547 -1.352569,1.235556 -2.517246,2.000189 -1.16468,0.764633 -2.171385,1.595925 -2.237124,1.847317 -0.240771,0.920704 0.268711,1.59118 1.441485,1.896998 3.935462,1.026225 4.704627,1.337183 4.862393,1.965768 0.310208,1.235969 -0.22111,1.631796 -3.051871,2.273622 -4.088389,0.926967 -4.479213,1.932763 -1.53784,3.957678 3.149708,2.168339 3.635203,2.886829 2.589895,3.832817 -0.483902,0.437925 -0.742228,0.450186 -3.336047,0.158316 -2.554094,-0.287398 -2.857352,-0.274902 -3.31194,0.136499 -0.275228,0.249076 -0.500412,0.645292 -0.500412,0.880483 0,0.235191 0.714375,1.484299 1.5875,2.775793 0.873125,1.291495 1.5875,2.566153 1.5875,2.832566 0,0.266417 -0.307525,0.685891 -0.683392,0.932167 -0.667912,0.437635 -0.742514,0.418687 -3.293444,-0.83643 -2.305383,-1.134301 -2.688881,-1.248289 -3.285357,-0.976514 -0.843989,0.384546 -0.868876,1.086358 -0.132734,3.742818 0.708684,2.557378 0.620284,3.495345 -0.361778,3.838617 -0.704077,0.246102 -0.863272,0.140394 -2.881617,-1.913454 -3.098014,-3.15251 -3.699941,-2.930983 -4.142303,1.524495 -0.209243,2.107492 -0.385612,2.853096 -0.735386,3.108854 -0.583742,0.426842 -0.931563,0.424228 -1.527426,-0.01148 z m 0.746159,-10.228903 c 1.12399,-0.28747 2.779366,-0.912548 3.678616,-1.389063 2.04755,-1.085009 5.062233,-3.923006 6.236166,-5.870676 1.156406,-2.372738 2.233118,-4.325934 2.016869,-6.901968 l -7.429812,-0.07019 c -6.819011,-0.06442 -7.464142,-0.03179 -7.84741,0.396875 -0.772209,0.863682 -7.08007,12.017915 -7.08007,12.519737 0,1.562979 6.33317,2.361962 10.425639,1.315287 z m -9.729426,-9.134624 c 1.962596,-3.387013 3.526149,-6.378721 3.526111,-6.746875 -1.06e-4,-1.029613 -6.906349,-12.814183 -7.566423,-12.911078 -0.740573,-0.108712 -3.679637,3.051479 -4.798336,5.159348 -2.4886671,4.689188 -2.4964811,10.812629 -0.01973,15.459495 1.11955,2.10049 4.08148,5.311773 4.800092,5.204188 0.384995,-0.05764 1.506976,-1.762078 4.058283,-6.165078 z M 41.92771,21.084743 c -1.916657,-5.280332 -6.364266,-9.293242 -11.817403,-10.6624 -3.534712,-0.8874847 -9.800785,-0.02239 -10.003992,1.381155 -0.07259,0.50137 6.055209,11.479698 7.037637,12.60836 0.373317,0.428885 1.013897,0.461327 7.836361,0.396875 l 7.429812,-0.07019 c 0.186218,-1.264923 -0.108424,-2.603275 -0.482415,-3.6538 z"
         id="path865"
         sodipodi:nodetypes="ssssssssssssssssssssssssssssssssssssssssssssssssssssssssssssssssssssssssssssssssssccssssssssssssscsssscc" />
    </g>
  </g>
</svg>
