<svg clip-rule="evenodd" fill-rule="evenodd" stroke-linejoin="round" stroke-miterlimit="2" viewBox="0 0 512 512" xmlns="http://www.w3.org/2000/svg"><g fill="#fdd632"><circle cx="256.000805" cy="256.000885" r="120.000375" stroke-width="1.06667"/><path d="m124 188.5c0-11.866-8.562-21.5-19.108-21.5h-72.784c-10.546 0-19.108 9.634-19.108 21.5s8.562 21.5 19.108 21.5h72.784c10.546 0 19.108-9.634 19.108-21.5z" transform="matrix(.809735 0 0 .719645 -7.357497 120.347)"/><path d="m124 188.5c0-11.866-8.562-21.5-19.108-21.5h-72.784c-10.546 0-19.108 9.634-19.108 21.5s8.562 21.5 19.108 21.5h72.784c10.546 0 19.108-9.634 19.108-21.5z" transform="matrix(.809735 0 0 .719645 408.424063 120.347)"/><path d="m124 188.5c0-11.866-8.562-21.5-19.108-21.5h-72.784c-10.546 0-19.108 9.634-19.108 21.5s8.562 21.5 19.108 21.5h72.784c10.546 0 19.108-9.634 19.108-21.5z" transform="matrix(0 -.809735 .719645 0 120.347 519.35756)"/><path d="m124 188.5c0-11.866-8.562-21.5-19.108-21.5h-72.784c-10.546 0-19.108 9.634-19.108 21.5s8.562 21.5 19.108 21.5h72.784c10.546 0 19.108-9.634 19.108-21.5z" transform="matrix(0 -.809735 .719645 0 120.347 103.576)"/><path d="m124 188.5c0-11.866-10.354-21.5-23.107-21.5h-64.786c-12.753 0-23.107 9.634-23.107 21.5s10.354 21.5 23.107 21.5h64.786c12.753 0 23.107-9.634 23.107-21.5z" transform="matrix(-.47347 -.47347 .508866 -.508866 334.116246 526.056)"/><path d="m124 188.5c0-11.866-10.354-21.5-23.107-21.5h-64.786c-12.753 0-23.107 9.634-23.107 21.5s10.354 21.5 23.107 21.5h64.786c12.753 0 23.107-9.634 23.107-21.5z" transform="matrix(-.47347 -.47347 .508866 -.508866 50.700346 242.64)"/><path d="m124 188.5c0-11.866-10.354-21.5-23.107-21.5h-64.786c-12.753 0-23.107 9.634-23.107 21.5s10.354 21.5 23.107 21.5h64.786c12.753 0 23.107-9.634 23.107-21.5z" transform="matrix(.47347 -.47347 .508866 .508866 -14.165 334.213)"/><path d="m124 188.5c0-11.866-10.354-21.5-23.107-21.5h-64.786c-12.753 0-23.107 9.634-23.107 21.5s10.354 21.5 23.107 21.5h64.786c12.753 0 23.107-9.634 23.107-21.5z" transform="matrix(.47347 -.47347 .508866 .508866 269.251 50.7971)"/></g></svg>