<svg xmlns="http://www.w3.org/2000/svg" viewBox="0 0 512 512"><path fill="#fcd434" fill-rule="evenodd" d="M249 5c-3 1-5 4-6 6-2 3-2 5-2 37s0 34 2 37c6 11 20 11 26 0 2-3 3-5 3-37s-1-34-3-37c-2-4-8-8-13-8l-7 2M92 84c-6 3-10 12-8 19 1 5 37 40 42 42 11 3 22-8 19-19-1-3-5-8-19-22l-22-20H92m316 0-22 20a87 87 0 0 0-19 22c-3 11 8 22 19 19 5-2 41-37 42-42 4-12-9-24-20-19m-173 54a120 120 0 0 0-97 138 120 120 0 0 0 138 98 120 120 0 0 0 98-138c-9-50-48-89-98-98h-41M14 241l-6 3c-2 2-5 9-5 12 0 5 4 11 8 13 3 2 5 3 37 3s34-1 37-3c11-6 11-20 0-26-3-2-5-3-35-3l-36 1m416 0c-13 5-15 21-3 28 3 2 5 3 37 3s34-1 37-3c4-2 8-8 8-13s-4-11-8-13c-3-2-5-3-35-3l-36 1M126 367c-5 2-41 37-42 42-3 11 6 22 18 20 3-1 6-4 23-20 21-21 22-23 20-31-1-4-6-10-10-10a2250 2250 0 0 0-9-1m252 0c-8 2-13 11-11 19 2 5 37 41 42 42 11 3 22-6 20-18-1-3-4-6-20-23-12-11-20-19-22-19a2126 2126 0 0 0-9-1m-130 54-5 6c-2 3-2 5-2 37s0 34 2 37c2 4 8 8 13 8s11-4 13-8c2-3 3-5 3-37s-1-34-3-37c-3-5-7-8-13-8l-8 2"/></svg>