<svg xmlns="http://www.w3.org/2000/svg" viewBox="0 0 512 512"><path fill="#fcd434" fill-rule="evenodd" d="m184 62-5 5c-2 3-3 4-3 24v23l4 5c5 6 13 6 19 1l3-3V93c0-27 0-27-7-30-4-2-6-2-11-1M64 112c-5 2-7 7-7 13v5l15 15c8 9 16 16 18 17 5 3 14 0 17-6v-11c-1-4-29-31-32-33H64m239 1c-4 2-29 27-31 31-3 6-1 13 5 17 4 2 8 3 13 1l17-17 15-15v-6l-2-8c-4-5-12-6-17-3m-124 46c-10 1-17 3-27 8-9 5-13 7-21 14a83 83 0 0 0-27 63c0 14 3 25 9 38 4 9 10 18 18 24 9 9 9 9 17 2s17-14 25-18c5-2 6-2 6-6 7-41 33-78 69-97l3-2-6-6a87 87 0 0 0-66-20M14 233c-5 3-6 5-6 11 0 5 0 6 3 9l3 4h22l26-1c10-5 9-20 0-24l-25-1c-18 0-21 0-23 2m60 107-16 17-1 8c0 4 0 5 3 8 4 4 10 5 15 3l18-16c11-12 14-15 15-18 1-6-1-10-4-13-2-3-3-3-9-3h-6l-15 14"/><path fill="#fcfcfc" fill-rule="evenodd" d="M287 197a106 106 0 0 0-74 55c-7 12-12 31-12 44v9l-3 1c-27 5-47 25-56 53-2 9-2 29 1 38 7 22 20 37 38 46 16 8 14 8 133 8 110 0 115 0 129-5 10-4 15-6 25-13 17-12 29-30 35-51 2-9 2-36 0-45a97 97 0 0 0-26-45 90 90 0 0 0-58-24h-10l-1-4c-3-7-10-20-15-26a106 106 0 0 0-106-41"/></svg>