<svg clip-rule="evenodd" fill-rule="evenodd" stroke-linejoin="round" stroke-miterlimit="2" viewBox="0 0 511 512" xmlns="http://www.w3.org/2000/svg"><g fill="#5ac5f7"><path d="m19.66 347h25.34v55h-25.34z" transform="matrix(.881619 .471962 -.413562 .772528 314.169 74.9296)"/><path d="m19.66 347h25.34v55h-25.34z" transform="matrix(.881619 .471962 -.413562 .772528 197.854 88.1805)"/><path d="m19.66 347h25.34v55h-25.34z" transform="matrix(.881619 .471962 -.413562 .772528 342.017 162.651)"/><path d="m19.66 347h25.34v55h-25.34z" transform="matrix(.881619 .471962 -.413562 .772528 255.891 161.246)"/><path d="m19.66 347h25.34v55h-25.34z" transform="matrix(.881619 .471962 -.413562 .772528 426.094 102.706)"/><path d="m19.66 347h25.34v55h-25.34z" transform="matrix(.881619 .471962 -.413562 .772528 512.129 90.4782)"/><path d="m19.66 347h25.34v55h-25.34z" transform="matrix(.881619 .471962 -.413562 .772528 525.339 175.347)"/></g><path d="m99.365 428.998c-50.503-.32-91.406-41.42-91.406-91.998 0-45.348 32.882-83.077 76.078-90.624-.685-5.744-1.037-11.581-1.037-17.499 0-80.856 65.644-146.5 146.5-146.5 67.312 0 124.082 45.495 141.212 107.388 4.467-.505 9.01-.765 13.613-.765 66.229 0 120 53.77 120 120s-53.771 120-120 120h-284.366z" fill="#fff" transform="matrix(.950086 0 0 .950086 12.0982 -74.5869)"/></svg>