<svg clip-rule="evenodd" fill-rule="evenodd" stroke-linejoin="round" stroke-miterlimit="2" viewBox="0 0 512 512" xmlns="http://www.w3.org/2000/svg"><path d="m157 413.5c0-4.139-7.966-7.5-17.777-7.5h-43.446c-9.811 0-17.777 3.361-17.777 7.5s7.966 7.5 17.777 7.5h43.446c9.811 0 17.777-3.361 17.777-7.5z" fill="#5ac7f9" transform="matrix(.357715 -.481176 1.14051 .847872 -338.863 144.323)"/><path d="m157 413.5c0-4.139-7.966-7.5-17.777-7.5h-43.446c-9.811 0-17.777 3.361-17.777 7.5s7.966 7.5 17.777 7.5h43.446c9.811 0 17.777-3.361 17.777-7.5z" fill="#5ac7f9" transform="matrix(.357715 -.481176 1.14051 .847872 -277.059 192.543)"/><path d="m157 413.5c0-4.139-7.966-7.5-17.777-7.5h-43.446c-9.811 0-17.777 3.361-17.777 7.5s7.966 7.5 17.777 7.5h43.446c9.811 0 17.777-3.361 17.777-7.5z" fill="#5ac7f9" transform="matrix(.357715 -.481176 1.14051 .847872 -182.385 169.255)"/><path d="m157 413.5c0-4.139-7.966-7.5-17.777-7.5h-43.446c-9.811 0-17.777 3.361-17.777 7.5s7.966 7.5 17.777 7.5h43.446c9.811 0 17.777-3.361 17.777-7.5z" fill="#5ac7f9" transform="matrix(.357715 -.481176 1.14051 .847872 -86.3851 147.255)"/><g fill="#fdd632"><path d="m77 184.5c0-7.451-5.601-13.5-12.5-13.5h-38c-6.899 0-12.5 6.049-12.5 13.5s5.601 13.5 12.5 13.5h38c6.899 0 12.5-6.049 12.5-13.5z" transform="matrix(1 0 0 .925926 1 13.1667)"/><path d="m77 184.5c0-7.451-5.601-13.5-12.5-13.5h-38c-6.899 0-12.5 6.049-12.5 13.5s5.601 13.5 12.5 13.5h38c6.899 0 12.5-6.049 12.5-13.5z" transform="matrix(.707107 .707107 -.654729 .654729 178.841 -74.5138)"/><path d="m77 184.5c0-7.451-5.601-13.5-12.5-13.5h-38c-6.899 0-12.5 6.049-12.5 13.5s5.601 13.5 12.5 13.5h38c6.899 0 12.5-6.049 12.5-13.5z" transform="matrix(0 -1 .925926 0 24.9271 80.2396)"/><path d="m77 184.5c0-7.451-5.601-13.5-12.5-13.5h-38c-6.899 0-12.5 6.049-12.5 13.5s5.601 13.5 12.5 13.5h38c6.899 0 12.5-6.049 12.5-13.5z" transform="matrix(.707107 -.707107 .654729 .654729 -62.7534 200.919)"/><path d="m77 184.5c0-7.451-5.601-13.5-12.5-13.5h-38c-6.899 0-12.5 6.049-12.5 13.5s5.601 13.5 12.5 13.5h38c6.899 0 12.5-6.049 12.5-13.5z" transform="matrix(.707107 -.707107 .654729 .654729 148.333 -10.1671)"/><path d="m144.618 250.622c-19.977-15.365-32.858-39.501-32.858-66.622 0-46.361 37.64-84 84-84 20.775 0 39.798 7.558 54.468 20.072-47.66 17.977-81.876 63.448-83.267 117.033-8.13 3.405-15.65 7.982-22.343 13.517z"/></g><path d="m99.365 428.998c-50.503-.32-91.406-41.42-91.406-91.998 0-45.348 32.882-83.077 76.078-90.624-.685-5.744-1.037-11.581-1.037-17.499 0-80.856 65.644-146.5 146.5-146.5 67.312 0 124.082 45.495 141.212 107.388 4.467-.505 9.01-.765 13.613-.765 66.229 0 120 53.77 120 120s-53.771 120-120 120h-284.366z" fill="#fff" transform="matrix(.728023 0 0 .728023 128.49 73.8682)"/></svg>