<svg xmlns="http://www.w3.org/2000/svg" viewBox="0 0 512 512"><path fill="#5ac7f9" fill-rule="evenodd" d="M177 419c-3 1-18 21-20 26-3 6 3 15 11 15 4 0 7-3 16-15 8-11 9-13 9-17l-1-6c-4-5-10-6-15-3m253 2-12 14c-8 10-9 13-9 16 0 6 5 11 11 11 5 0 8-3 18-17 9-12 9-14 6-20-1-3-6-6-9-6l-5 2m-97 22c-3 2-19 25-20 29-1 9 8 15 16 11 3-1 18-22 20-26 4-9-7-19-16-14m-96 25-11 14c-7 9-8 12-8 15 0 8 9 14 16 10l20-26c2-4 1-10-3-13s-11-3-14 0"/><path fill="#fcd434" fill-rule="evenodd" d="M189 6c-5 3-6 7-6 28 0 17 0 20 2 24 4 9 18 9 23 0 2-5 2-42 0-47-2-4-7-7-12-7l-7 2M72 54l-4 4c-3 4-4 9-2 14l16 17 15 14h5c5 0 6 0 9-3s4-3 4-9v-6l-15-15-17-16H72m238 0c-5 2-32 30-33 33-1 5 1 10 4 13s4 3 9 3h5l15-14 16-17 1-7c0-8-10-14-17-11m-128 47a84 84 0 0 0-70 84c0 23 7 41 22 56l7 7 5-4c7-5 13-10 21-14 7-3 7-3 7-6a130 130 0 0 1 68-97l11-5-3-2a83 83 0 0 0-68-19M21 174c-8 5-7 18 2 22 4 2 42 2 46 0 5-2 7-6 7-12 0-5 0-6-4-9l-3-3H47c-21 0-23 0-26 2m76 93c-2 1-10 8-17 16l-14 14-1 5c0 5 0 6 2 9 4 4 8 5 13 5 3-1 6-4 18-15l16-17c5-11-7-24-17-17"/><path fill="#fcfcfc" fill-rule="evenodd" d="M280 138a102 102 0 0 0-57 32 98 98 0 0 0-27 66c0 6-1 9-2 9l-18 7c-8 3-18 11-24 18-6 8-12 20-14 29a72 72 0 0 0 38 82c16 8 7 7 128 8 104 0 109 0 119-2a90 90 0 0 0 65-127 91 91 0 0 0-80-52h-7l-2-6c-9-22-28-44-50-54-16-8-27-11-45-12-13 0-17 0-24 2"/></svg>