<svg xmlns="http://www.w3.org/2000/svg" viewBox="0 0 511 512"><path fill="#5cc4f5" fill-rule="evenodd" d="m176 373-11 22c0 1 22 12 23 11a291 291 0 0 0 19-35l3-7-22-12-12 21M60 386l-10 22 21 12c2-1 23-41 23-43l-20-11c-3-1-3-1-14 20m323-14a780 780 0 0 0-20 38l22 12 6-8 11-22c7-13 7-13 4-15l-12-6c-8-4-8-4-11 1m-95 29-11 22 23 12 22-43-22-12-12 21m-170 58-10 22c2 2 21 12 22 11l22-42-22-12-12 21m94-12a3662 3662 0 0 0-18 36l11 6c11 6 11 6 22-16 12-21 12-21 1-27l-11-6-5 7m176 26-11 22 22 12 10-17 11-21c3-5 3-5-11-12-10-5-10-5-21 16"/><path fill="#fcfcfc" fill-rule="evenodd" d="m228 4-19 1a169 169 0 0 0-32 10l-27 15a138 138 0 0 0-52 71c-6 17-6 21-6 42 0 19 0 19-3 20a474 474 0 0 0-18 4l-7 5c-11 6-24 18-31 29l-4 5-1 1-2 8c-7 15-8 37-4 54l7 19 5 7c8 12 20 23 32 29l6 4 3 1 8 2c9 2 9 2 159 2 136 0 152 0 158-2a132 132 0 0 0 35-13 121 121 0 0 0 51-61l1-4 2-12c3-13 3-29 0-41a304 304 0 0 1-4-19l-1-2-4-10a433 433 0 0 1-11-18 176 176 0 0 0-29-28l-12-7a128 128 0 0 1-15-7l-5-1c-11-3-22-4-33-4s-11 0-12-4a138 138 0 0 0-50-69l-23-14a152 152 0 0 0-38-12c-1-2-9-2-24-1"/></svg>