<svg xmlns="http://www.w3.org/2000/svg" viewBox="0 0 512 512"><path fill="#fffcfc" fill-rule="evenodd" d="M204 5c-20 4-40 12-58 24-10 7-28 25-35 35-11 17-19 36-24 56l-1 28c0 19 0 19-4 20-20 5-33 12-46 26a84 84 0 0 0-25 62c0 14 2 25 8 37 12 26 37 46 66 51l157 1c164 0 159 0 176-6a116 116 0 0 0 83-117c-1-20-3-31-11-47a116 116 0 0 0-108-68c-13 0-13 0-15-8-7-20-19-38-35-54A143 143 0 0 0 204 5M96 404c-13 4-15 22-3 28 3 2 13 2 163 2s160 0 163-2c10-5 11-19 1-26-3-2-3-2-162-3l-162 1m0 74c-13 5-15 21-3 28 3 2 4 3 163 3s160-1 163-3c11-6 11-20 0-26-3-2-4-3-161-3l-162 1"/></svg>