<svg xmlns="http://www.w3.org/2000/svg" viewBox="0 0 512 512"><path fill="#dcdcec" fill-rule="evenodd" d="m251 87-5 1a114 114 0 0 0-41 17l-20 15c-9 10-9 10 10 10 25-1 37 2 58 12 28 14 51 39 62 69 3 9 3 9 16 9 11 0 15 0 24 2 17 5 32 13 46 26a103 103 0 0 1 15 131l-3 5 18-3 4-1 5-1 3-2 20-10c9-6 22-19 27-27a107 107 0 0 0-1-122c0-1-21-22-26-25a136 136 0 0 0-34-15l-21-2c-14 0-14 0-15-3a98 98 0 0 0-9-21l-2-4-3-4a164 164 0 0 0-34-36 125 125 0 0 0-94-21"/><path fill="#fbfbfb" fill-rule="evenodd" d="M178 130a127 127 0 0 0-104 98c-2 6-2 12-2 25 0 18 0 18-4 19-16 4-28 11-39 21a78 78 0 0 0 32 130c8 3 8 3 148 3s140 0 148-3c11-4 21-8 30-14 6-4 26-23 26-25l3-5a103 103 0 0 0-15-130 101 101 0 0 0-70-29c-13 0-13 0-16-9a127 127 0 0 0-137-81"/></svg>