<svg xmlns="http://www.w3.org/2000/svg" viewBox="0 0 512 512"><path fill="#5cc4f5" fill-rule="evenodd" d="m78 395-29 40c-5 7-5 7 6 14 5 5 10 8 11 8l57-80-20-15-25 33m161 13-34 46 18 14c3 2 3 2 36-44l34-47-21-15-33 46m90 15-43 61 9 8c9 6 10 7 11 6 5-5 88-120 87-121l-20-14-44 60m-188 20-35 48 19 14a1345 1345 0 0 0 71-94c0-2-19-16-20-16l-35 48m266 5c-18 26-17 22-6 30l11 7c1 1 25-32 25-34l-19-15c-1 0-6 5-11 12"/><path fill="#fcfcfc" fill-rule="evenodd" d="M209 7a142 142 0 0 0-111 94c-5 14-7 32-7 47v11l-1 2c0 2-2 4-6 4a90 90 0 0 0-50 36l-1 1-3 6a87 87 0 0 0 35 118l4 2 9 2c15 6 8 5 159 6 137 0 145 0 163-3a115 115 0 0 0 43-18 118 118 0 0 0 49-87c1-8 0-19-2-30l-1-8c0-3-2-8-3-8l-1-1a105 105 0 0 0-35-49l-8-7a156 156 0 0 0-43-17l-5-2c-1-1-5-2-13-2l-15-1-4-7c-5-13-7-16-13-26A142 142 0 0 0 209 7"/></svg>