<svg xmlns="http://www.w3.org/2000/svg" viewBox="0 0 512 512"><path fill="#5cc4fc" fill-rule="evenodd" d="m337 375-5 1-60 83c-23 31-24 33-21 40l4 6c4 2 11 2 15 0l43-57c39-54 41-56 41-61 0-10-8-16-17-12m-242 3c-2 1-10 11-27 35-22 30-24 33-24 37 0 8 5 13 13 13l7-1 49-65c2-4 2-11 0-15-3-3-8-6-12-6l-6 2m78 0L98 480c-4 7-5 8-5 12 0 11 9 17 18 12 4-1 4-1 60-78 22-31 23-33 23-37 0-8-5-13-13-13l-8 2m230 0c-3 1-43 56-49 66-4 5-2 13 4 17 4 3 12 3 16-1l26-34c24-34 25-35 22-42s-13-10-19-6m-151 4-17 22-26 37c-26 35-24 32-24 37 0 8 5 13 13 13 4 0 6-1 8-3l24-31 32-44c12-16 13-20 11-26-3-8-14-11-21-5"/><path fill="#fcfcfc" fill-rule="evenodd" d="M212 6c-53 6-101 46-118 97-5 17-6 23-7 45 0 19 0 19-7 21-31 8-55 32-64 63-2 10-2 12-2 25 1 14 1 16 4 25s8 20 13 26a93 93 0 0 0 51 33c8 2 13 2 160 2s152 0 161-2a115 115 0 0 0 95-115c0-34-12-62-35-85a114 114 0 0 0-88-33c-7 0-7 0-9-5-3-10-10-24-17-34-8-12-25-31-37-39-15-10-34-18-52-22-11-2-36-3-48-2"/></svg>