<svg xmlns="http://www.w3.org/2000/svg" viewBox="0 0 512 512"><path fill="#fffcfc" fill-rule="evenodd" d="M246 37c0 34 0 34-19 23s-19-11-23-4a2125 2125 0 0 1-13 23l5 4 28 15c22 13 22 13 22 71 0 63 4 59-39 34l-50-28c-10-6-10-6-10-38s0-32-17-32-17 0-18 21l-1 22a2659 2659 0 0 1-57-33l-17 30 18 11a176889 176889 0 0 0 37 24 564 564 0 0 1-35 21l17 29 38-21c20-12 16-11 34-1a3793 3793 0 0 0 82 48l-11 7a2605 2605 0 0 0-71 41c-18 10-14 11-34-1l-38-21-17 29 17 10 18 11c2 2 1 2-8 8a176889 176889 0 0 0-47 27l16 29a1759 1759 0 0 1 58-32l1 22c1 22 1 22 18 22s17 0 17-33c0-32 0-32 10-38l50-28c43-25 39-29 39 34 0 58 0 58-9 63l-46 27 17 29 20-10c18-11 18-11 18 23 0 33 0 33 17 33s17 0 17-33v-34l36 20c3 2 3 2 12-13l7-16-27-16c-27-16-27-16-28-73v-57a4074 4074 0 0 1 84 48c16 9 16 9 16 41 1 33 1 33 18 33s17 0 17-22v-22a1348 1348 0 0 1 57 32c1 0 18-27 18-29l-15-9c-41-24-42-24-40-26a539 539 0 0 1 35-21l-17-29-46 26c-11 6-8 6-25-4a3793 3793 0 0 0-83-48l11-7a2605 2605 0 0 0 72-41c17-10 14-10 25-4l46 26 4-6a520 520 0 0 1 13-23l-17-10-18-11c-2-2-1-2 40-26l15-9-16-29a1438 1438 0 0 1-58 32l-1-22c0-21 0-21-17-21s-17 0-18 32c0 32 0 32-16 41a7010 7010 0 0 0-84 48v-57c1-57 1-57 28-73l27-16c2-1-16-31-17-30a533 533 0 0 0-38 21V38c0-34 0-34-17-34s-17 0-17 33"/></svg>