<?xml version="1.0" encoding="UTF-8" standalone="no"?>
<!DOCTYPE svg PUBLIC "-//W3C//DTD SVG 1.1//EN" "http://www.w3.org/Graphics/SVG/1.1/DTD/svg11.dtd">
<svg width="100%" height="100%" viewBox="0 0 512 512" version="1.1" xmlns="http://www.w3.org/2000/svg" xmlns:xlink="http://www.w3.org/1999/xlink" xml:space="preserve" xmlns:serif="http://www.serif.com/" style="fill-rule:evenodd;clip-rule:evenodd;stroke-linejoin:round;stroke-miterlimit:2;">
    <g transform="matrix(1,0,0,1,-7.83123,0)">
        <path d="M247,4L280.662,4L280.662,72.676L319.162,50.448L335.662,79.027L280.662,110.781L280.662,226.847L381.179,168.814L381.179,105.306L414.179,105.306L414.179,149.762L473.654,115.424L490.485,144.576L431.01,178.914L469.51,201.142L453.01,229.721L398.01,197.967L297.494,256L398.01,314.033L453.01,282.279L469.51,310.858L431.01,333.086L490.485,367.424L473.654,396.576L414.179,362.238L414.179,406.694L381.179,406.694L381.179,343.186L280.662,285.153L280.662,401.219L335.662,432.973L319.162,461.552L280.662,439.324L280.662,508L247,508L247,439.324L208.5,461.552L192,432.973L247,401.219L247,285.153L146.483,343.186L146.483,406.694L113.483,406.694L113.483,362.238L54.008,396.576L37.177,367.424L96.652,333.086L58.152,310.858L74.652,282.279L129.652,314.033L230.169,256L129.652,197.967L74.652,229.721L58.152,201.142L96.652,178.914L37.177,144.576L54.008,115.424L113.483,149.762L113.483,105.306L146.483,105.306L146.483,168.814L247,226.847L247,110.781L192,79.027L208.5,50.448L247,72.676L247,4Z" style="fill:rgb(255,252,252);"/>
    </g>
</svg>
