<svg clip-rule="evenodd" fill-rule="evenodd" stroke-linejoin="round" stroke-miterlimit="2" viewBox="0 0 512 512" xmlns="http://www.w3.org/2000/svg"><path d="m202.984 188 106.776-.613-22.567 91.613h51.807l-131.889 227 9.889-151h-51.526z" fill="#fdd632"/><path d="m136.481 356.312h-37.077l-.594-.002c-50.475-.323-91.355-41.861-91.355-92.977 0-45.831 32.863-83.961 76.035-91.589-.685-5.804-1.036-11.703-1.036-17.685 0-81.716 65.608-148.059 146.419-148.059 67.275 0 124.013 45.979 141.133 108.532 4.465-.512 9.005-.774 13.606-.774 66.193 0 119.933 54.342 119.933 121.277 0 66.934-53.74 121.277-119.933 121.277h-57.148l61.187-105.312h-64.724s22.618-91.819 22.618-91.819l-164.998.947z" fill="#dbdfeb"/></svg>