<svg clip-rule="evenodd" fill-rule="evenodd" stroke-linejoin="round" stroke-miterlimit="2" viewBox="0 0 512 512" xmlns="http://www.w3.org/2000/svg"><g fill="#fff" transform="translate(-6.31306 .5)"><path d="m323.5 42 8.778 23.722 23.722 8.778-23.722 8.778-8.778 23.722-8.778-23.722-23.722-8.778 23.722-8.778z" transform="matrix(1.12308 0 0 1.12308 -51.8154 -23.1692)"/><path d="m323.5 42 8.778 23.722 23.722 8.778-23.722 8.778-8.778 23.722-8.778-23.722-23.722-8.778 23.722-8.778z" transform="matrix(2.34488 0 0 2.34488 -327.361 -41.9851)"/><path d="m204.014 80.677c-26.168 32.03-41.868 72.93-41.868 117.469 0 102.575 83.278 185.854 185.854 185.854 18.771 0 36.897-2.789 53.974-7.972-33.715 65.856-102.263 110.972-181.265 110.972-112.315 0-203.5-91.185-203.5-203.5 0-106.699 82.294-194.329 186.805-202.823z"/></g></svg>