<svg xmlns="http://www.w3.org/2000/svg" viewBox="0 0 512 512"><path fill="#fffcfc" fill-rule="evenodd" d="m300 31-5 11c-3 7-5 8-17 13l-11 6 11 5 13 7 7 13 5 11 6-12c6-14 6-14 22-20l8-4-11-6-13-6-7-13-5-12-3 7m133 30-8 18c-14 33-13 31-43 44l-21 10 22 10c23 10 27 13 32 21a638 638 0 0 1 18 41c1 1 6-11 16-36 6-13 9-15 35-26l22-10-22-10c-29-12-28-11-40-40l-11-22M176 85A204 204 0 0 0 65 428a203 203 0 0 0 318-39c6-9 6-11 3-10-14 5-22 5-46 5-28 0-34 0-53-6a187 187 0 0 1-97-293c1-2 1-2-3-2l-11 2"/></svg>