<svg xmlns="http://www.w3.org/2000/svg" viewBox="0 0 512 512"><path fill="#8c8c94" fill-rule="evenodd" d="m223 176-10 2a117 117 0 0 0-93 109c0 9 0 9-3 10-17 3-34 13-46 27-6 7-13 22-16 31-2 9-2 32 0 41 9 31 35 54 67 59l127 1c119-1 120-1 128-3a103 103 0 0 0 76-87v-23c-4-25-13-43-31-60a95 95 0 0 0-63-28c-11 0-11 0-13-4l-6-13c-16-31-44-53-79-60-7-2-34-3-38-2"/><path fill="#fcfcfc" fill-rule="evenodd" d="M370 57a112 112 0 0 0-79 62c-7 15-13 38-10 38l13 5c27 12 50 32 65 58 6 10 6 10 11 11 26 3 50 14 68 32l8 6c3 0 18-11 27-20a108 108 0 0 0 33-66l-9 2a100 100 0 0 1-112-49c-12-23-14-51-6-78 0-2 0-2-9-1M85 99l-5 11c-4 8-4 9-18 15l-9 4 8 4c14 6 15 6 21 19 4 11 4 11 7 5l6-12c2-5 3-5 11-10a168 168 0 0 1 14-6l-10-5c-5-2-11-5-12-7-2-1-4-7-6-11l-5-10c0-1-2 0-2 3M32 211c-7 17-7 16-17 21l-8 4 8 4 9 4 5 10 4 8 5-9c4-9 4-9 14-13l8-4-6-4c-14-6-12-3-20-22-1-2-1-2-2 1"/></svg>