<svg xmlns="http://www.w3.org/2000/svg" viewBox="0 0 512 512"><path fill="#5ac7f9" fill-rule="evenodd" d="M96 411c-3 1-5 4-13 14-8 12-9 14-10 18 0 5 0 5 3 8s5 4 8 4l7-1c3-3 20-26 20-30 2-8-6-16-15-13m264 3c-2 1-20 25-21 29s0 9 4 12c3 3 11 3 14 0l11-14c8-11 9-13 9-17 0-3-1-5-3-8-3-2-5-3-8-3l-6 1m-101 24c-3 2-21 26-22 30 0 4 2 10 6 12h12c2-1 15-18 19-25s2-14-4-17c-5-2-7-2-11 0m-99 25c-4 1-18 21-22 27-3 8 2 16 11 16 5 0 7-2 14-11 11-14 13-18 13-22 0-9-8-15-16-10"/><path fill="#fcfcfc" fill-rule="evenodd" d="M341 8c-42 9-73 41-83 82-2 11-2 11 5 14a137 137 0 0 1 75 67l8 2c25 4 45 15 64 32l4 4 8-5a108 108 0 0 0 49-78l-7 1c-8 1-29 1-38-1A94 94 0 0 1 356 8c0-2 0-2-4-2l-11 2"/><path fill="#898e99" fill-rule="evenodd" d="M201 120a113 113 0 0 0-97 109v5l-6 1a76 76 0 0 0 9 150c15 2 218 2 232-1 21-3 37-11 52-24a95 95 0 0 0-59-165c-11 0-11 0-12-3-13-31-33-52-63-65-15-6-39-9-56-7"/></svg>