<svg xmlns="http://www.w3.org/2000/svg" viewBox="0 0 512 512"><path fill="#5cc4f5" fill-rule="evenodd" d="M184 359a1990 1990 0 0 1-18 36c1 2 21 12 22 11l22-41c0-1-20-13-22-13l-4 7m-113 7a607 607 0 0 0-21 43c5 4 21 11 22 10a441 441 0 0 0 21-42s-5-4-11-6c-7-4-10-6-11-5m315 2c-3 4-22 42-21 43a165 165 0 0 0 22 10 435 435 0 0 0 21-42c0-1-5-4-11-6l-11-5m-87 14-21 40c0 1 20 13 22 13l2-2a524 524 0 0 1 21-41l-22-12-2 2m-174 64-11 21c-7 14-7 14 4 20 10 5 12 6 13 4l22-41-23-12-5 8m89-2-20 38c-1 2 22 13 23 12 3-4 22-42 21-43l-21-11-3 4m183 14a1348 1348 0 0 0-20 37l23 12 22-43-11-6c-11-6-11-6-14 0"/><path fill="#8c8c94" fill-rule="evenodd" d="m221 4-7 1a134 134 0 0 0-74 33c-8 6-9 8-16 16l-5 6a158 158 0 0 0-26 62c-2 9-2 15-2 26 1 14 1 14-2 15a86 86 0 0 0-29 11c-6 4-22 20-27 27l-4 5-1 1-4 12c-4 12-6 33-3 46a91 91 0 0 0 60 65c8 2 8 2 160 3 162 0 154 0 169-4 8-2 22-9 29-13a124 124 0 0 0 46-57l1-2 1-2 1-5a118 118 0 0 0-10-87c-5-9-10-15-20-25a111 111 0 0 0-82-34c-11 0-11 0-12-4l-2-5-13-26c-8-12-11-15-19-24A138 138 0 0 0 221 4"/></svg>