<svg clip-rule="evenodd" fill-rule="evenodd" stroke-linejoin="round" stroke-miterlimit="2" viewBox="0 0 512 512" xmlns="http://www.w3.org/2000/svg"><g transform="translate(-.70866 -3.76836)"><g fill="#5ac7f9"><path d="m157 413.5c0-4.139-7.966-7.5-17.777-7.5h-43.446c-9.811 0-17.777 3.361-17.777 7.5s7.966 7.5 17.777 7.5h43.446c9.811 0 17.777-3.361 17.777-7.5z" transform="matrix(.374468 -.503711 1.19392 .88758 -445.749 126.96)"/><path d="m157 413.5c0-4.139-7.966-7.5-17.777-7.5h-43.446c-9.811 0-17.777 3.361-17.777 7.5s7.966 7.5 17.777 7.5h43.446c9.811 0 17.777-3.361 17.777-7.5z" transform="matrix(.374468 -.503711 1.19392 .88758 -381.05 178.369)"/><path d="m157 413.5c0-4.139-7.966-7.5-17.777-7.5h-43.446c-9.811 0-17.777 3.361-17.777 7.5s7.966 7.5 17.777 7.5h43.446c9.811 0 17.777-3.361 17.777-7.5z" transform="matrix(.374468 -.503711 1.19392 .88758 -280.942 152.99)"/><path d="m157 413.5c0-4.139-7.966-7.5-17.777-7.5h-43.446c-9.811 0-17.777 3.361-17.777 7.5s7.966 7.5 17.777 7.5h43.446c9.811 0 17.777-3.361 17.777-7.5z" transform="matrix(.374468 -.503711 1.19392 .88758 -179.446 128.96)"/></g><path d="m99.365 428.998c-50.503-.32-91.406-41.42-91.406-91.998 0-45.348 32.882-83.077 76.078-90.624-.685-5.744-1.037-11.581-1.037-17.499 0-80.856 65.644-146.5 146.5-146.5 67.312 0 124.082 45.495 141.212 107.388 4.467-.505 9.01-.765 13.613-.765 66.229 0 120 53.77 120 120s-53.771 120-120 120h-284.366z" fill="#898c95" transform="matrix(.762272 0 0 .762272 36.8145 61.0958)"/><path d="m257.053 103.412c7.015-49.857 48.283-88.779 99.206-92.171-2.62 8.613-4.029 17.745-4.029 27.204 0 51.573 41.872 93.445 93.445 93.445 8.608 0 16.945-1.167 24.861-3.35-3.383 36.436-24.978 67.619-55.586 84.353-19.702-20.039-46.419-33.167-76.153-35.39-15.854-34.604-45.429-61.629-81.744-74.091z" fill="#fff"/></g></svg>