<svg xmlns="http://www.w3.org/2000/svg" viewBox="0 0 512 512"><path fill="#8c8c94" fill-rule="evenodd" d="M207 5A142 142 0 0 0 88 152c1 15 1 15-3 16-16 4-25 8-37 17a92 92 0 0 0-31 45c-3 10-4 33-2 45 8 35 35 61 71 68 11 3 306 3 319 0a120 120 0 0 0 96-90c2-6 2-10 2-26 1-20 0-23-4-37-3-9-12-27-18-35s-17-19-25-25l-16-10c-18-9-35-13-55-13l-13-1-4-12A145 145 0 0 0 207 5M99 404c-13 4-15 22-3 28 3 2 13 2 163 2s160 0 163-2c5-2 8-7 8-13 0-5-2-9-7-13-3-2-3-2-162-3l-162 1m0 74c-13 5-15 21-3 28 3 2 4 3 163 3s160-1 163-3c11-6 11-20 0-26-3-2-4-3-161-3l-162 1"/></svg>