<svg clip-rule="evenodd" fill-rule="evenodd" stroke-linejoin="round" stroke-miterlimit="2" viewBox="0 0 512 512" xmlns="http://www.w3.org/2000/svg"><g fill="#8c8c94"><path d="m99.365 428.998c-50.503-.32-91.406-41.42-91.406-91.998 0-45.348 32.882-83.077 76.078-90.624-.685-5.744-1.037-11.581-1.037-17.499 0-80.856 65.644-146.5 146.5-146.5 67.312 0 124.082 45.495 141.212 107.388 4.467-.505 9.01-.765 13.613-.765 66.229 0 120 53.77 120 120s-53.771 120-120 120h-284.366z" transform="matrix(.981991 0 0 .992989 4.47091 -74.7992)"/><path d="m409 424c0-9.934-6.978-18-15.574-18h-321.852c-8.596 0-15.574 8.066-15.574 18s6.978 18 15.574 18h321.852c8.596 0 15.574-8.066 15.574-18z" transform="matrix(.963173 0 0 .833333 32.0623 64.6667)"/><path d="m409 424c0-9.934-6.978-18-15.574-18h-321.852c-8.596 0-15.574 8.066-15.574 18s6.978 18 15.574 18h321.852c8.596 0 15.574-8.066 15.574-18z" transform="matrix(.963173 0 0 .833333 32.0623 141.298)"/></g></svg>