<svg xmlns="http://www.w3.org/2000/svg" viewBox="0 0 512 512"><path fill="#6b6c6c" fill-rule="evenodd" d="M252 64.6a78 78 0 0 0-20.9 5 12 12 0 0 1-4 1.4 123.2 123.2 0 0 0-44.3 28c-8.2 8-9 9-6.3 8.4a138.2 138.2 0 0 1 61.1 5.5c2 0 24 11 25.5 12.6.6.8 1.6 1.4 2.2 1.4 1.1 0 13 9.5 18.4 14.9 5 4.8 13 14.4 16.9 20.1a150 150 0 0 1 15.6 32.5c1.1 2.5 1.1 2.5 14.7 2.5a84 84 0 0 1 35.6 6.8 49.4 49.4 0 0 1 12 5.7c2.2 1.4 5.1 3 6.5 3.7a120.5 120.5 0 0 1 35 38.8c3.6 5.9 8.4 20.9 10.4 32.5a97 97 0 0 1-3.6 47c-2.4 8-10 24-12.9 27-2.4 2.7-2.4 3.5 0 3.5 4.8 0 26.6-6 32.1-9a104.6 104.6 0 0 0 21.3-13 67 67 0 0 0 11.5-10c8.3-8.6 22.2-31.3 22.2-36.2 0-.8.6-2.8 1.4-4.4 2.8-5.7 4-15.7 4-32.9-.2-16.5-1-23-4.4-32.5a142.4 142.4 0 0 0-15-28.6 180 180 0 0 0-24.3-23.4c-.8 0-2-.7-2.8-1.6a57 57 0 0 0-10.9-6 77.2 77.2 0 0 0-18.5-7.4 81 81 0 0 0-25.7-3c-12.6 0-12.6 0-13.3-3.3a125 125 0 0 0-13.7-28.5 98.9 98.9 0 0 1-4.2-7c-2.5-4.8-24.8-26-32.6-31a147 147 0 0 0-27-13.5 135.1 135.1 0 0 0-62-6.1"/><path fill="#8b8b93" fill-rule="evenodd" d="m183 106.6-11.5 1.8a73.5 73.5 0 0 0-23.8 6.7c-2.2 1-4.7 1.9-5.7 1.9s-2.1.4-2.4.9c-.3.5-2.5 1.9-4.8 3.1-22 11.4-42.5 33-53.7 56.5A134 134 0 0 0 68.9 221c-1 7-.7 22.7.5 26 .5 1.2-1 2-6.1 3.3l-9.3 2.5a78.3 78.3 0 0 0-21.1 12.6 84.2 84.2 0 0 0-20.3 25.2A65 65 0 0 0 5 316.2a79.1 79.1 0 0 0 9.4 48.6l4.3 7.4A99 99 0 0 0 39 391.4c7.6 5 11 7 11 6 0-.4.8 0 1.8.8 1 .9 3 1.8 4.7 2.1a86 86 0 0 1 8.5 2.4c5.2 1.7 13.3 1.8 136 2.1 133.4.3 140.5.2 152.5-3.5l8.5-2.5a119 119 0 0 0 18-7.9 112.2 112.2 0 0 0 27.3-23c2.6-3.1 4.7-6 4.7-6.4a116 116 0 0 0 14.8-30 97 97 0 0 0 3.6-47 119.7 119.7 0 0 0-13.5-38c-5.2-9.8-24-29.3-31.9-33.3-1.4-.6-4.3-2.3-6.5-3.7a49.4 49.4 0 0 0-12-5.7 84 84 0 0 0-35.6-6.8c-13.6 0-13.6 0-14.7-2.5a150 150 0 0 0-15.6-32.5c-3.9-5.7-12-15.3-16.9-20.1a121 121 0 0 0-20.6-16.3 151.6 151.6 0 0 0-25.5-12.6 157.9 157.9 0 0 0-54.6-6.4"/></svg>