<svg clip-rule="evenodd" fill-rule="evenodd" stroke-linejoin="round" stroke-miterlimit="2" viewBox="0 0 512 512" xmlns="http://www.w3.org/2000/svg"><path d="m99.365 428.998c-50.503-.32-91.406-41.42-91.406-91.998 0-45.348 32.882-83.077 76.078-90.624-.685-5.744-1.037-11.581-1.037-17.499 0-80.856 65.644-146.5 146.5-146.5 67.312 0 124.082 45.495 141.212 107.388 4.467-.505 9.01-.765 13.613-.765 66.229 0 120 53.77 120 120s-53.771 120-120 120h-284.366z" fill="#8c8c94" transform="matrix(.965015 0 0 .975824 8.81898 -75.587)"/><g fill="#5ac7f9"><path d="m169 386c0-7.175-5.778-13-12.895-13h-126.991c-7.117 0-12.895 5.825-12.895 13s5.778 13 12.895 13h126.991c7.117 0 12.895-5.825 12.895-13z" transform="matrix(.590072 -.817387 .810803 .585319 -224.093 290.455)"/><path d="m169 386c0-7.175-6.751-13-15.067-13h-122.647c-8.316 0-15.067 5.825-15.067 13s6.751 13 15.067 13h122.647c8.316 0 15.067-5.825 15.067-13z" transform="matrix(.505021 -.699572 .810803 .585319 -130.065 273.989)"/><path d="m169 386c0-7.175-5.643-13-12.593-13h-127.596c-6.95 0-12.592 5.825-12.592 13s5.642 13 12.592 13h127.596c6.95 0 12.593-5.825 12.593-13z" transform="matrix(.604247 -.837023 .810803 .585319 -66.8085 292.385)"/><path d="m169 386c0-7.175-8.813-13-19.667-13h-113.447c-10.855 0-19.667 5.825-19.667 13s8.812 13 19.667 13h113.447c10.854 0 19.667-5.825 19.667-13z" transform="matrix(.386895 -.53594 .810803 .585319 39.1613 243.482)"/><path d="m169 386c0-7.175-8.813-13-19.667-13h-113.447c-10.855 0-19.667 5.825-19.667 13s8.812 13 19.667 13h113.447c10.854 0 19.667-5.825 19.667-13z" transform="matrix(.386895 -.53594 .810803 .585319 -269.346 243.954)"/></g></svg>