<svg clip-rule="evenodd" fill-rule="evenodd" stroke-linejoin="round" stroke-miterlimit="2" viewBox="0 0 512 512" xmlns="http://www.w3.org/2000/svg"><path d="m99.365 428.998c-50.503-.32-91.406-41.42-91.406-91.998 0-45.348 32.882-83.077 76.078-90.624-.685-5.744-1.037-11.581-1.037-17.499 0-80.856 65.644-146.5 146.5-146.5 67.312 0 124.082 45.495 141.212 107.388 4.467-.505 9.01-.765 13.613-.765 66.229 0 120 53.77 120 120s-53.771 120-120 120h-284.366z" fill="#8c8c94" transform="matrix(.965015 0 0 .975824 8.81898 -75.3563)"/><g fill="#5ac5f7"><path d="m16.219 373h152.781v26h-152.781z" transform="matrix(.453046 -.627574 .810803 .585319 -203.87 283.608)"/><path d="m16.219 373h152.781v26h-152.781z" transform="matrix(.43887 -.607938 .810803 .585319 -104.992 245.734)"/><path d="m16.219 373h152.781v26h-152.781z" transform="matrix(.575897 -.797751 .810803 .585319 -27.0173 278.98)"/><path d="m16.219 373h152.781v26h-152.781z" transform="matrix(.164817 -.228311 .810803 .585319 85.7631 256.724)"/><path d="m16.219 373h152.781v26h-152.781z" transform="matrix(.37272 -.516304 .772342 .557553 -248.604 242.224)"/></g></svg>