<svg xmlns="http://www.w3.org/2000/svg" viewBox="0 0 512 512"><path fill="#8c8c94" fill-rule="evenodd" d="M209 7a142 142 0 0 0-111 94c-5 14-7 32-7 47v11l-1 2c0 2-2 4-6 4a90 90 0 0 0-50 36l-1 1-3 6a87 87 0 0 0 60 126c7 2 282 3 296 1a124 124 0 0 0 52-17l5-3a125 125 0 0 0 43-56l2-8a116 116 0 0 0-39-120l-7-6a112 112 0 0 0-46-18l-7-2-11-1-13-1-3-7-13-26A142 142 0 0 0 209 7"/><path fill="#5cc4f5" fill-rule="evenodd" d="m78 395-29 40c-5 7-5 7 6 14 5 5 10 8 11 8l57-80-20-15-25 33m161 13-34 46 18 14c3 2 3 2 36-44l34-47-21-15-33 46m90 15-43 61 9 8c9 6 10 7 11 6 5-5 88-120 87-121l-20-14-44 60m-188 20-35 48 19 14a1345 1345 0 0 0 71-94c0-2-19-16-20-16l-35 48m266 5c-18 26-17 22-6 30l11 7c1 1 25-32 25-34l-19-15c-1 0-6 5-11 12"/></svg>