<svg xmlns="http://www.w3.org/2000/svg" viewBox="0 0 512 512"><path fill="#8c8c94" fill-rule="evenodd" d="M209 6A144 144 0 0 0 85 156c0 11 0 11-8 13l-17 6a88 88 0 0 0-49 80c0 41 27 75 67 86 10 2 10 2 161 2 132 0 152 0 159-2a118 118 0 0 0-25-234c-8 1-8 1-9-5A145 145 0 0 0 258 8c-10-2-38-3-49-2"/><path fill="#5cc4fc" fill-rule="evenodd" d="M332 375a1139 1139 0 0 0-84 118c0 5 3 11 7 13 4 1 9 1 13-1 2-1 15-18 43-57 41-55 41-55 41-61s-1-6-4-10c-4-2-5-3-9-3l-7 1m-239 3-6 6-22 30-21 29c-7 10 3 24 15 20 4-1 6-4 28-34l25-36c2-7-2-13-8-16-4-1-7-1-11 1m79 0c-3 1-71 94-79 107-3 5-4 9-1 14 3 6 12 9 18 5a1115 1115 0 0 0 82-115c0-8-5-13-13-13l-7 2m229 0c-4 2-50 65-51 69-1 6 3 14 10 16 3 1 9 0 12-2a2066 2066 0 0 0 49-71c0-4-4-10-7-12-4-3-10-2-13 0m-150 3-5 5-29 40c-37 51-34 46-34 52s2 10 8 12c5 3 10 1 15-3l65-92v-8c-4-7-13-10-20-6"/></svg>