<svg clip-rule="evenodd" fill-rule="evenodd" stroke-linejoin="round" stroke-miterlimit="2" viewBox="0 0 512 512" xmlns="http://www.w3.org/2000/svg"><path d="m247 4h33.662v68.676l38.5-22.228 16.5 28.579-55 31.754v116.066l100.517-58.033v-63.508h33v44.456l59.475-34.338 16.831 29.152-59.475 34.338 38.5 22.228-16.5 28.579-55-31.754-100.516 58.033 100.516 58.033 55-31.754 16.5 28.579-38.5 22.228 59.475 34.338-16.831 29.152-59.475-34.338v44.456h-33v-63.508l-100.517-58.033v116.066l55 31.754-16.5 28.579-38.5-22.228v68.676h-33.662v-68.676l-38.5 22.228-16.5-28.579 55-31.754v-116.066l-100.517 58.033v63.508h-33v-44.456l-59.475 34.338-16.831-29.152 59.475-34.338-38.5-22.228 16.5-28.579 55 31.754 100.517-58.033-100.517-58.033-55 31.754-16.5-28.579 38.5-22.228-59.475-34.338 16.831-29.152 59.475 34.338v-44.456h33v63.508l100.517 58.033v-116.066l-55-31.754 16.5-28.579 38.5 22.228z" fill="#fffcfc" transform="translate(-7.83123)"/></svg>