<svg xmlns="http://www.w3.org/2000/svg" viewBox="0 0 512 512"><path fill="#8c8c94" fill-rule="evenodd" d="M209 5A149 149 0 0 0 81 171c1 1-1 2-8 4a92 92 0 0 0-16 172c16 7 27 9 56 9 21 0 21 0 22-5a854 854 0 0 1 8-35 14414 14414 0 0 0 33-147c3-10 3-10 87-11l84 1a2667 2667 0 0 1-22 89l33 1c34 0 34 0 21 22a40077 40077 0 0 0-48 84c1 2 59 1 70 0a123 123 0 0 0 36-233c-17-8-33-11-54-11-11 0-11 0-13-7-3-10-12-28-20-38-7-11-25-28-36-36-14-9-33-18-48-22-18-4-40-5-57-3"/><path fill="#fcfcfc" fill-rule="evenodd" d="M200 199a3001 3001 0 0 0-20 86 9233 9233 0 0 1-15 70l26 1c26 0 26 0 26 8a16369 16369 0 0 0-11 144l14-23a8396 8396 0 0 1 62-105 31151 31151 0 0 0 58-101l-26-1-26-1a1654 1654 0 0 1 22-90h-54c-54 0-54 0-56 12"/></svg>