<svg height="64" viewBox="0 0 64 64" width="64" xmlns="http://www.w3.org/2000/svg"><path d="m8 16c4.418278 0 8-3.581722 8-8s-3.581722-8-8-8-8 3.581722-8 8 3.581722 8 8 8zm0-2c3.3137085 0 6-2.6862915 6-6s-2.6862915-6-6-6-6 2.6862915-6 6 2.6862915 6 6 6zm33.4142136-6 5.9497474-5.94974747-1.4142135-1.41421356-5.9497475 5.94974747-5.9497475-5.94974747-1.4142135 1.41421356 5.9497474 5.94974747-5.9497474 5.9497475 1.4142135 1.4142135 5.9497475-5.94974744 5.9497475 5.94974744 1.4142135-1.4142135zm-1.4142136 40c4.418278 0 8-3.581722 8-8s-3.581722-8-8-8-8 3.581722-8 8 3.581722 8 8 8zm0-2c3.3137085 0 6-2.6862915 6-6s-2.6862915-6-6-6-6 2.6862915-6 6 2.6862915 6 6 6zm-30.58578644-6 5.94974744-5.9497475-1.4142135-1.4142135-5.9497475 5.9497474-5.94974747-5.9497474-1.41421356 1.4142135 5.94974747 5.9497475-5.94974747 5.9497475 1.41421356 1.4142135 5.94974747-5.9497474 5.9497475 5.9497474 1.4142135-1.4142135z" fill-rule="evenodd"/></svg>