<svg height="20" viewBox="0 0 100 20" width="100" xmlns="http://www.w3.org/2000/svg"><path d="m21.1841339 20c.3570109-.130252.7195917-.2641227 1.0882581-.4016739.3622525-.1351582 1.5981447-.5983279 1.7675135-.6616503 9.5998422-3.589121 15.6070294-4.9366758 25.9600945-4.9366758 10.2711361 0 15.3618399 1.2217689 24.6286093 4.9284767.9557457.3822983 1.8692654.7390507 2.7501748 1.0715233h6.2252209c-2.5108688-.7305527-5.1390385-1.6910463-8.2326143-2.9284767-9.4832306-3.7932922-14.8091935-5.0715233-25.3713907-5.0715233-10.6258563 0-16.855186 1.3973866-26.6604899 5.0633242-.1706476.0638005-1.4056563.5266391-1.7662505.6611786-2.4747881.9233553-4.6605816 1.6749546-6.7238425 2.2754972zm0-20c-7.9266125 2.89194861-13.10740545 4-21.1841339 4v-2c5.74391753 0 9.9514017-.5743603 14.8494171-2zm56.1946502 0c7.8597709 2.9664329 13.1235055 4 22.6212159 4v-2c-6.8422671 0-11.3855865-.5421908-16.395995-2zm-77.3787841 14c8.44050043 0 13.7183277-1.2101113 22.272392-4.40167391.3622525-.13515815 1.5981447-.59832787 1.7675135-.66165029 9.5998422-3.58912103 15.6070294-4.9366758 25.9600945-4.9366758 10.2711361 0 15.3618399 1.2217689 24.6286093 4.92847669 9.4832306 3.79329221 14.8091935 5.07152331 25.3713907 5.07152331v-2c-10.2711361 0-15.3618399-1.2217689-24.6286093-4.92847669-9.4832306-3.79329221-14.8091935-5.07152331-25.3713907-5.07152331-10.6258563 0-16.855186 1.39738661-26.6604899 5.0633242-.1706476.06380052-1.4056563.52663914-1.7662505.66117859-8.3497357 3.11532661-13.40974969 4.27549721-21.5732596 4.27549721z" fill-rule="evenodd"/></svg>