<svg fill="none" height="24" viewBox="0 0 24 24" width="24" xmlns="http://www.w3.org/2000/svg"><g fill="#2990ff"><path d="m14.8284 6.34313 1.4142-1.41421-4.2426-4.242641-4.24265 4.242641 1.41421 1.41421 2.82844-2.82842z"/><path d="m4.92892 16.2426 1.41421-1.4142-2.82842-2.8284 2.82842-2.82844-1.41421-1.41421-4.242641 4.24265z"/><path d="m7.75735 19.0711 4.24265 4.2426 4.2426-4.2426-1.4142-1.4143-2.8284 2.8285-2.82844-2.8285z"/><path d="m17.6568 9.17156 2.8285 2.82844-2.8285 2.8284 1.4143 1.4142 4.2426-4.2426-4.2426-4.24265z"/><path clip-rule="evenodd" d="m12 8c2.2091 0 4 1.79086 4 4 0 2.2091-1.7909 4-4 4-2.20914 0-4-1.7909-4-4 0-2.20914 1.79086-4 4-4zm0 2c1.1046 0 2 .8954 2 2s-.8954 2-2 2-2-.8954-2-2 .8954-2 2-2z" fill-rule="evenodd"/></g></svg>