<svg xmlns="http://www.w3.org/2000/svg">
    <symbol id="icon-upload" viewBox="0 0 24 24">
		<g fill="currentColor">
            <path
                d="m11 14.9861c0 .5523.4477 1 1 1s1-.4477 1-1v-7.15779l3.2428 3.24279 1.4142-1.41425-5.6569-5.65685-5.65684 5.65685 1.41422 1.41425 3.24252-3.24256z"
            />
            <path d="m4 14h2v4h12v-4h2v4c0 1.1046-.8954 2-2 2h-12c-1.10457 0-2-.8954-2-2z" />
        </g>
	</symbol>

    <symbol id="icon-download" viewBox="0 0 24 24">
        <g fill="currentColor">
            <path
                d="M11 5C11 4.44772 11.4477 4 12 4C12.5523 4 13 4.44772 13 5V12.1578L16.2428 8.91501L17.657 10.3292L12.0001 15.9861L6.34326 10.3292L7.75748 8.91501L11 12.1575V5Z"
            />
            <path
                d="M4 14H6V18H18V14H20V18C20 19.1046 19.1046 20 18 20H6C4.89543 20 4 19.1046 4 18V14Z"
            />
        </g>
	</symbol>

    <symbol id="icon-add" viewBox="0 0 717 717">
        <g fill="none" stroke="currentColor" stroke-width="50" transform="translate(-41.6667 -41.6667)"><path d="m400 733.333c183.333 0 333.333-150 333.333-333.333s-150-333.333-333.333-333.333-333.333 150-333.333 333.333 150 333.333 333.333 333.333z"/><path d="m266.667 400h266.666"/><path d="m400 533.333v-266.666"/></g>
    </symbol>

<!-- 
    <symbol id="icon-" viewBox="">
    
    </symbol>

    <symbol id="icon-" viewBox="">
    
    </symbol>

    <symbol id="icon-" viewBox="">
    
    </symbol>

    <symbol id="icon-" viewBox="">
    
    </symbol> -->

    <symbol id="icon-" viewBox="">
    
    </symbol>
</svg>