<svg xmlns="http://www.w3.org/2000/svg">
    <symbol id="icon-upload" viewBox="0 0 24 24">
        <g fill="currentColor">
            <path
                d="m11 14.9861c0 .5523.4477 1 1 1s1-.4477 1-1v-7.15779l3.2428 3.24279 1.4142-1.41425-5.6569-5.65685-5.65684 5.65685 1.41422 1.41425 3.24252-3.24256z"
            />
            <path d="m4 14h2v4h12v-4h2v4c0 1.1046-.8954 2-2 2h-12c-1.10457 0-2-.8954-2-2z" />
        </g>
    </symbol>

    <symbol id="icon-download" viewBox="0 0 24 24">
        <g fill="currentColor">
            <path
                d="M11 5C11 4.44772 11.4477 4 12 4C12.5523 4 13 4.44772 13 5V12.1578L16.2428 8.91501L17.657 10.3292L12.0001 15.9861L6.34326 10.3292L7.75748 8.91501L11 12.1575V5Z"
            />
            <path
                d="M4 14H6V18H18V14H20V18C20 19.1046 19.1046 20 18 20H6C4.89543 20 4 19.1046 4 18V14Z"
            />
        </g>
    </symbol>

    <symbol id="icon-add" viewBox="0 0 717 717">
        <g fill="none" stroke="currentColor" stroke-width="50" transform="translate(-41.6667 -41.6667)">
            <path
                d="m400 733.333c183.333 0 333.333-150 333.333-333.333s-150-333.333-333.333-333.333-333.333 150-333.333 333.333 150 333.333 333.333 333.333z"
            />
            <path d="m266.667 400h266.666" />
            <path d="m400 533.333v-266.666" />
        </g>
    </symbol>

    <symbol id="icon-close" viewBox="0 0 24 24">
        <path
            fill="none"
            stroke="currentColor"
            stroke-width="1.5"
            stroke-linecap="round"
            stroke-linejoin="round"
            d="M6 18 18 6M6 6l12 12"
        />
    </symbol>

    <symbol id="icon-refresh" viewBox="0 0 24 24">
        <path
            fill="currentColor"
            d="M13.1459 11.0499L12.9716 9.05752L15.3462 8.84977C14.4471 7.98322 13.2242 7.4503 11.8769 7.4503C9.11547 7.4503 6.87689 9.68888 6.87689 12.4503C6.87689 15.2117 9.11547 17.4503 11.8769 17.4503C13.6977 17.4503 15.2911 16.4771 16.1654 15.0224L18.1682 15.5231C17.0301 17.8487 14.6405 19.4503 11.8769 19.4503C8.0109 19.4503 4.87689 16.3163 4.87689 12.4503C4.87689 8.58431 8.0109 5.4503 11.8769 5.4503C13.8233 5.4503 15.5842 6.24474 16.853 7.52706L16.6078 4.72412L18.6002 4.5498L19.1231 10.527L13.1459 11.0499Z"
        />
    </symbol>

    <symbol id="icon-zoom-out" viewBox="0 0 24 24">
        <path
            fill="currentColor"
            d="M15.3431 15.2426C17.6863 12.8995 17.6863 9.1005 15.3431 6.75736C13 4.41421 9.20101 4.41421 6.85786 6.75736C4.51472 9.1005 4.51472 12.8995 6.85786 15.2426C9.20101 17.5858 13 17.5858 15.3431 15.2426ZM16.7574 5.34315C19.6425 8.22833 19.8633 12.769 17.4195 15.9075C17.4348 15.921 17.4498 15.9351 17.4645 15.9497L21.7071 20.1924C22.0976 20.5829 22.0976 21.2161 21.7071 21.6066C21.3166 21.9971 20.6834 21.9971 20.2929 21.6066L16.0503 17.364C16.0356 17.3493 16.0215 17.3343 16.008 17.319C12.8695 19.7628 8.32883 19.542 5.44365 16.6569C2.31946 13.5327 2.31946 8.46734 5.44365 5.34315C8.56785 2.21895 13.6332 2.21895 16.7574 5.34315ZM7.10052 10V12H15.1005V10L7.10052 10Z"
        />
    </symbol>

    <symbol id="icon-options" viewBox="0 0 24 24">
        <path
            fill="currentColor"
            d="M7 3C8.86384 3 10.4299 4.27477 10.874 6H19V8H10.874C10.4299 9.72523 8.86384 11 7 11C4.79086 11 3 9.20914 3 7C3 4.79086 4.79086 3 7 3ZM7 9C8.10457 9 9 8.10457 9 7C9 5.89543 8.10457 5 7 5C5.89543 5 5 5.89543 5 7C5 8.10457 5.89543 9 7 9Z"
        />
        <path
            fill="currentColor"
            d="M17 20C15.1362 20 13.5701 18.7252 13.126 17H5V15H13.126C13.5701 13.2748 15.1362 12 17 12C19.2091 12 21 13.7909 21 16C21 18.2091 19.2091 20 17 20ZM17 18C18.1046 18 19 17.1046 19 16C19 14.8954 18.1046 14 17 14C15.8954 14 15 14.8954 15 16C15 17.1046 15.8954 18 17 18Z"
        />
    </symbol>

    <symbol id="icon-copy" viewBox="0 0 24 24">
        <path fill="currentColor" d="M13 7H7V5H13V7Z" />
        <path fill="currentColor" d="M13 11H7V9H13V11Z" />
        <path fill="currentColor" d="M7 15H13V13H7V15Z" />
        <path fill="currentColor" d="M3 19V1H17V5H21V23H7V19H3ZM15 17V3H5V17H15ZM17 7V19H9V21H19V7H17Z" />
    </symbol>

    <symbol id="icon-remove" viewBox="0 0 24 24">
        <g fill="currentColor">
            <path d="m8 11c-.55228 0-1 .4477-1 1s.44772 1 1 1h8c.5523 0 1-.4477 1-1s-.4477-1-1-1z" />
            <path
                d="m1 5c0-2.20914 1.79086-4 4-4h14c2.2091 0 4 1.79086 4 4v14c0 2.2091-1.7909 4-4 4h-14c-2.20914 0-4-1.7909-4-4zm4-2h14c1.1046 0 2 .89543 2 2v14c0 1.1046-.8954 2-2 2h-14c-1.10457 0-2-.8954-2-2v-14c0-1.10457.89543-2 2-2z"
                fill-rule="evenodd"
            />
        </g>
    </symbol>

    <symbol id="icon-sun" viewBox="0 0 24 24">
        <path
            fill="currentColor"
            d="M12 2.25a.75.75 0 0 1 .75.75v2.25a.75.75 0 0 1-1.5 0V3a.75.75 0 0 1 .75-.75ZM7.5 12a4.5 4.5 0 1 1 9 0 4.5 4.5 0 0 1-9 0ZM18.894 6.166a.75.75 0 0 0-1.06-1.06l-1.591 1.59a.75.75 0 1 0 1.06 1.061l1.591-1.59ZM21.75 12a.75.75 0 0 1-.75.75h-2.25a.75.75 0 0 1 0-1.5H21a.75.75 0 0 1 .75.75ZM17.834 18.894a.75.75 0 0 0 1.06-1.06l-1.59-1.591a.75.75 0 1 0-1.061 1.06l1.59 1.591ZM12 18a.75.75 0 0 1 .75.75V21a.75.75 0 0 1-1.5 0v-2.25A.75.75 0 0 1 12 18ZM7.758 17.303a.75.75 0 0 0-1.061-1.06l-1.591 1.59a.75.75 0 0 0 1.06 1.061l1.591-1.59ZM6 12a.75.75 0 0 1-.75.75H3a.75.75 0 0 1 0-1.5h2.25A.75.75 0 0 1 6 12ZM6.697 7.757a.75.75 0 0 0 1.06-1.06l-1.59-1.591a.75.75 0 0 0-1.061 1.06l1.59 1.591Z"
        />
    </symbol>

    <symbol id="icon-moon" viewBox="0 0 24 24">
        <path
            fill="currentColor"
            fill-rule="evenodd"
            d="M9.528 1.718a.75.75 0 0 1 .162.819A8.97 8.97 0 0 0 9 6a9 9 0 0 0 9 9 8.97 8.97 0 0 0 3.463-.69.75.75 0 0 1 .981.98 10.503 10.503 0 0 1-9.694 6.46c-5.799 0-10.5-4.7-10.5-10.5 0-4.368 2.667-8.112 6.46-9.694a.75.75 0 0 1 .818.162Z"
            clip-rule="evenodd"
        />
    </symbol>

    <symbol id="icon-volume" viewBox="0 0 24 24">
        <path
            fill="currentColor"
            d="M13.5 4.06c0-1.336-1.616-2.005-2.56-1.06l-4.5 4.5H4.508c-1.141 0-2.318.664-2.66 1.905A9.76 9.76 0 0 0 1.5 12c0 .898.121 1.768.35 2.595.341 1.24 1.518 1.905 2.659 1.905h1.93l4.5 4.5c.945.945 2.561.276 2.561-1.06V4.06ZM18.584 5.106a.75.75 0 0 1 1.06 0c3.808 3.807 3.808 9.98 0 13.788a.75.75 0 0 1-1.06-1.06 8.25 8.25 0 0 0 0-11.668.75.75 0 0 1 0-1.06Z"
        />
        <path
            fill="currentColor"
            d="M15.932 7.757a.75.75 0 0 1 1.061 0 6 6 0 0 1 0 8.486.75.75 0 0 1-1.06-1.061 4.5 4.5 0 0 0 0-6.364.75.75 0 0 1 0-1.06Z"
        />
    </symbol>
</svg>
